<svg width="59" height="17" xmlns="http://www.w3.org/2000/svg"><g fill="#838383" fill-rule="evenodd"><path d="M58.31 13.242V5.31c0-1.152-.783-1.66-2.676-1.66H47.93v9.593h4.473V6.324h1.43v6.918h4.476zM34.641 15.226V3.649h-4.477v6.965h-1.429V3.649h-4.477v8.026c0 1.06.786 1.567 2.676 1.567h3.23v.922h-5.906v2.63h7.707c1.843 0 2.676-.461 2.676-1.568M22.782 13.242V.19h-4.474v10.424h-1.43V3.649h-1.801c-1.845 0-2.675.508-2.675 1.66v6.366c0 1.06.83 1.567 2.675 1.567h7.705zM10.973 13.242V5.31c0-1.152-.833-1.66-2.676-1.66H.59v2.675h5.906v4.29H5.063V7.247H3.265c-1.89 0-2.675.46-2.675 1.615v2.813c0 1.06.785 1.567 2.675 1.567h7.708zM36.117 3.649v7.98c0 1.105.785 1.613 2.629 1.613h7.704v-2.628h-5.903v-4.29h1.43v3.367h1.845c1.845 0 2.628-.507 2.628-1.614V5.263c0-1.106-.783-1.614-2.628-1.614h-7.705z"/></g></svg>