<svg width="28" height="26" xmlns="http://www.w3.org/2000/svg" xmlns:xlink="http://www.w3.org/1999/xlink"><defs><path id="a" d="M0 23.841h26.75V.261H0z"/></defs><g transform="translate(0 .68)" fill="none" fill-rule="evenodd"><path d="M23.39 15.9h-1.273v.597h1.286c.658 0 1.028-.279 1.028-.879a.79.79 0 00-.195-.59v-.01a1.055 1.055 0 00-.748-.221h-.353a.74.74 0 01-.257-.032.21.21 0 01-.144-.206.218.218 0 01.098-.2.45.45 0 01.257-.05h1.2v-.592h-1.316c-.676 0-.933.422-.933.827 0 .879.766.842 1.38.86a.337.337 0 01.234.063.237.237 0 01.08.185.247.247 0 01-.074.18.39.39 0 01-.27.068zM13.297 11.137h-1.543v-.556h1.484v-.571h-1.494V9.51h1.542V8.93h-2.188v2.77h2.191z" fill="#969696"/><path d="M7.938 11.783v.473H5.734l-.257-.621h-.566l-.257.62h-1.12v-2.047l.794-1.842h1.707l.224.46v-.46h2.003l.435 1.002.429-1.002h6.364c.266-.019.53.062.74.227v-.227h1.742v.227c.34-.167.717-.245 1.095-.227h2.523l.234.46v-.46h1.87l.256.46v-.46h1.818v3.887h-1.836l-.347-.587v.587h-2.293l-.258-.62h-.565l-.258.62h-1.193a2.212 2.212 0 01-1.049-.235v.232h-2.828v-.879c0-.135-.024-.135-.098-.135h-.105v1.022H9.473v-.48l-.195.48H8.136l-.198-.475zm17.954 5.267h-1.7v-.247a1.527 1.527 0 01-.89.247H17.95v-.897c0-.115-.013-.115-.121-.115h-.085v1.012H15.96v-1.043a2.214 2.214 0 01-.913.136h-.21v.913h-2.135l-.514-.603-.55.595h-3.47v-3.882h3.534l.514.597.54-.597h2.366c.275 0 .72.031.923.23v-.23h2.106c.31-.006.615.073.884.23v-.23h3.21v.23c.225-.161.496-.242.771-.23h1.8v.23c.242-.164.53-.245.82-.23h1.114V.261H3.515v23.478h23.236V16.91c-.275.101-.566.15-.86.14z" fill="#969696"/><path d="M4.731 10.51l.456-1.1.452 1.085-.908.015zM9.94 11.7h.673V8.919h-1.09l-.79 1.889-.856-1.89H6.804v2.636L5.691 8.919h-.975L3.543 11.7h.708l.257-.62h1.357l.258.62h1.334V9.52l.954 2.18h.579l.949-2.176V11.7zM20.744 9.41l.452 1.09-.902.015.45-1.105zm-3.026 1.283a1.163 1.163 0 001.308 1.004h.771l.257-.62h1.363l.257.62h1.335V9.611l1.242 2.086h.928l-.002-2.768h-.671v1.936L23.354 8.93h-1v2.627l-1.112-2.63h-.982l-.923 2.187h-.295a.622.622 0 01-.456-.141.968.968 0 01-.182-.652.94.94 0 01.188-.631.629.629 0 01.514-.167h.625v-.595h-.633a1.32 1.32 0 00-.995.326 1.49 1.49 0 00-.378 1.075c-.021.12-.023.244-.007.365z" fill="#969696"/><mask id="b" fill="#fff"><use xlink:href="#a"/></mask><path fill="#969696" mask="url(#b)" d="M16.755 11.708h.669V8.927h-.669zM14.397 9.5h.808a.696.696 0 01.314.048c.09.048.143.145.136.248a.297.297 0 01-.136.26v.006a.639.639 0 01-.324.057h-.798v-.618zm0 1.19h.708c.236 0 .38.021.476.12a.825.825 0 01.105.54v.35h.66v-.548a.791.791 0 00-.11-.506.735.735 0 00-.321-.235.783.783 0 00.46-.74.649.649 0 00-.342-.606 1.523 1.523 0 00-.792-.135h-1.51v2.77h.666v-1.01zM25.95 15.903h-1.262v.597h1.266a1.02 1.02 0 00.796-.26v-1.244a1.043 1.043 0 00-.699-.192H25.7a.759.759 0 01-.257-.031.209.209 0 01-.147-.206.223.223 0 01.098-.2.441.441 0 01.257-.05h1.1v-.598H25.53c-.681 0-.938.423-.938.827 0 .88.768.843 1.383.861a.34.34 0 01.231.063.234.234 0 01.08.185.245.245 0 01-.077.18.377.377 0 01-.257.068M15.128 15h-.852v-.707h.857c.236 0 .4.094.4.342 0 .248-.156.365-.405.365zm-1.505 1.247l-1.005-1.132 1.005-1.099v2.231zm-2.597-.329h-1.61v-.553h1.438v-.568H9.416v-.504h1.641l.715.809-.746.816zm4.107-2.201H13.04l-.833.91-.808-.91H8.763V16.5h2.587l.838-.92.816.912h1.272v-.934h.818c.575 0 1.14-.148 1.142-.926-.002-.77-.59-.915-1.103-.915zM18.321 14.86v-.003a.63.63 0 01-.321.057h-.797v-.624h.807a.652.652 0 01.311.047c.095.05.149.154.137.261a.301.301 0 01-.137.261m.86-.394a.655.655 0 00-.335-.618 1.584 1.584 0 00-.79-.13h-1.511V16.5h.658v-1.017h.702c.237 0 .355-.006.478.125.124.13.108.375.108.545v.347h.659v-.553a.812.812 0 00-.108-.509.703.703 0 00-.322-.232l-.003-.003a.784.784 0 00.463-.738M21.736 14.293v-.576h-2.188l.013 2.78h2.188v-.579h-1.543v-.553h1.497v-.568h-1.51v-.504z"/><path d="M1.569 23.58a.888.888 0 01-.65.26.925.925 0 01-.92-.93c0-.515.412-.932.92-.932a.933.933 0 01.92.934.945.945 0 01-.27.663M.91 22.174a.738.738 0 00-.73.746c.001.41.33.742.735.741a.739.739 0 00.73-.744.726.726 0 00-.706-.743h-.02" fill="#858585" mask="url(#b)"/><path d="M1.32 23.306c-.034-.023-.04-.031-.045-.078v-.154c0-.104-.038-.141-.08-.164a.215.215 0 00.098-.201c0-.206-.16-.261-.3-.261H.58v.908h.152v-.381H.99c.12 0 .131.068.131.135 0 .08.008.16.026.238h.175l-.003-.042zm-.34-.454H.735v-.26h.257c.057 0 .134 0 .134.127 0 .128-.072.13-.154.13l.008.003z" fill="#858585" mask="url(#b)"/></g></svg>