<svg width="136" height="36" xmlns="http://www.w3.org/2000/svg"><g transform="translate(1 1)" fill="none" fill-rule="evenodd"><path d="M23.277 10.596c2.192 0 3.594 2.133 3.594 2.133s-2.139 1.168-2.139 3.703c0 3.008 2.687 3.883 2.687 3.883s-2.12 5.061-4.502 5.061c-1.338 0-1.428-.775-3.207-.775-1.545 0-2.066.775-3.244.775-2.246 0-5.148-4.933-5.148-8.944 0-4.167 2.938-5.836 4.78-5.836 1.617 0 2.291.957 3.594.957 1.096 0 1.959-.957 3.585-.957zm-.377-4.25c.323 2.043-1.519 4.57-3.72 4.487-.324-2.599 2.048-4.35 3.72-4.486z" fill="gray"/><path stroke="#979797" d="M35.651 7.367v20.525"/><text fill="gray" font-family="Helvetica" font-size="13"><tspan x="45.271" y="21.333">Apple Store</tspan></text><rect stroke="gray" width="133.55" height="34" rx="17"/></g></svg>