<svg xmlns="http://www.w3.org/2000/svg" xmlns:xlink="http://www.w3.org/1999/xlink" version="1.1" width="256" height="256" viewBox="0 0 256 256" xml:space="preserve">

<defs>
</defs>
<g style="stroke: none; stroke-width: 0; stroke-dasharray: none; stroke-linecap: butt; stroke-linejoin: miter; stroke-miterlimit: 10; fill: none; fill-rule: nonzero; opacity: 1;" transform="translate(1.4065934065934016 1.4065934065934016) scale(2.81 2.81)" >
	<path d="M 9.518 37.866 H 1 c -0.552 0 -1 -0.448 -1 -1 s 0.448 -1 1 -1 h 8.518 c 0.552 0 1 0.448 1 1 S 10.07 37.866 9.518 37.866 z" style="stroke: none; stroke-width: 1; stroke-dasharray: none; stroke-linecap: butt; stroke-linejoin: miter; stroke-miterlimit: 10; fill: rgb(0,0,0); fill-rule: nonzero; opacity: 1;" transform=" matrix(1 0 0 1 0 0) " stroke-linecap="round" />
	<path d="M 57.872 77.188 c -0.603 0 -1.206 -0.229 -1.665 -0.688 l -9.587 -9.587 c -0.918 -0.92 -0.918 -2.414 0 -3.332 l 9.447 -9.447 H 29.181 c -0.552 0 -1 -0.447 -1 -1 s 0.448 -1 1 -1 h 29.301 c 0.404 0 0.77 0.243 0.924 0.617 c 0.155 0.374 0.069 0.804 -0.217 1.09 L 48.034 64.995 c -0.139 0.139 -0.139 0.365 0.001 0.505 l 9.585 9.585 c 0.139 0.14 0.365 0.139 0.504 0 l 29.78 -29.781 c 0.084 -0.084 0.099 -0.191 0.096 -0.266 c 0.003 -0.15 -0.012 -0.257 -0.096 -0.341 l -29.78 -29.781 c -0.181 -0.18 -0.321 -0.184 -0.504 0 l -9.586 9.585 c -0.139 0.139 -0.139 0.365 0 0.504 l 11.154 11.153 c 0.286 0.286 0.372 0.716 0.217 1.09 c -0.154 0.374 -0.52 0.617 -0.924 0.617 H 18.341 c -0.552 0 -1 -0.448 -1 -1 s 0.448 -1 1 -1 h 37.727 l -9.447 -9.447 c -0.918 -0.919 -0.918 -2.414 0 -3.332 l 9.586 -9.586 c 0.892 -0.891 2.444 -0.89 3.332 0 l 29.78 29.78 c 0.464 0.463 0.705 1.087 0.68 1.755 c 0.025 0.593 -0.216 1.216 -0.68 1.68 l -29.78 29.781 C 59.079 76.958 58.476 77.188 57.872 77.188 z" style="stroke: none; stroke-width: 1; stroke-dasharray: none; stroke-linecap: butt; stroke-linejoin: miter; stroke-miterlimit: 10; fill: rgb(0,0,0); fill-rule: nonzero; opacity: 1;" transform=" matrix(1 0 0 1 0 0) " stroke-linecap="round" />
	<path d="M 20.862 54.134 h -8.295 c -0.552 0 -1 -0.447 -1 -1 s 0.448 -1 1 -1 h 8.295 c 0.552 0 1 0.447 1 1 S 21.414 54.134 20.862 54.134 z" style="stroke: none; stroke-width: 1; stroke-dasharray: none; stroke-linecap: butt; stroke-linejoin: miter; stroke-miterlimit: 10; fill: rgb(0,0,0); fill-rule: nonzero; opacity: 1;" transform=" matrix(1 0 0 1 0 0) " stroke-linecap="round" />
	<path d="M 41.533 46 H 7.307 c -0.552 0 -1 -0.448 -1 -1 s 0.448 -1 1 -1 h 34.226 c 0.552 0 1 0.448 1 1 S 42.085 46 41.533 46 z" style="stroke: none; stroke-width: 1; stroke-dasharray: none; stroke-linecap: butt; stroke-linejoin: miter; stroke-miterlimit: 10; fill: rgb(0,0,0); fill-rule: nonzero; opacity: 1;" transform=" matrix(1 0 0 1 0 0) " stroke-linecap="round" />
</g>
</svg>