<svg width="40" height="36" xmlns="http://www.w3.org/2000/svg"><g fill="none" fill-rule="evenodd"><path d="M34.203 9.395h2.969c-.335 1.446-.627 2.893-.962 4.339H9.2c-.292-1.446-.627-2.893-.92-4.34h25.924zM34.12 23.24h-4.224c.46-2.686.962-5.373 1.422-8.1h4.558c-.585 2.727-1.17 5.414-1.756 8.1zm-12.167 0h-4.725c-.46-2.686-.962-5.373-1.422-8.1h6.147v8.1zm1.421 0v-8.1h6.481c-.46 2.686-.962 5.372-1.422 8.1h-5.059zm-13.84-8.1h4.85c.46 2.686.962 5.372 1.422 8.1H11.25c-.586-2.686-1.171-5.373-1.715-8.1zM35.71 31.837c-.168 2.686-4.265 2.727-4.265 0 0-2.728 4.14-2.687 4.265 0zm-25.715 0c0-2.728 4.14-2.687 4.265 0-.167 2.727-4.265 2.727-4.265 0zM1.84 2.493h3.513c.837 4.009 1.714 7.977 2.55 11.985 0 .083.042.207.042.29.795 3.678 1.59 7.357 2.384 11.076.209.91.376 1.818.585 2.727-1.38.496-2.383 1.819-2.383 3.307 0 1.86 1.547 3.43 3.429 3.512 2.007.083 3.511-1.446 3.721-3.306 0-.082.041-.124.041-.206v-.207c-.083-.703-.334-1.363-.752-1.901h15.805a3.413 3.413 0 00-.752 2.108c0 1.86 1.546 3.43 3.428 3.512 2.006.083 3.512-1.446 3.72-3.306 0-.082.043-.124.043-.206v-.207c-.209-1.818-1.59-3.306-3.554-3.306H12.42c-.25-1.199-.502-2.438-.795-3.637H34.79c.293 0 .627-.206.71-.538 1.13-5.083 2.217-10.167 3.346-15.25.083-.454-.21-.91-.711-.91H8.07c-.21-.991-.418-1.983-.627-2.974a96.92 96.92 0 01-.711-3.39.765.765 0 00-.711-.537H1.924C.88 1.088.88 2.493 1.84 2.493z" fill="#5E5E5D"/><path d="M34.203 9.395h2.969c-.335 1.446-.627 2.893-.962 4.339H9.2c-.292-1.446-.627-2.893-.92-4.34h25.924zM34.12 23.24h-4.224c.46-2.686.962-5.373 1.422-8.1h4.558c-.585 2.727-1.17 5.414-1.756 8.1zm-12.167 0h-4.725c-.46-2.686-.962-5.373-1.422-8.1h6.147v8.1zm1.421 0v-8.1h6.481c-.46 2.686-.962 5.372-1.422 8.1h-5.059zm-13.84-8.1h4.85c.46 2.686.962 5.372 1.422 8.1H11.25c-.586-2.686-1.171-5.373-1.715-8.1zM35.71 31.837c-.168 2.686-4.265 2.727-4.265 0 0-2.728 4.14-2.687 4.265 0zm-25.715 0c0-2.728 4.14-2.687 4.265 0-.167 2.727-4.265 2.727-4.265 0zM1.84 2.493h3.513c.837 4.009 1.714 7.977 2.55 11.985 0 .083.042.207.042.29.795 3.678 1.59 7.357 2.384 11.076.209.91.376 1.818.585 2.727-1.38.496-2.383 1.819-2.383 3.307 0 1.86 1.547 3.43 3.429 3.512 2.007.083 3.511-1.446 3.721-3.306 0-.082.041-.124.041-.206v-.207c-.083-.703-.334-1.363-.752-1.901h15.805a3.413 3.413 0 00-.752 2.108c0 1.86 1.546 3.43 3.428 3.512 2.006.083 3.512-1.446 3.72-3.306 0-.082.043-.124.043-.206v-.207c-.209-1.818-1.59-3.306-3.554-3.306H12.42c-.25-1.199-.502-2.438-.795-3.637H34.79c.293 0 .627-.206.71-.538 1.13-5.083 2.217-10.167 3.346-15.25.083-.454-.21-.91-.711-.91H8.07c-.21-.991-.418-1.983-.627-2.974a96.92 96.92 0 01-.711-3.39.765.765 0 00-.711-.537H1.924C.88 1.088.88 2.493 1.84 2.493z" stroke="#61615F" stroke-width=".3"/></g></svg>