<svg width="16" height="20" xmlns="http://www.w3.org/2000/svg"><g fill="#61615F" fill-rule="evenodd"><path d="M8.78 8.53v-.887H6.411v.91h.546v3.277h-.546v.91h2.913v-.91H8.78zM7.87 4.729a.91.91 0 11-.001 1.82.91.91 0 010-1.82"/><path d="M7.87 15.615A6.753 6.753 0 011.123 8.87c0-3.719 3.026-6.746 6.745-6.746 3.72 0 6.745 3.027 6.745 6.746.001 3.72-3.026 6.746-6.745 6.746m7.87-6.746C15.738 4.53 12.208 1 7.868 1 3.53 1 0 4.53 0 8.87c0 3.498 2.296 6.47 5.46 7.49l2.41 2.41 2.408-2.41c3.164-1.02 5.46-3.992 5.46-7.49"/></g></svg>