<svg width="280" height="54" xmlns="http://www.w3.org/2000/svg" xmlns:xlink="http://www.w3.org/1999/xlink"><defs><path id="a" d="M.217 18.634h12.39V.042H.217v18.592z"/></defs><g fill="none" fill-rule="evenodd"><path fill="#808181" d="M0 .41v3.184h4.741v15.099h3.546v-15.1h4.741V.41zM27.103 16.767c-1.454 1.515-3.187 2.08-5.125 2.08-1.988 0-3.62-.72-4.895-2.003-1.836-1.85-1.785-4.135-1.785-7.293 0-3.158-.05-5.444 1.785-7.293C18.358.975 19.938.255 21.978.255c4.206 0 6.348 2.774 6.833 5.855h-3.57c-.408-1.72-1.454-2.67-3.263-2.67-.97 0-1.76.384-2.27.976-.687.77-.866 1.617-.866 5.135s.179 4.391.866 5.161c.51.59 1.3.95 2.27.95 1.071 0 1.938-.385 2.524-1.027.586-.668.816-1.49.816-2.439v-.694h-3.34V8.524h6.858v2.67c0 2.646-.46 4.237-1.733 5.573"/><g transform="translate(31.68 .213)"><mask id="b" fill="#fff"><use xlink:href="#a"/></mask><path d="M6.438 18.634A6.381 6.381 0 011.9 16.759C.243 15.089.217 13.472.217 9.339c0-4.135.026-5.753 1.683-7.422A6.382 6.382 0 016.438.042c3.238 0 5.583 2.03 6.17 5.341h-1.403c-.536-2.516-2.32-4.108-4.767-4.108-1.3 0-2.523.488-3.442 1.413-1.3 1.309-1.402 2.722-1.402 6.65 0 3.929.101 5.341 1.402 6.651.919.925 2.142 1.412 3.442 1.412 2.448 0 4.284-1.591 4.82-4.108h1.35c-.587 3.312-2.982 5.34-6.17 5.34" fill="#808181" mask="url(#b)"/></g><path d="M54.231 9.962h-5.354v7.498h5.354c2.473 0 4.105-1.412 4.105-3.75 0-2.335-1.632-3.748-4.105-3.748m-.204-8.32h-5.15v7.087h5.15c2.192 0 4.028-1.027 4.028-3.544 0-2.516-1.836-3.543-4.028-3.543m.357 17.05H47.5V.41h6.68c3.009 0 5.252 1.746 5.252 4.775 0 1.9-1.07 3.519-2.83 4.109 1.963.668 3.11 2.311 3.11 4.417 0 3.26-2.116 4.981-5.328 4.981M63.789 18.662h36.608L102.643.453H66.037z" fill="#808181"/><path d="M83.995 3.047v.003c-.009 0-.017-.003-.026-.003-.84 0-1.61.686-1.712 1.525l-.227 1.866-.424 3.477-.162 1.326-5.103-8.194h-3.05l-.75 6.146-.564 4.62v.001l-.186 1.525h1.357v-.018c.056.007.11.018.168.018.84 0 1.61-.687 1.712-1.525l.813-6.67 5.103 8.195h3.051l.75-6.146.563-4.621.186-1.525h-1.499zM70.266 3.047v.003c-.01 0-.018-.003-.027-.003-.839 0-1.61.686-1.711 1.525L68.3 6.438l-.424 3.477-.476 3.899-.186 1.525h1.456v-.008c.024.002.046.008.07.008.839 0 1.61-.687 1.711-1.525l1.128-9.242.186-1.525h-1.5zM99.038 4.571l.186-1.524h-1.499v.003c-.01 0-.018-.003-.027-.003-.839 0-1.609.686-1.711 1.525l-.228 1.866-.424 3.477-.161 1.327-5.103-8.195H87.02l-.75 6.146-.563 4.62v.001l-.186 1.525h1.356v-.018c.056.007.11.018.17.018.838 0 1.608-.687 1.71-1.525l.814-6.67 5.103 8.195h3.051l.75-6.146.563-4.621z" fill="#FEFEFE"/></g></svg>