<svg width="84" height="39" xmlns="http://www.w3.org/2000/svg" xmlns:xlink="http://www.w3.org/1999/xlink"><defs><path id="a" d="M0 0h33.046v31.419H0z"/><path id="c" d="M0 0h38.818v38.818H0z"/><path id="e" d="M0 38.818h83.181V0H0z"/></defs><g fill="none" fill-rule="evenodd"><path d="M9.425 12.075h1.96a1.428 1.428 0 0 1 0 .597h-1.258v.75h.998a1.552 1.552 0 0 1 0 .601h-.998v.91h1.292c.021.097.03.195.03.294 0 .106-.009.208-.03.302H9.425v-3.454zM14.475 14.877a1.817 1.817 0 0 1 .165.562 2.138 2.138 0 0 1-.45.12 2.765 2.765 0 0 1-.429.029c-.276 0-.512-.044-.716-.131a1.425 1.425 0 0 1-.517-.371 1.533 1.533 0 0 1-.314-.564 2.246 2.246 0 0 1-.107-.711c0-.257.037-.494.111-.715.072-.218.18-.407.32-.57.138-.16.31-.283.512-.374.206-.09.435-.133.696-.133.153 0 .295.009.424.028.131.019.271.059.421.12-.007.096-.025.19-.057.28a3.523 3.523 0 0 1-.107.278 2.386 2.386 0 0 0-.297-.083 1.728 1.728 0 0 0-.308-.023c-.306 0-.543.099-.708.3-.165.2-.249.498-.249.892 0 .78.334 1.172.996 1.172.118 0 .223-.008.312-.024.09-.017.192-.043.302-.082M16.712 15.002c.496 0 .746-.396.746-1.192 0-.397-.06-.695-.18-.893-.12-.2-.307-.298-.56-.298-.503 0-.755.397-.755 1.191 0 .796.25 1.192.75 1.192m0 .585c-.26 0-.484-.045-.675-.133a1.279 1.279 0 0 1-.465-.372 1.629 1.629 0 0 1-.27-.563 2.797 2.797 0 0 1 0-1.423c.058-.218.15-.408.27-.569.122-.16.278-.285.465-.375.191-.09.415-.134.674-.134.26 0 .484.044.673.134.19.09.344.215.465.375.123.161.214.351.272.57.06.22.09.457.09.713 0 .257-.03.493-.09.71a1.578 1.578 0 0 1-.272.562 1.246 1.246 0 0 1-.465.372 1.584 1.584 0 0 1-.673.133M19.167 12.075a2.402 2.402 0 0 1 .741 0l.793 1.98.816-1.98a1.984 1.984 0 0 1 .682 0l.163 3.454a2.01 2.01 0 0 1-.666 0l-.086-2.344-.702 1.625a2.052 2.052 0 0 1-.41.02 1.679 1.679 0 0 1-.129-.02l-.654-1.658-.067 2.377a1.691 1.691 0 0 1-.616 0l.135-3.454zM23.403 12.075a2.415 2.415 0 0 1 .741 0l.792 1.98.818-1.98a2.02 2.02 0 0 1 .683 0l.162 3.454a2.035 2.035 0 0 1-.346.03c-.107 0-.216-.009-.32-.03l-.088-2.344-.702 1.625a1.898 1.898 0 0 1-.409.02 1.587 1.587 0 0 1-.128-.02l-.655-1.658-.067 2.377a1.675 1.675 0 0 1-.616 0l.135-3.454zM27.552 12.075h1.96a1.574 1.574 0 0 1 0 .597h-1.259v.75h.999a1.632 1.632 0 0 1 0 .601h-.999v.91h1.292c.021.097.03.195.03.294 0 .106-.009.208-.03.302h-1.993v-3.454zM30.428 12.075c.142-.016.274-.029.397-.04.123-.012.26-.017.41-.017.178 0 .352.016.522.048.172.032.325.09.464.172.137.08.249.19.335.33.083.14.127.317.127.531 0 .128-.016.241-.048.338a.96.96 0 0 1-.124.257 1.012 1.012 0 0 1-.322.316l-.084.055.84 1.461-.2.02a2.277 2.277 0 0 1-.578-.019l-.903-1.606.116-.059c.044-.02.098-.049.163-.085.065-.037.125-.079.186-.133a.696.696 0 0 0 .15-.193.542.542 0 0 0 .063-.266c0-.202-.058-.35-.171-.443a.676.676 0 0 0-.45-.143.979.979 0 0 0-.192.016v2.914a2.831 2.831 0 0 1-.174.018c-.056.004-.111.008-.167.008a2.618 2.618 0 0 1-.36-.026v-3.454zM35.838 14.877c.042.09.077.182.105.276.027.095.046.19.06.286a2.114 2.114 0 0 1-.451.12 2.756 2.756 0 0 1-.43.029c-.271 0-.51-.044-.715-.131a1.472 1.472 0 0 1-.518-.371 1.556 1.556 0 0 1-.311-.564 2.164 2.164 0 0 1-.107-.711c0-.257.035-.494.109-.715.074-.218.18-.407.318-.57.14-.16.314-.283.516-.374.204-.09.434-.133.695-.133.153 0 .297.009.425.028.127.019.269.059.42.12-.007.096-.025.19-.058.28a6.272 6.272 0 0 1-.104.278 2.325 2.325 0 0 0-.3-.083 1.68 1.68 0 0 0-.304-.023c-.31 0-.55.099-.711.3-.165.2-.247.498-.247.892 0 .78.333 1.172.995 1.172.116 0 .22-.008.31-.024.092-.017.192-.043.303-.082M36.795 12.075h1.96a1.504 1.504 0 0 1 0 .597h-1.26v.75h1c.02.101.028.201.028.298 0 .102-.007.202-.028.303h-1v.91h1.295a1.534 1.534 0 0 1 0 .596h-1.995v-3.454zM9.512 16.968h1.9a1.71 1.71 0 0 1 0 .43H10v.988h1.125a1.029 1.029 0 0 1 .015.323.694.694 0 0 1-.015.106H10v1.181h1.448c.01.064.014.135.014.211 0 .035 0 .072-.002.111a.572.572 0 0 1-.012.106H9.512v-3.456zM12.315 16.968a2.163 2.163 0 0 1 .49 0v1.962c0 .198.014.368.04.508a.89.89 0 0 0 .125.344.511.511 0 0 0 .228.194.84.84 0 0 0 .348.063c.138 0 .253-.02.346-.063a.522.522 0 0 0 .226-.194.941.941 0 0 0 .125-.344c.026-.14.038-.31.038-.508v-1.962a2.18 2.18 0 0 1 .495 0v2.048c0 .23-.021.436-.065.62a1.2 1.2 0 0 1-.21.461.962.962 0 0 1-.383.286 1.474 1.474 0 0 1-.572.098c-.225 0-.415-.032-.571-.098a.959.959 0 0 1-.384-.286 1.2 1.2 0 0 1-.21-.462 2.653 2.653 0 0 1-.066-.619v-2.048zM15.893 16.965c.071-.008.135-.013.192-.021l.17-.016c.056-.006.115-.008.176-.012.062-.003.13-.003.202-.003.164 0 .325.015.485.046a1.2 1.2 0 0 1 .428.17.909.909 0 0 1 .306.324c.078.136.118.306.118.515 0 .126-.02.24-.064.342a1.118 1.118 0 0 1-.377.484 2.112 2.112 0 0 1-.236.146l-.059.029 1.004 1.456a2.85 2.85 0 0 1-.553 0l-1.104-1.602v-.02l.038-.008c.086-.023.178-.053.274-.09.096-.04.185-.09.267-.152a.836.836 0 0 0 .203-.228.579.579 0 0 0 .083-.318c0-.232-.069-.402-.205-.515-.137-.112-.32-.168-.55-.168-.055 0-.106.003-.152.006a2.018 2.018 0 0 0-.155.014v3.08c-.036.003-.075.007-.118.009a1.064 1.064 0 0 1-.123.006l-.125-.002c-.045-.004-.087-.006-.125-.012v-3.46zM20.309 20.059c.16 0 .3-.031.416-.093a.788.788 0 0 0 .29-.273 1.35 1.35 0 0 0 .175-.427 2.61 2.61 0 0 0 .058-.567c0-.208-.021-.396-.058-.564a1.31 1.31 0 0 0-.175-.428.79.79 0 0 0-.29-.271.899.899 0 0 0-.416-.092.888.888 0 0 0-.414.092.778.778 0 0 0-.291.27 1.227 1.227 0 0 0-.174.429c-.04.168-.058.356-.058.564 0 .21.018.402.058.567.038.166.095.31.174.427a.776.776 0 0 0 .705.366m0 .423c-.25 0-.467-.044-.649-.133a1.223 1.223 0 0 1-.454-.37 1.635 1.635 0 0 1-.269-.563 2.746 2.746 0 0 1-.088-.717c0-.26.029-.498.088-.715a1.65 1.65 0 0 1 .269-.566c.119-.158.272-.283.454-.372.182-.09.399-.133.649-.133s.467.044.648.133c.184.089.335.214.455.372.121.159.21.347.265.566.058.217.089.455.089.715 0 .26-.031.498-.089.717a1.528 1.528 0 0 1-.265.563c-.12.159-.271.282-.455.37a1.458 1.458 0 0 1-.648.133M23.26 18.747c.05.006.096.012.134.015.04.003.095.005.17.005.097 0 .197-.01.294-.032a.665.665 0 0 0 .26-.113.546.546 0 0 0 .186-.224.834.834 0 0 0 .07-.369.79.79 0 0 0-.06-.328.56.56 0 0 0-.42-.334 1.413 1.413 0 0 0-.322-.033c-.118 0-.222.005-.313.015v1.398zm-.49-1.782c.048-.009.103-.012.171-.021.065-.005.134-.01.207-.017.072-.005.141-.008.216-.01.07-.005.141-.005.208-.005.177 0 .344.017.502.053.158.035.298.096.42.183.12.085.215.198.284.343.07.143.105.32.105.535 0 .224-.04.412-.112.56a.978.978 0 0 1-.297.358c-.126.09-.265.152-.42.19-.16.038-.316.056-.482.056-.06 0-.115-.003-.162-.005a2.161 2.161 0 0 1-.15-.01v1.25a2.35 2.35 0 0 1-.247.014l-.12-.003c-.045-.003-.085-.006-.124-.012v-3.46zM25.76 16.968h1.899c.009.065.014.135.014.211 0 .036 0 .074-.003.112a.69.69 0 0 1-.011.106H26.25v.99h1.124c.005.032.012.065.014.102a1.388 1.388 0 0 1 0 .22c-.002.037-.01.073-.014.106H26.25v1.181h1.447c.01.064.014.135.014.211 0 .035 0 .072-.002.111a1.037 1.037 0 0 1-.012.106H25.76v-3.456z" fill="#838383"/><g transform="translate(0 3.722)"><mask id="b" fill="#fff"><use xlink:href="#a"/></mask><path d="m16.86 28.302-2.078.026 1.666 1.189-.617 1.902 1.697-1.152 1.697 1.152-.62-1.902 1.667-1.189-2.078-.026-.666-1.889-.668 1.889zm12.774-7.062-2.077.026 1.666 1.192-.618 1.902 1.698-1.152 1.695 1.152-.618-1.902 1.666-1.192-2.077-.026-.666-1.886-.67 1.886zm-25.66 0-2.077.026 1.666 1.192-.617 1.902 1.696-1.152 1.696 1.152-.616-1.902 1.665-1.192-2.08-.026-.665-1.886-.667 1.886zm20.25 5.187-2.08.026 1.668 1.192-.62 1.902 1.698-1.15 1.696 1.15-.615-1.902 1.665-1.192-2.08-.026-.666-1.886-.666 1.886zm-14.783 0-2.078.026 1.667 1.192-.62 1.902 1.699-1.15 1.695 1.15-.617-1.902 1.667-1.192-2.08-.026-.665-1.886-.668 1.886zm1.746-23.326 1.667-1.191-2.08-.024L10.11 0 9.44 1.886l-2.078.024L9.03 3.101l-.62 1.903 1.699-1.151 1.695 1.151-.617-1.903zM3.975 7.073l-2.078.026 1.666 1.19-.617 1.901 1.696-1.15 1.696 1.15-.616-1.901 1.665-1.19-2.08-.026-.665-1.887-.667 1.887zm-1.23 5.276.668 1.889 2.079.024-1.668 1.193.619 1.9-1.697-1.151-1.697 1.151.618-1.9L0 14.262l2.078-.024.668-1.889z" fill="#838383" mask="url(#b)"/></g><path d="M23.875 8.992h-.314a.9.9 0 0 1 .055-.306h.31c.013-.067.025-.136.035-.205.01-.07.016-.142.016-.217v-.062a.668.668 0 0 1 .186-.058c.072-.013.134-.02.186-.02.002.024.003.047.006.07v.074c0 .08-.01.18-.03.298l-.023.12h.5a.954.954 0 0 1-.012.157.747.747 0 0 1-.04.15h-.494l-.151.84c-.014.06-.026.12-.035.184a1 1 0 0 0-.017.172c0 .077.02.131.06.161a.27.27 0 0 0 .162.044.733.733 0 0 0 .229-.035.623.623 0 0 1 .027.186v.057c0 .02-.002.04-.005.06a1.143 1.143 0 0 1-.305.042c-.084 0-.159-.006-.227-.017a.468.468 0 0 1-.177-.066.32.32 0 0 1-.114-.132.486.486 0 0 1-.04-.219c0-.049.003-.1.012-.157l.03-.172.17-.949zM25.173 10.674c.028-.163.06-.335.095-.515.035-.182.067-.357.097-.526.03-.168.055-.323.075-.464.021-.142.031-.253.031-.335 0-.034 0-.06-.002-.08a.586.586 0 0 0-.009-.072.804.804 0 0 1 .093-.01l.093-.002.087.002a.696.696 0 0 1 .087.01.596.596 0 0 1 .016.17c0 .06-.004.118-.012.175a1.07 1.07 0 0 1 .11-.131.856.856 0 0 1 .134-.113.634.634 0 0 1 .36-.108l.068.003a.332.332 0 0 1 .06.012c0 .052-.006.11-.017.177a.47.47 0 0 1-.06.167.468.468 0 0 0-.112-.011.528.528 0 0 0-.42.187c-.108.123-.185.314-.232.572l-.158.892a1.105 1.105 0 0 1-.159.011h-.097l-.128-.011zM27.207 8.686a1.035 1.035 0 0 1 .198-.015l.092.003c.034.003.065.007.093.012l-.209 1.193a1.257 1.257 0 0 0-.023.221c0 .103.024.177.072.221a.271.271 0 0 0 .192.066.385.385 0 0 0 .205-.064.733.733 0 0 0 .19-.188c.059-.083.112-.185.16-.306.048-.122.086-.26.115-.419l.127-.724a1.402 1.402 0 0 1 .198-.015l.095.003a.885.885 0 0 1 .091.012l-.205 1.15c-.029.155-.051.29-.068.4a1.935 1.935 0 0 0-.023.37l.005.071a1.094 1.094 0 0 1-.09.012c-.033.002-.063.004-.092.004-.025 0-.055-.002-.087-.004a.916.916 0 0 1-.087-.012.711.711 0 0 1-.015-.178c0-.049.003-.096.009-.14l.022-.127a.866.866 0 0 1-.109.168.906.906 0 0 1-.37.273.636.636 0 0 1-.242.047.505.505 0 0 1-.362-.124c-.087-.083-.13-.21-.13-.384a1.885 1.885 0 0 1 .027-.267l.221-1.259zM29.884 9.74a1.217 1.217 0 0 1-.124-.058.436.436 0 0 1-.211-.227.481.481 0 0 1-.037-.2.557.557 0 0 1 .22-.451.798.798 0 0 1 .25-.122c.098-.028.206-.042.324-.042.106 0 .207.01.302.035.096.023.17.049.225.077a.969.969 0 0 1-.112.29 1.224 1.224 0 0 0-.182-.063.911.911 0 0 0-.248-.033.586.586 0 0 0-.277.058c-.074.039-.111.106-.111.2 0 .06.018.11.053.15a.49.49 0 0 0 .188.115l.085.039.153.073a.647.647 0 0 1 .143.095.426.426 0 0 1 .146.331.69.69 0 0 1-.07.32.63.63 0 0 1-.192.22.853.853 0 0 1-.283.13 1.325 1.325 0 0 1-.347.043 1.71 1.71 0 0 1-.304-.027 1.092 1.092 0 0 1-.246-.07c.006-.057.015-.111.029-.162a.625.625 0 0 1 .064-.148 1.357 1.357 0 0 0 .488.093.873.873 0 0 0 .182-.017.506.506 0 0 0 .148-.054.282.282 0 0 0 .098-.1.294.294 0 0 0 .037-.154c0-.08-.023-.14-.07-.18a.697.697 0 0 0-.197-.111l-.124-.05zM31.689 8.992h-.314a.9.9 0 0 1 .054-.306h.31c.013-.067.025-.136.035-.205.01-.07.016-.142.016-.217v-.062a.668.668 0 0 1 .186-.058c.072-.013.134-.02.186-.02l.005.07c.002.023.002.048.002.074 0 .08-.01.18-.031.298l-.023.12h.5a.914.914 0 0 1-.051.306h-.496l-.151.841c-.012.06-.024.12-.034.184a1 1 0 0 0-.016.172c0 .077.02.131.06.161a.27.27 0 0 0 .16.044.733.733 0 0 0 .23-.035.623.623 0 0 1 .027.186v.057c0 .02-.002.04-.004.06a1.143 1.143 0 0 1-.306.042c-.083 0-.16-.006-.227-.017a.468.468 0 0 1-.176-.066.32.32 0 0 1-.114-.132.486.486 0 0 1-.041-.219c0-.049.004-.1.013-.157l.029-.172.17-.949zM26.314 3.812c.022-.009.03-.005.045-.007.014-.02-.051 0-.045.007M26.314 3.812c-.033.01.017.02 0 0M24.556 4.991l-.003-.005c-.013.009-.022.009-.04.026.009-.017.002-.028-.026.002-.01-.008.029-.029.04-.042-.007.017.004.02.028-.002.022-.025-.021-.001-.004-.025.046-.038-.005.05.037.011.003.008-.02.023-.032.035zm-.452.017c.025-.059.092-.081.152-.14-.054.06-.11.1-.152.14zm-.214-.364c.004-.03.117-.116.153-.138l.003.005c.01-.01.028-.023.026-.029.043-.03-.02.042-.026.029a.982.982 0 0 1-.156.133zm.36-.114a.175.175 0 0 1-.052.037c-.012.016.019.019-.015.042l-.001-.022-.066.057c-.011-.026.056-.047.082-.077-.007-.006.056-.063.052-.037zm.244-.15c.002.022-.04.035-.057.07l.003-.017c-.065.04-.02.048-.076.086-.02-.028.079-.091.13-.139zm-.007.291c.004-.025.13-.112.153-.138a1.214 1.214 0 0 1-.153.138zm.086-.109a.585.585 0 0 1 .137-.12c-.05.045-.11.104-.171.156-.001-.006.016-.018.012-.024-.005-.004-.02.01-.031.019 0-.017.055-.054.053-.031zm-1.205.597c-.067.021-.127.16-.17.158.065-.084.132-.15.21-.248.012.01-.018.038-.008.048-.01.005-.052.037-.032.042zm-.19.157c.003.024-.045.051 0 0-.007-.007-.025.023-.03.006.028-.041.07-.113.1-.12.03-.045.013.01 0 0l-.08.103c.015-.008.032-.024.01.011zm.004.058c-.017.017-.026.007-.048.043.044-.036-.005.023-.021.052-.021-.003.038-.051.005-.049l.065-.082c.016.003-.01.028-.001.036zm-.084.08c.008-.008.006-.011.004-.014.038-.016-.064.093-.088.13a.512.512 0 0 1 .084-.116zm-.096.053c-.002-.017.047-.068.049-.045-.023.036-.035.036-.05.045l.009.007c-.005.006-.01.013-.004.014-.025-.003-.056.08-.088.078.039-.044.04-.054.084-.099zm.655-.762c.015.015-.055.058-.01.049l-.073.053c-.017.021-.008.03-.012.045-.02.014-.008-.006-.011-.012-.034.039-.025.03-.063.066.055-.022-.055.043-.066.062.093-.115.125-.144.235-.263zm-.908 1.042c-.032.029-.02.077-.045.065-.003.042-.03.003-.026.029-.04.04.025-.074.026-.029.009-.016-.001-.02.002-.032l.087-.116c.007.003-.033.06-.004.032-.015.026-.024.072-.04.051zm.04-.191c-.016-.04.134-.179.174-.254.004.009-.006.026-.025.049.035-.019.05-.054.1-.104-.003-.005-.006-.011.009-.028l.008.007-.016.021c-.13.196-.304.37-.466.608.076-.117.163-.252.217-.299zm-.385.417c-.02.012.063-.098.085-.136.02-.011-.062.099-.085.136zm1.052-1.3c.006.001-.044.061-.018.059-.153.096-.445.474-.565.631.212-.304.346-.437.583-.69zm.04-.035c.02-.001.03-.05.044-.03.038-.031.136-.168.17-.164-.068.057-.132.148-.236.249-.016-.008.044-.049.023-.055zm.338-.337c-.016.03-.09.079-.127.116.017-.036.089-.086.127-.116zM22.9 5.393c.076-.112.193-.257.25-.327-.045.078-.181.236-.25.327zm.408-.43c-.107.116-.17.202-.246.293-.008-.004.004-.027-.011-.011-.01-.012.059-.068.049-.08.018-.016.009.005.012.011a.202.202 0 0 0 .055-.094c.02-.018.025-.014.02.002.04-.04.089-.103.12-.121zm-1.142 1.339c-.016.017 0-.011.01-.026.009-.013 0-.01-.003-.003-.002-.026.034-.039.052-.078.01.014-.036.069-.06.107zm-.115.046c.007-.022.008-.052-.02.002-.005-.002.004-.021-.008-.006.019-.047.017-.067.055-.11l-.017.055c.008.022.023-.006.042-.036.01.019-.031.044-.052.095zm-.185.214c-.014.01.02-.042-.014-.027l.02-.036c-.01-.009.022-.04.027-.046.007.003-.015.037.002.018-.003.019-.012.042.013.009.002.027-.034.049-.048.082zm-.027.047c-.022.028-.046.064-.067.084-.012-.004.01-.087.032-.076.008-.015.004-.02.016-.039.02-.004.016.008.019.031zm.4-.59.002.018c.005-.01.014-.022.01-.026.03-.04 0 .038-.01.026-.025.016-.02.033-.045.067.006-.023.019-.067.044-.085zm3.829-2.143c-.04.04-.253.139-.292.142-.05.015-.094.055-.103.054l.002-.025c-.151.039-.421.235-.517.267.01.011-.053.052-.03.019a.31.31 0 0 1-.093.074l-.005-.01c-.008.004-.02.013-.023.008.009-.004.019-.012.023-.008.052-.04.14-.096.216-.167-.058.047-.18.13-.247.161.039-.034.11-.073.143-.106-.085.042-.323.229-.4.253.094-.063.23-.144.238-.18.027-.004.08-.055.106-.076-.021-.01-.041.031-.065.029-.028 0-.104.081-.135.075.02-.024.038-.017.047-.037-.043.01-.111.088-.163.099.046-.036.136-.088.195-.139-.053.023-.055.02-.08.006-.06.04-.063.044-.121.079l.003.004c.017 0-.005.032-.016.043-.015.006-.025.002-.032-.005.005-.02.044-.016.048-.038-.006.004-.014.004-.003-.004.086-.076.23-.15.322-.237-.042.049.058-.028.064-.034-.013.005-.031.008-.016-.004.016-.01.037-.027.043-.021-.026.017-.01.012-.005.016.035-.017.006-.025.02-.039-.094.058-.204.14-.286.18.009.005-.051.044-.051.033l.05-.033c-.032.012.01-.035-.031-.006-.014.013.008.004.009.015-.05.013-.035.054-.103.087.005.004.02-.001-.005.016 0-.006-.005-.01.005-.016l.024-.03c.006-.02-.041 0-.014-.023l.153-.1c.023-.024-.19.117-.07.026l-.005-.01c-.006.006-.032.038-.041.027.012-.007.017-.013.018-.018-.017.007-.05.04-.054.029.054-.047.124-.079.212-.145-.052.001-.126.09-.152.079.022-.016.112-.068.08-.058-.026.012-.076.061-.078.037.079-.054.102-.069.183-.126-.002-.002.005-.011.01-.006.049-.044.072-.032.098-.077.03.004.068-.037.093-.061l-.015-.003c-.153.118-.352.242-.574.387-.01-.025-.016.003-.04.007 0 .013.025-.007.03 0l-.082.054c-.023.021-.046.041-.054.032l.048-.041c.122-.119-.017.006-.076.043.22-.2-.143.124-.15.113-.002-.014.054-.044.04-.054l-.023.012a.07.07 0 0 1-.038.032c.038.004-.016.062-.045.066.024-.028.035-.043.013-.046.012-.01.017-.005.032-.02-.001-.008.033-.055.038-.032.032-.054.097-.085.122-.132.055-.022.09-.089.17-.129-.007-.022-.056.019-.078.018.065-.036.1-.08.14-.084.003.025-.056.027-.044.048.093-.068.215-.128.246-.174l.02-.013c0-.009.015-.02.014-.028-.071.051-.097.038-.18.116.02.004.038-.04.048-.018-.006.022-.066.048-.06.02-.147.08-.312.235-.416.306.055-.047.112-.094.15-.136 0-.029.076-.063.023-.012.092-.097.233-.16.332-.255-.017.03.055-.021.063-.041-.155.084-.222.156-.36.219.004-.001.008-.001.008.004l-.032.021c.023-.002-.024.041-.025.029-.002-.007.01-.018.025-.029l-.002-.005c-.08.078-.156.139-.201.178-.002-.039.102-.079.107-.113-.082.061-.124.109-.201.156.057-.049.126-.101.15-.141a4.836 4.836 0 0 1-.273.211c.102-.103.23-.178.294-.271.08-.044.157-.125.265-.178-.007-.007.007-.018-.001-.025a4.808 4.808 0 0 0-.597.485c-.018.008-.033.008-.06.029l-.031.042c.01.003-.048.053-.05.042-.017.014-.016.023-.035.037-.004-.006-.008-.013-.02-.004-.073.112-.226.239-.311.349l-.01.01c.01.013-.04.035 0 0-.007-.013-.05.061-.06.048.024-.024.009-.015.003-.017.055-.085.154-.161.213-.226.002.006-.015.021-.011.027.036-.088.18-.194.24-.275-.002.025.068-.039.063-.046-.06.043-.09.05-.125.071-.028.03-.155.155-.186.18.01-.035.107-.106.119-.14l-.403.425c-.011.026.023 0-.003.035-.03-.037-.132.136-.161.134.033-.047.106-.103.12-.139-.021.018-.025.014-.02-.002a2.532 2.532 0 0 0-.293.37c.074-.08.116-.154.19-.233-.052.058-.005.024-.03.063-.04.04-.104.134-.177.227v-.018c-.03.026-.058.075-.05.079-.04.04-.042.059-.088.114.012.025.024-.037.033-.024.01.006-.027.038-.037.055l-.004-.021c-.016.016-.042.064-.052.058.04-.06-.021.027-.021 0l.029-.028-.008-.007c-.004.006-.012.009-.004-.003l.004.003.008-.01c-.01-.013.038-.04 0 0a.328.328 0 0 0 .08-.103c-.048.015-.155.217-.196.21.01-.017.028-.042.036-.039l.036-.037c-.007-.005-.013-.009-.004-.022.027-.016.066-.092.045-.03.035-.045.07-.089.056-.09.018-.015.037-.019.045-.048.002-.06.139-.128.147-.204a.628.628 0 0 0 .155-.195c.052-.01.073-.118.139-.14-.014.016-.036.035-.032.043.016-.023.063-.058.059-.071-.056.054.064-.111.063-.067.017-.008.016-.013.027-.029l-.003-.004c-.008.007-.018.019-.022.016.015-.012.043-.055.049-.044.002.006-.01.02-.024.032.045-.018.055-.106.054-.057.159-.197.236-.298.426-.426-.062.052-.085.065-.113.111.04-.037.082-.073.107-.077a.296.296 0 0 1 .102-.101c-.005-.029-.074.064-.09.054.067-.079.148-.107.174-.161-.057.041-.058.052-.093.072.009-.025.075-.067.107-.098a5.009 5.009 0 0 0-.82.776c-.013-.024-.036.02-.064.028a.333.333 0 0 1 .085-.082c-.023.015-.037.052-.01.027 0-.017.089-.077.096-.11-.036.02-.05.065-.071.059.03-.028.045-.049.047-.065.046-.021.113-.136.237-.25.025-.005.016.005.035.002.045-.059.152-.168.208-.203-.004-.009-.025.004-.01-.012.018-.028.157-.116.124-.121-.08.067-.218.199-.295.245.106-.099.176-.137.212-.202-.011.009-.027.02-.013.004l.013-.004c.003.017.115-.079.084-.064-.034.032-.055.04-.07.038.02-.016.03-.028.023-.035-.037.017-.082.072-.104.082.005.002-.001.008-.007.013.01.005.027.001.017.022-.02.005-.06.028-.047.004-.054.043-.147.103-.165.155-.025-.015-.062.081-.097.11-.031.021.004-.039-.032.003-.008.03-.035.037-.026.051-.053.032-.095.12-.16.16-.13.157-.311.31-.372.435.034-.034.087-.13.107-.118-.014.021-.235.266-.186.244-.134.14-.248.308-.367.472.06-.129.22-.294.294-.414-.107.131-.227.297-.314.415.125-.226.293-.38.463-.621.005-.007.062-.064.033-.06-.157.216-.25.308-.354.452.007-.007.016-.021.02-.018-.007.008-.016.021-.02.018-.011.036-.013.002-.037.038.016.012-.05.08-.068.117.017-.052-.06.063-.056.075.01-.02.014.013.009.024-.063.09-.097.148-.131.186.013-.048.106-.148.118-.196-.051.019-.072.14-.112.149.053-.11.139-.197.159-.266-.031.044-.063.097-.11.152.023-.035.053-.075.042-.088-.025.038-.02.06-.046.067.009.015-.011.023-.005.047l-.023.015c-.012.058-.148.149-.168.242.01-.02.017-.018.023-.015-.017.033-.023.016-.038.038.008.004.002.018-.014.04-.004-.008.012-.028.014-.04l-.004-.004c-.027.014-.074.121-.095.114.033-.049.057-.072.07-.116-.022.028-.04.028-.061.055.043-.055.045-.069.089-.135v.018c.028-.021.026-.051.05-.064.004.02-.066.09-.047.1.087-.134.184-.235.235-.361a.573.573 0 0 1-.164.177c.035-.042.037-.044.045-.085-.14.159-.206.292-.324.448-.023.016-.003-.007-.006-.022-.04.052-.046.088-.083.123.062-.126.139-.21.158-.302l-.014.022c-.017.003-.03.038-.018.026-.042.069-.121.221-.097.141-.076.122-.121.205-.211.332.01-.024.047-.067.026-.065-.295.484-.561.99-.83 1.555-.172.381-.334.782-.482 1.179l-.038.101a5.404 5.404 0 0 1-.107-.111c-.144-.154-.276-.325-.372-.42-.082-.081-.157-.142-.232-.223a5.39 5.39 0 0 1-.425-.507c-.095-.078-.21-.308-.351-.435-.008.02-.014.048-.046.025.027.117-.151.086-.108.24-.015-.025-.023-.047-.048-.078-.024.005.053.068.033.075-.053.038-.08.047-.055.14-.015-.017-.025-.017-.031-.007a.107.107 0 0 0-.045-.047c.04.051-.014.017.022.069-.036-.049-.03.013-.071-.024.02.033.03.059.04.087-.018-.004-.042-.025-.075-.072-.006.03-.006.029.014.076l-.051-.007c.01.024.003.041.014.077-.074-.052-.054.049-.13-.006 0 .056-.031.133-.082.113.019.04-.014.025.014.077-.043-.048-.051-.026-.047.007-.02-.013-.04-.034-.052-.024-.002.042.037.109-.003.13-.023-.035-.034-.035-.054-.06.016.162.165.388.377.63l.318.358c.234.276.47.589.735.878l.195.195c.159.156.242.288.528.496.168.085.369.214.709-.011.333-.321.188-.249.266-.341.065-.127.104-.224.138-.316.445-1.247 1.05-2.367 1.649-3.335.17-.248.356-.607.559-.853.124-.154.256-.352.377-.484.02-.019.036-.026.06-.055.008-.04.079-.075.105-.127.02-.046.139-.126.145-.185.053-.038.09-.082.135-.131-.01.008-.022.017-.005-.001l.01-.006c.02-.021.04-.042.065-.065l-.002.016c.018-.024.104-.089.05-.065.104-.092.205-.205.334-.299-.03-.014.058-.061.015-.019.043-.014.029-.046.054-.041l.016-.017c-.003-.007.023-.023.028-.019l-.028.019c.01.008.05-.033.062-.028-.005-.006-.01-.012 0-.02.014.019.058-.059.054-.021.034-.017 0-.027.039-.045l-.001.02c.038-.014-.004-.02.02-.032.024-.004.017-.016.04-.02.054-.055.143-.1.155-.141.015-.001.008.006.008.015l.132-.087c-.034.009-.068.041-.098.054 0-.005-.041-.005-.002-.028-.01.001-.066.03-.067.044.015-.012.02-.008.025-.003a.447.447 0 0 0-.11.059c.005.005.005.015.018.009-.002-.003.004-.011.009-.007l-.01.007c0 .029-.074.039-.1.052a.134.134 0 0 1 .069-.039c-.002-.006-.003-.013.014-.022-.008 0-.016-.001-.006-.009l.124-.082c-.018-.011-.084.041-.031-.012-.04.022-.05.041-.06.059-.025-.029-.07.051-.122.06-.006.052-.07.069-.136.108-.01-.012.062-.034.052-.047-.013.007-.015-.003-.006-.009l-.022.008c.013.012-.025.03-.04.045.002-.005.014-.034-.01-.019-.054.04-.037.041-.063.073-.018.011-.016-.012-.031-.006-.04.031-.041.023-.038.047-.035.031-.04.032-.024.005-.04.032-.033.043-.035.052a.283.283 0 0 1-.092.05c.07-.077.198-.174.248-.211l-.048.011c.043-.025.119-.087.15-.11.05-.046.12-.076.178-.13-.007-.013.04-.041.056-.042-.005-.005-.003-.01.004-.017a.316.316 0 0 1 .116-.076c.006-.045.069-.06.105-.073.086-.033.16-.085.254-.136.16-.079.333-.18.496-.215-.048-.016-.138.033-.193.038z" fill="#838383"/><path d="M26.048 4.056c-.062.024.042-.016 0 0M26.052 4.067c-.038.025.043-.013 0 0M25.897 3.913c.04-.014-.082.03 0 0M25.893 3.934c-.064.025.043-.017 0 0M25.95 4.115c-.035.03.037-.008 0 0M25.937 4.145c-.037.025.042-.013 0 0M25.838 3.923c-.04.025.044-.013 0 0M25.838 3.984c-.04.025.044-.013 0 0M25.87 4.158c-.038.025.043-.013 0 0M25.791 3.993c-.038.025.044-.013 0 0M25.837 4.136c-.063.024.043-.016 0 0M25.747 3.946c-.04.026.044-.013 0 0M25.777 4.018c.014-.01-.004-.006 0 0M25.75 4.013c-.036.01-.025.01-.063.029.002.01.068-.021.063-.03M25.764 4.195c.042-.016-.062.024 0 0M25.662 3.986c-.017.009-.098.042-.062.035.018-.01.098-.042.062-.035M25.676 4.047l.01-.005c-.004-.005-.012.002-.01.005M25.587 3.99c.014-.006.078-.035.041-.025-.015.006-.078.035-.04.025M25.586 3.93c.06-.02-.107.036 0 0M25.616 4.026c-.065.025.044-.017 0 0M25.702 4.223c-.038.024.043-.013 0 0M25.699 4.243c-.038.025.043-.012 0 0M25.595 4.066l.021-.01-.004-.01-.02.01zM25.438 4.06c.053-.026.086-.029.115-.06-.035.02-.102.04-.115.06M25.624 4.24c.02.01.052-.03 0 0M25.651 4.247c-.093.03.032-.01 0 0M25.514 3.97c-.04.026.044-.014 0 0M25.638 4.271c-.063.024.042-.016 0 0M25.624 4.24c-.026-.01-.025.032 0 0M25.41 3.86c.048-.017-.005-.017 0 0M25.459 3.922l-.005.002-.016.006.02-.008M25.631 4.31c-.037.025.043-.012 0 0M25.465 3.98c-.04.025.047-.014 0 0M25.577 4.22c-.015.007-.085.037-.049.029.015-.007.085-.037.049-.029M25.41 3.86c-.015.01.004.004 0 0M25.501 4.085c-.039.025.044-.014 0 0M25.59 4.275c-.038.024.043-.013 0 0M25.427 3.955c.015-.01-.004-.006 0 0M25.585 4.265c-.04 0-.074.04 0 0M25.427 3.955c-.047.016.005.016 0 0M25.399 3.95c-.035.02-.123.045-.113.07.025-.028.129-.067.113-.07M25.426 3.98c-.016.007-.04.017-.04.025.026-.012.037-.006.04-.026M25.434 4.024c.04-.014-.084.03 0 0M25.543 4.254c-.035.03.038-.008 0 0M25.46 4.104c-.037.013-.144.07-.122.072.03-.029.143-.07.121-.072M25.57 4.339c-.015.007-.084.036-.048.028.014-.007.084-.036.048-.028M25.357 3.89c-.004-.002-.005-.01-.016-.005.005.003.005.01.016.005M25.419 4.02c-.004-.003-.005-.01-.016-.005.005.003.005.009.016.005M25.551 4.298c-.073.02-.038.038 0 0M25.23 3.68c-.07.028.047-.017 0 0M25.311 3.85c-.04.026.047-.015 0 0M25.43 4.099c-.098.033.033-.011 0 0M25.545 4.338c-.037.024.043-.013 0 0M25.312 3.88c-.04.026.046-.015 0 0M25.209 4.182c-.013.032-.07.037-.112.093.08-.043.234-.17.322-.2-.09.002-.15.105-.21.107M25.308 3.9c0 .026.034-.014 0 0M25.373 4.034c-.042.005.034.005 0 0M25.5 4.297c-.036.024.044-.013 0 0M25.223 3.752c-.043.027.047-.015 0 0M25.37 4.054c-.065.026.044-.018 0 0M25.278 3.92c-.039.032.044-.017 0 0M25.314 4.075c.015-.011.037-.023.038-.03-.017 0-.041.017-.038.03M25.461 4.318c-.035.031.04-.019 0 0M25.178 3.966c.02-.013.103-.063.07-.052-.02.014-.104.063-.07.052M25.296 4.04c-.037.032.043-.02 0 0M25.451 4.35c-.02.016-.104.064-.073.056.02-.015.102-.063.073-.055M25.143 3.76c-.039.034.045-.02 0 0M25.237 3.948l-.043.022c-.01.025.05-.015.043-.022M25.301 4.076c-.026.012-.114.06-.065.056.005-.021.075-.038.065-.056M25.298 4.097c-.036.032.043-.02 0 0M25.328 4.157c-.036.03.042-.02 0 0M25.346 4.19c-.036.032.042-.02 0 0M25.119 3.822c.058-.03.005-.023 0 0M25.259 4.045c.041-.024-.063.035 0 0M25.415 4.355c.012-.012-.004-.005 0 0M24.665 3.994c.058-.037.089-.066.128-.084.08-.062.17-.113.297-.2l-.003-.004c-.081.047-.17.107-.288.188.009-.015-.001-.011-.01-.015-.063.04-.04.063-.111.087-.012.01-.018.02-.013.028M25.102 3.735c-.04.031-.117.067-.136.095.06-.037.093-.042.136-.095M25.024 3.832c-.007.036.092-.04.1-.052-.036.004-.084.065-.1.052" fill="#838383"/><path d="m25.415 4.355-.029.019c.002.01.046-.007.03-.02M25.246 4.073c.037-.02-.079.042 0 0M25.414 4.402c-.035.03.04-.02 0 0M25.084 3.838c-.01.023.043-.009.035-.016l-.014.002-.021.014zM25.058 3.868c-.043.027-.026.032-.06.046l.006.015a.672.672 0 0 0 .124-.087c-.024.011-.058.034-.07.026M25.203 4.068c.01-.006.011.001.016.003.039-.025-.011-.027-.016-.003M25.354 4.31c-.035.031.041-.019 0 0M25.203 4.016c-.039.03-.112.065-.13.09.013-.006.025-.013.026-.002-.02.018-.084.043-.066.056.052-.041.083-.046.107-.083-.013.007-.029.02-.034.015.012-.03.115-.063.097-.076M25.264 4.134c-.004-.002-.005-.01-.015-.003.004.002.005.009.015.003" fill="#838383"/><path d="m25.377 4.38.01-.006c-.005-.005-.012.003-.01.006M25.05 3.801c.048-.024-.004-.016 0 0M25.218 4.071c-.05.026.023.016 0 0M25.377 4.38c-.013.012.004.005 0 0M25.193 4.049c-.02-.007-.051.04 0 0M25.259 4.202c-.061.034.04-.023 0 0M25.05 3.801c-.013.013.005.005 0 0M25.066 3.857c.014-.013-.004-.006 0 0M25.134 4.015c.026.006.024-.037 0 0M25.221 4.155c-.037.03.042-.02 0 0M25.318 4.34c-.035.031.04-.02 0 0M25.066 3.857c-.01.005-.01.008-.008.01.009-.003.009-.007.008-.01M25.147 4.04c-.037.031.043-.022 0 0M25.19 4.148c.01.023.04-.025 0 0" fill="#838383"/><path d="M25.075 4.06a.208.208 0 0 0 .06-.045l-.004-.005c-.026.018-.06.037-.056.05M24.944 3.707c-.084.045.04-.021 0 0M25.104 4.009c-.038.032.043-.021 0 0M25.19 4.174c-.06.035.043-.023 0 0M25.238 4.262l.003.005c.01-.008.002-.009-.003-.005M25.021 3.88c-.039.032.044-.022 0 0M25.24 4.267c-.013.012.004.006 0 0M25.014 4.297l.06-.04c-.01-.032.07-.05.1-.09-.007-.016-.038.005-.07.024-.003-.005.034-.041 0-.025 0 .01-.008.005-.02.013.025.026-.071.074-.118.13.049-.027.062-.045.093-.054.012.007-.087.056-.045.042M25.202 4.246c-.039.01.033 0 0 0M25.231 4.397c.03.001.06-.046 0 0M25.065 4.04c.014-.013-.004-.005 0 0M24.968 4.143l-.064.061c.052-.037.186-.113.182-.125-.037.018-.106.083-.118.064M25.32 4.516c-.057.033.04-.022 0 0M24.89 3.742c-.066.038.045-.026 0 0M24.948 3.849c.01-.007.009-.017-.005-.01.004.005-.012.018.005.01M24.997 3.914c-.01-.013-.04.033 0 0M25.005 3.93c-.046.023.006.015 0 0M25.065 4.04c-.057.03-.004.024 0 0M25.015 4.001c-.038.032.044-.022 0 0M25.047 4.033l-.01.007c.005.004.012-.004.01-.007M24.892 3.93c.036-.013.034-.026.066-.036.007-.025-.07.03-.066.037M25.042 4.075c-.033.038.038-.015 0 0M25.218 4.446c.057-.02.01-.04 0 0M24.974 4.178c.04-.035.081-.046.086-.069-.032.023-.09.051-.086.07M24.918 3.979c.031 0 .064-.05 0 0M25.01 4.07c-.062.034.044-.025 0 0M25.273 4.546c-.058.034.04-.022 0 0M24.892 3.878c-.04.033.045-.022 0 0" fill="#838383"/><path d="M24.999 4.123c-.037.032.044-.02 0 0M25.057 4.203c-.016.014-.062.033-.058.044.034-.027.059-.021.058-.044M25.097 4.275l-.01.007c.005.004.012-.005.01-.007M25.026 4.171l-.043.022c-.01.024.05-.016.043-.022M25.177 4.466c-.035.03.04-.02 0 0M24.85 3.906l.003-.002a.635.635 0 0 1-.004.002M24.962 4.108c-.037.032.044-.021 0 0M24.85 3.932c.043-.025-.066.037 0 0M24.906 4.059c-.096.05.032-.016 0 0M24.912 4.069c.038-.021-.082.043 0 0M25.022 4.311c.012-.012-.005-.005 0 0M24.793 3.91c-.014.013.005.005 0 0M24.807 3.96c.044-.025-.065.037 0 0M24.785 3.948c-.039.033.045-.022 0 0M24.944 4.224c.025-.036-.04.015 0 0M24.966 4.262c-.015.01-.083.052-.048.038.015-.01.084-.052.048-.038M24.962 4.278c-.037.031.043-.02 0 0M24.85 4.11c-.038.031.043-.022 0 0M24.944 4.342c.01 0 .056-.02.037-.03-.014.01-.038.022-.037.03M25.104 4.546c-.035.03.04-.019 0 0M25.083 4.534c-.028.027.044-.013 0 0M24.743 3.976c-.04.033.045-.022 0 0M24.874 4.224c.027.006.023-.036 0 0M24.813 4.12c-.097.05.032-.016 0 0M24.869 4.215c.013-.013-.005-.005 0 0M24.75 4.135c.072-.03.026-.037 0 0M24.678 3.966c.014-.013-.005-.005 0 0M24.712 4.022c-.04.033.044-.022 0 0M25.044 4.559c-.04.02-.067.053-.087.055.017.014.101-.053.087-.055M24.785 4.17c-.064.037.043-.024 0 0M24.844 4.27c-.037.03.044-.021 0 0M24.636 4.045c.017-.018.044-.009.042-.028-.013.008-.009 0-.005-.009-.025.014-.039.027-.037.037M24.718 4.227c-.015-.008.051-.028.036-.036-.023.011-.077.052-.036.036M24.684 4.171c.044-.025-.064.036 0 0M24.888 4.503l.01-.007c-.005-.004-.012.004-.01.007M24.573 4.087c-.04.033.045-.022 0 0M24.65 4.212c-.036.032.046-.02 0 0M24.666 4.236c-.038.032.044-.021 0 0M24.985 4.766c-.034.03.041-.018 0 0M24.551 4.1c-.065.023-.106.094-.184.138.018.019.17-.117.184-.137M24.625 4.217c-.076.033-.038.046 0 0" fill="#838383"/><path d="M24.635 4.256c-.038.032.044-.021 0 0M24.97 4.764c-.012.012.004.005 0 0M24.489 4.05c-.039.033.046-.022 0 0M24.626 4.242c-.017.015-.042.03-.046.043.026-.016.05-.032.046-.043M24.493 4.08c.044-.026-.066.037 0 0M24.513 4.159c-.01.005-.01.008-.007.011.009-.005.008-.008.007-.011M24.345 3.993c-.036.039.043-.028 0 0M24.365 4.025c-.036.04.043-.028 0 0M24.55 4.331l.007.01c.01-.012.003-.018-.006-.01M24.287 4.049c.043-.015.02-.043 0 0M24.34 4.104l.02-.017c-.002-.013-.02.004-.036.016l.003.005.013-.004zM24.482 4.34c-.034.037.041-.027 0 0M24.287 4.049c-.013.015.004.005 0 0M24.283 4.066c-.036.04.043-.028 0 0M24.273 4.097l-.001.022.04-.034c-.001-.017-.027.009-.04.012M24.188 4.019c.047-.02.034-.054 0 0M24.317 4.116c-.043.015-.019.042 0 0M24.83 4.9c-.032.036.037-.023 0 0M24.21 4.121c.014-.01.073-.06.037-.038-.014.01-.073.06-.037.038M24.32 4.191c-.06.046.042-.03 0 0M24.39 4.404l.009.014c.032-.024.035-.04.039-.054l-.032.019c.006.008-.001.016-.016.02M24.188 4.019c-.013.015.005.005 0 0M24.183 4.059c.028 0 .022-.043 0 0M24.2 4.06c-.103.075-.014.04 0 0M24.251 4.158c.005 0 .006.009.016 0-.004-.001-.006-.008-.016 0M24.173 4.067l.01-.009c-.005-.003-.012.007-.01.009M24.213 4.125c-.036.04.043-.028 0 0" fill="#838383"/><path d="m24.173 4.067-.043.03c-.008.026.052-.025.043-.03M24.271 4.233c-.035.038.043-.028 0 0M24.74 4.97c-.032.035.037-.023 0 0M24.157 4.18c-.036.04.043-.027 0 0M24.14 4.224c.03-.005.06-.059 0 0M24.087 4.105c.042-.032-.062.047 0 0M24.167 4.33c.014-.01.072-.06.036-.039-.013.011-.071.06-.036.038M24.069 4.148c-.062.047.042-.032 0 0M24.685 5.031c-.02.02-.025.008-.047.033-.004.024.053-.027.047-.033M24.145 4.298c-.005 0-.007-.008-.017 0 .005.001.007.008.017 0M23.996 4.182c.013-.011.018-.006.033-.021l-.01-.014-.03.026.007.009zM23.938 4.102c-.037.04.044-.029 0 0M23.94 4.13c.043-.034-.062.046 0 0M24.092 4.336c-.035.038.042-.028 0 0M23.947 4.16c-.037.039.044-.03 0 0M24.008 4.243c-.036.04.043-.029 0 0M24.552 4.986l.01-.008c-.006-.003-.012.006-.01.008" fill="#838383"/><path d="M23.907 4.129c-.08.059.04-.028 0 0M23.95 4.428a.267.267 0 0 0 .116-.106.944.944 0 0 0-.116.106M24.088 4.375c-.035.038.043-.028 0 0M24.105 4.375l-.03.025c-.005.025.053-.024.03-.025M23.94 4.194c.03-.022-.097.067 0 0M23.948 4.295l.007.009c.016.009.06-.062.023-.035 0 .01-.014.01-.03.026M23.747 4.272c.029-.028.135-.108.109-.1-.029.027-.135.108-.109.1M23.872 4.194c-.035.04.044-.03 0 0M24.023 4.395c-.093.065.03-.021 0 0M24.013 4.467c-.005 0-.007-.008-.016 0 .004.001.006.008.016 0M23.963 4.445c-.043.015-.017.042 0 0M23.977 4.463c-.062.047.009.026 0 0M23.937 4.432a.823.823 0 0 0-.095.09l.003.003c.032-.036.085-.058.089-.076-.022.012.009-.012.003-.017M23.957 4.543c-.012-.01-.037.04 0 0M23.757 4.35c.038-.028-.08.058 0 0M23.908 4.585c.012-.015-.005-.004 0 0M23.682 4.32c-.063.048.043-.033 0 0M23.794 4.525c.018-.006.041-.026.037-.038-.014.014-.037.03-.037.038M23.841 4.52l-.003-.003-.068.06.007.009c.01-.005.03-.02.028-.027l.03-.025c-.002-.003-.003-.006.006-.013" fill="#838383"/><path d="m23.845 4.525-.01.009c.006.003.012-.006.01-.01M23.706 4.393c-.036.04.044-.029 0 0M23.8 4.593c.016-.017.024-.013.042-.03l.003-.017c-.012.015-.055.038-.045.047M23.645 4.381c-.034.041.043-.03 0 0M23.72 4.599c.017-.022.063-.058.061-.07-.022.006-.05.05-.06.07M23.622 4.374c-.088.077.029-.025 0 0M23.62 4.414c-.006.005-.043.027-.036.04.014-.023.04-.02.037-.04M23.609 4.442c-.032.043.04-.033 0 0M23.57 4.436c-.038.019-.106.104-.148.157l.004.003c.032-.053.103-.098.144-.16M23.572 4.481c.035-.032-.074.066 0 0M23.657 4.705c.018 0 .071-.053.063-.066-.063.04-.14.149-.228.233a.583.583 0 0 0 .165-.167M23.645 4.569c-.025.022-.031.036-.017.041.027-.023.01-.027.017-.041M23.489 4.444c-.033.043.04-.034 0 0M23.654 4.661c-.032.042.04-.033 0 0M23.509 4.571c-.02.044.038-.028 0 0M23.52 4.584c-.032.043.04-.034 0 0M23.572 4.646c-.012.012-.066.069-.033.042.012-.012.067-.068.033-.042M23.617 4.7c-.03.041.04-.034 0 0M23.492 4.613c.029-.025-.088.076 0 0M23.54 4.648c-.011.016.005.004 0 0M23.555 4.686c-.087.077.03-.024 0 0M23.351 4.51c-.033.045.041-.034 0 0M23.352 4.674c.03-.03.033-.048.07-.082-.026.015-.087.08-.07.082M23.63 4.852c.027-.024-.086.074 0 0M23.396 4.644c-.032.043.04-.034 0 0M23.576 4.908c.038-.035-.055.052 0 0M23.377 4.703c-.032.043.04-.034 0 0M23.418 4.77c-.042.02-.014.043 0 0M23.363 4.748c-.032.043.041-.034 0 0M23.347 4.75c-.032.043.04-.034 0 0M23.542 4.967c.011-.016-.005-.004 0 0M23.23 4.64c.035-.034-.076.067 0 0M23.488 4.907c-.013-.037-.035.02 0 0M23.277 4.792c.082-.098-.027 0 0 0M23.45 4.884c-.01.016.006.004 0 0M23.313 4.77c-.057.055.039-.036 0 0M23.505 4.984c-.031.042.039-.032 0 0M23.318 4.797c-.021.025-.108.108-.08.09.022-.023.109-.106.08-.09M23.432 4.942c.041-.036-.009-.014 0 0M23.443 4.954c0-.006.016-.02.011-.027l-.022.015-.009.01c.004.006.01.012.02.002" fill="#838383"/><path d="M23.277 4.792c.014.01.035-.044 0 0M23.256 4.768c-.013.004-.244.268-.248.265-.007-.006.093-.091.038-.057-.016.01-.055.077-.058.074l.01.011c.072-.1.182-.191.258-.293M23.339 5.033c.007.028.062-.028.074-.055l-.004-.004c-.024.011-.014.02-.045.047-.003-.009-.014.001-.025.012M23.224 4.833c-.058.054.04-.037 0 0M23.222 4.85c-.032.044.041-.034 0 0M23.224 4.911c-.005 0-.008-.008-.017.002.006.001.008.007.017-.002M23.306 5.036c-.056.053.038-.036 0 0M23.104 4.843c-.032.043.04-.035 0 0M23.188 4.95l.018-.019-.007-.008-.02.019zM23.13 5.005c-.12.136-.016.035.026-.03-.014.013-.02.012-.027.03M23.022 4.875c-.005-.002-.008-.008-.017.002.005 0 .008.006.017-.002M23.086 4.98c-.01.011-.02.024-.01.026-.109.131-.022.052.018-.019-.012.011-.01.001-.008-.008M22.934 4.92c-.031.043-.13.156-.114.153.03-.044.13-.157.114-.154M23.044 5.107c-.028.046.037-.037 0 0M22.907 5.178c.046-.064.065-.064.091-.117-.016.005-.04.032-.057.038.017.007-.042.075-.034.079M23.002 5.083c.032-.035-.067.073 0 0M22.983 5.14c-.028.047.038-.036 0 0M22.96 5.136c-.028.046.037-.037 0 0M22.919 5.189c-.028.046.037-.037 0 0M22.798 5.368c.041-.04.223-.289.037-.056-.009.012-.015.02-.02.017-.018.02-.025.034-.017.04M22.799 5.09c-.01.018-.048.051-.038.057.025-.035.043-.034.038-.057M22.787 5.34c.006-.083.085-.07.1-.145a.61.61 0 0 0-.124.14c.007.004.01.018.024.005M23.01 5.46c.057-.06.007-.033 0 0" fill="#838383"/><path d="M22.815 5.33c.067-.075.015-.045 0 0M22.462 5.537c.044-.075.216-.268.261-.35-.08.112-.223.261-.26.35M23 5.45c-.029.045.035-.036 0 0M22.975 5.48c.032-.033-.066.072 0 0M22.55 5.469c.046-.064.164-.2.163-.217-.062.089-.137.148-.164.217M22.951 5.476c-.028.045.037-.037 0 0" fill="#838383"/><path d="M22.959 5.484c-.016.023-.089.107-.061.086.016-.023.09-.107.061-.086M22.782 5.39c-.028.046.037-.038 0 0M22.789 5.397c.036-.04-.052.059 0 0M22.737 5.367c-.02.037-.026.02-.04.035-.035.08.061-.049.04-.035M22.75 5.378c-.029.046.037-.038 0 0M22.926 5.543c-.027.045.037-.037 0 0M22.728 5.45c.012-.017.032-.039.029-.047-.016.01-.036.035-.03.046M22.648 5.412c-.001.027.053-.045.045-.048a.184.184 0 0 1-.045.048M22.733 5.4c-.026.034-.042.037-.071.08.032-.054-.027.006-.028.028.009-.013.015-.018.02-.018.002.013-.039.05-.033.06.023-.026.089-.107.112-.15M22.723 5.481c-.007.007-.017.021-.02.018.007-.008.016-.02.02-.018.012-.02.046-.033.041-.052-.023.008-.057.053-.09.098.006.01.05-.022.05-.046M22.703 5.463c-.028.046.038-.038 0 0M22.865 5.646c-.05.058.034-.039 0 0M22.556 5.547a.646.646 0 0 0 .075-.114c-.036.052-.09.105-.075.114M22.638 5.477c-.028.046.037-.038 0 0M22.674 5.527c-.022.002-.04.06 0 0" fill="#838383"/><path d="M22.674 5.545c.035-.041-.052.059 0 0M22.529 5.487c-.012.014-.061.077-.03.046.012-.013.062-.077.03-.046M22.629 5.576c-.012.015-.07.085-.037.056.012-.015.069-.085.037-.056M22.567 5.629c.031-.036.04-.058.037-.074-.008.022-.054.066-.037.074M22.572 5.561c-.028.046.037-.038 0 0M22.624 5.608c-.08.085.026-.028 0 0M22.531 5.561c-.028.046.037-.038 0 0M22.74 5.745c-.038.04.011.013 0 0M22.543 5.607c.009-.017-.006-.003 0 0M22.543 5.607c-.054.067-.005.035 0 0M22.488 5.63c-.03.043-.08.098-.08.128.047-.056.047-.058.08-.127M22.522 5.695c.014.008.027-.05 0 0M22.553 5.705c-.025.048.034-.04 0 0M22.561 5.712c.032-.043-.048.063 0 0M22.52 5.677c-.01.018-.03.04-.024.048l.026-.03-.001-.018zM22.344 5.703c.02-.025.04-.047.065-.087.005-.01.005-.016-.001-.018l-.121.18c-.03.036-.037.07-.003.015l.06-.09zM22.477 5.675c-.025.048.035-.04 0 0M22.478 5.693c.03-.037-.062.078 0 0M22.488 5.736c-.03.014-.043.075 0 0M22.308 5.813c.014-.022.077-.109.05-.082-.015.022-.079.11-.05.082M22.226 5.869c-.048.064.033-.043 0 0M22.24 5.896c-.025.048.035-.04 0 0M22.224 5.901c.024-.03-.074.092 0 0M22.261 5.931c.032-.043-.048.064 0 0M22.158 5.97c.01-.005.052-.055.045-.068-.018.033-.033.043-.049.065-.137.19-.037.084.004.003M22.224 5.92c-.027.044-.118.165-.1.16.03-.06.111-.142.1-.16M22.208 6.01c.032-.043-.048.064 0 0M22.15 6.05c-.048.064.033-.043 0 0M22.156 6.089c.033-.043-.048.064 0 0M22.202 6.125c-.035.044.011.012 0 0M22.091 6.09c-.025.049.035-.041 0 0M22.097 6.111c-.02.052.03-.032 0 0M22.056 6.114a2.51 2.51 0 0 0-.283.463c.107-.184.184-.306.283-.463M22.047 6.243c.03-.044-.046.065 0 0M22.017 6.272c-.022.05.032-.043 0 0M22.062 6.289c-.004-.003-.012.012-.018.02.004.003.012-.012.018-.02M21.967 6.284c-.036.03-.005.048 0 0M21.873 6.5l.004.002c.007-.013 0-.009-.004-.003M18.75 7.885c-.036-.037.027.045 0 0" fill="#838383"/><path d="M45.093 19.409c0-10.317 8.362-18.68 18.68-18.68 10.316 0 18.68 8.363 18.68 18.68s-8.364 18.68-18.68 18.68c-10.318 0-18.68-8.363-18.68-18.68" fill="#FFF"/><g transform="translate(44.363)"><mask id="d" fill="#fff"><use xlink:href="#c"/></mask><path d="M19.409 0C8.707 0 0 8.707 0 19.409c0 10.702 8.707 19.409 19.409 19.409 10.702 0 19.409-8.707 19.409-19.409C38.818 8.707 30.111 0 19.409 0m0 1.095c10.115 0 18.314 8.199 18.314 18.314s-8.199 18.314-18.314 18.314S1.095 29.524 1.095 19.409 9.294 1.095 19.409 1.095" fill="#838383" mask="url(#d)"/></g><path d="M63.85 10.502a1.198 1.198 0 1 1-.001-2.397 1.198 1.198 0 0 1 .001 2.397m0-3.2a2 2 0 1 0 0 4.001 2 2 0 0 0 0-4" fill="#838383"/><path d="M63.85 4.693a4.61 4.61 0 1 0 4.61 4.61.39.39 0 1 0-.782 0 3.828 3.828 0 1 1-3.828-3.829.39.39 0 0 0 0-.78" fill="#838383"/><path d="M63.85 5.988a3.315 3.315 0 1 0 0 6.63.4.4 0 1 0 0-.801 2.514 2.514 0 1 1 2.513-2.514h.001a.401.401 0 1 0 .802 0h-.001a3.315 3.315 0 0 0-3.315-3.315M48.282 21.368c-1.237 0-2.076-.834-2.076-1.957 0-1.128.84-1.962 2.076-1.962.44 0 .844.13 1.186.331l-.27.746a1.899 1.899 0 0 0-.906-.254c-.709 0-1.149.435-1.149 1.14 0 .703.44 1.138 1.15 1.138.31 0 .662-.103.947-.279l.264.745a2.318 2.318 0 0 1-1.222.352M52.217 18.236c-.6 0-1.004.492-1.004 1.175 0 .678.404 1.175 1.004 1.175s1.004-.497 1.004-1.175c0-.683-.404-1.175-1.004-1.175m-.015 3.132c-1.176 0-1.926-.844-1.926-1.957 0-1.118.786-1.962 1.962-1.962 1.17 0 1.926.844 1.926 1.962 0 1.113-.792 1.957-1.962 1.957M58.455 21.379l-2.288-2.055v1.982h-.88V17.46l.12-.02 2.256 2.039v-1.967h.88v3.85zM60.705 18.32v.837h1.305v.772h-1.305v1.377h-.88v-3.795h2.402v.808z" fill="#838383"/><mask id="f" fill="#fff"><use xlink:href="#e"/></mask><path fill="#838383" mask="url(#f)" d="M63.23 21.307h.88v-3.795h-.88zM66.799 19.034l-.378.91h.751l-.373-.91zm.937 2.272-.285-.688h-1.309l-.285.688h-.896l1.786-3.825h.119l1.786 3.825h-.916zM72.664 21.379l-2.288-2.055v1.982h-.88V17.46l.12-.02 2.256 2.039v-1.967h.88v3.85zM75.11 20.504h1.817v.802h-3.22l-.026-.093 1.879-2.893h-1.744v-.808h3.147l.026.098zM79.485 19.034l-.378.91h.75l-.372-.91zm.937 2.272-.285-.688h-1.31l-.284.688h-.896l1.786-3.825h.119l1.786 3.825h-.916zM52.294 25.515c.918 0 1.585.726 1.585 1.729 0 .997-.667 1.723-1.585 1.723-.918 0-1.585-.726-1.585-1.723 0-1.003.667-1.73 1.585-1.73m.012-.592c-1.26 0-2.247 1.02-2.247 2.322 0 1.316.956 2.31 2.223 2.31 1.26 0 2.247-1.015 2.247-2.31 0-1.302-.977-2.322-2.223-2.322M59.286 24.985v3.187l-2.57-3.268-.285.066v4.526h.616V26.27l2.592 3.304.27-.052v-4.536zM62.626 28.903v-3.918h-.622v4.51h2.68v-.592zM66.347 29.496h.622v-4.511h-.622zM71.92 24.985v3.187l-2.571-3.268-.283.066v4.526h.615V26.27l2.592 3.304.269-.052v-4.536zM77.317 25.572v-.587H74.64v4.511h2.678v-.593H75.26v-1.4h1.856v-.588H75.26v-1.343z"/></g></svg>