<?xml version="1.0" encoding="UTF-8"?>
<svg width="150px" height="56px" viewBox="0 0 100 36" version="1.1" xmlns="http://www.w3.org/2000/svg" xmlns:xlink="http://www.w3.org/1999/xlink">
    <title>Group 82</title>
    <defs>
        <polygon id="path-1" points="0.0399547661 0.0387859357 38.1814728 0.0387859357 38.1814728 17.8724748 0.0399547661 17.8724748"></polygon>
        <polygon id="path-3" points="1.47953216e-05 0.0717573099 3.34708643 0.0717573099 3.34708643 4.69364564 1.47953216e-05 4.69364564"></polygon>
        <polygon id="path-5" points="0.0194484503 0.0717573099 4.84989904 0.0717573099 4.84989904 4.69362345 0.0194484503 4.69362345"></polygon>
        <polygon id="path-7" points="0.0560816667 0.0717573099 4.50438172 0.0717573099 4.50438172 4.69365304 0.0560816667 4.69365304"></polygon>
        <polygon id="path-9" points="0.0688056433 0.0717573099 1.99989102 0.0717573099 1.99989102 4.69364564 0.0688056433 4.69364564"></polygon>
        <polygon id="path-11" points="0.0681028655 0.0717573099 5.4138745 0.0717573099 5.4138745 4.69363825 0.0681028655 4.69363825"></polygon>
        <polygon id="path-13" points="0.00474190058 0.0717573099 5.35006968 0.0717573099 5.35006968 4.69363825 0.00474190058 4.69363825"></polygon>
        <polygon id="path-15" points="0.0643374561 0.0638714035 5.32488804 0.0638714035 5.32488804 5.25233918 0.0643374561 5.25233918"></polygon>
        <polygon id="path-17" points="0.00268535088 0.0638714035 5.26308798 0.0638714035 5.26308798 5.25233918 0.00268535088 5.25233918"></polygon>
        <polygon id="path-19" points="0.0111408772 0.0638714035 5.27154351 0.0638714035 5.27154351 5.25233918 0.0111408772 5.25233918"></polygon>
        <polygon id="path-21" points="0.00980947033 0.0392741813 5.56600484 0.0392741813 5.56600484 5.32631579 0.00980947033 5.32631579"></polygon>
    </defs>
    <g id="Page-1" stroke="none" stroke-width="1" fill="none" fill-rule="evenodd">
        <g id="Icones" transform="translate(-311.000000, -310.000000)">
            <g id="Group-82" transform="translate(311.000000, 310.500000)">
                <polygon id="Fill-1" fill="#006DCC" points="0.0330675439 25.7568056 5.12162251 25.7568056 5.12162251 7.46076287 0.0330675439 7.46076287"></polygon>
                <polygon id="Fill-2" fill="#006DCC" points="13.8214418 7.46077766 18.9099968 7.46077766 18.9099968 25.7568204 13.8214418 25.7568204 13.8214418 19.2792806 5.75303506 19.2792806 5.75303506 7.46077766 10.84159 7.46077766 10.84159 14.1907996 13.8214418 14.1907996"></polygon>
                <polygon id="Fill-3" fill="#006DCC" points="35.5393243 25.7568056 40.6278792 25.7568056 40.6278792 21.1985889 35.5393243 21.1985889"></polygon>
                <g id="Group-81" transform="translate(0.000000, 0.002219)">
                    <path d="M50.6661573,20.6660165 C50.8512468,20.6660165 51.0111842,20.5819791 51.1459696,20.4134604 C51.280533,20.2452375 51.3479997,20.0431335 51.3479997,19.807444 C51.3479997,19.6138472 51.3016163,19.4411858 51.2091456,19.2897557 C51.1080935,19.1213849 50.9733082,19.0162642 50.8050854,18.9740235 L50.6282813,18.9740235 L47.0169652,18.9740235 L46.2089187,18.9740235 L46.2089187,19.807444 C46.2004114,19.9505887 46.2214947,20.0936595 46.2720207,20.2366563 C46.3729988,20.5229457 46.5791716,20.6660165 46.8906871,20.6660165 L50.6661573,20.6660165 Z M50.8050854,14.2390767 C50.9312894,14.247584 51.0617842,14.2560913 51.1964956,14.2643027 C51.3647184,14.2813174 51.5330892,14.3065434 51.7015339,14.3401288 C52.1391055,14.4158808 52.5558158,14.5295089 52.9515906,14.681013 C54.0457786,15.0850732 54.8791251,15.7248969 55.4516301,16.6002621 C56.0155538,17.4673419 56.2976266,18.5364519 56.2976266,19.807444 C56.2976266,21.5668296 55.8683403,22.9640258 55.0097678,23.9994764 C54.0416359,25.1696384 52.6148491,25.7545715 50.7293333,25.7545715 L46.827659,25.7545715 C44.9419213,25.7545715 43.5150605,25.1696384 42.5471506,23.9994764 C41.688578,22.9640258 41.2592178,21.5668296 41.2592178,19.807444 L41.2592178,19.5801139 L41.2592178,13.3930802 C41.2592178,11.6423498 41.688578,10.2490744 42.5471506,9.2136238 C43.5150605,8.04368374 44.9419213,7.45852877 46.827659,7.45852877 L54.9465918,7.45852877 L54.9465918,12.5345077 L46.8906871,12.5345077 C46.7222424,12.5345077 46.5833883,12.5808911 46.4741248,12.6733618 C46.3898655,12.7491139 46.3225468,12.8460232 46.2720207,12.963794 C46.2214947,13.1070127 46.2004114,13.2500095 46.2089187,13.3930802 L46.2089187,14.2264267 L50.5398792,14.2264267 L50.5651792,14.2264267 L50.6282813,14.2264267 C50.6870927,14.2264267 50.746052,14.2307913 50.8050854,14.2390767 L50.8050854,14.2390767 Z" id="Fill-4" fill="#006DCC"></path>
                    <g id="Group-8" transform="translate(60.660819, 7.323684)">
                        <mask id="mask-2" fill="white">
                            <use xlink:href="#path-1"></use>
                        </mask>
                        <g id="Clip-7"></g>
                        <path d="M34.6418475,4.13990114 L34.0887244,8.64352307 L33.353027,14.6337049 L30.3578621,14.6337049 L25.3489059,6.64689442 L24.5505504,13.147219 C24.4500162,13.9646605 23.6941232,14.6337049 22.8705416,14.6337049 C22.8129878,14.6337049 22.7595767,14.6232742 22.7044641,14.6168383 L22.7044641,14.6337049 L21.3730331,14.6337049 L21.5553855,13.1474409 L21.5553855,13.147219 L22.1086565,8.64352307 L22.8443539,2.65363711 L25.8393708,2.65363711 L30.8486229,10.6404476 L31.0072287,9.34718857 L31.4235691,5.95898594 L31.6472004,4.13990114 C31.7471428,3.32245962 32.5033317,2.65363711 33.3269872,2.65363711 C33.3356425,2.65363711 33.3437799,2.65615231 33.3527311,2.65615231 L33.353027,2.65363711 L34.8247176,2.65363711 L34.6418475,4.13990114 Z M21.164567,4.13990114 L20.611222,8.64352307 L19.8755986,14.6337049 L16.8805817,14.6337049 L11.8713296,6.64689442 L11.0727521,13.147219 C10.9728097,13.9646605 10.2165469,14.6337049 9.39266939,14.6337049 C9.33541149,14.6337049 9.28200038,14.6232742 9.22725769,14.6168383 L9.22725769,14.6337049 L7.89553079,14.6337049 L8.07810506,13.1474409 L8.07810506,13.147219 L8.63115418,8.64352307 L9.36692553,2.65363711 L12.3617945,2.65363711 L17.3710466,10.6404476 L17.5298004,9.34718857 L17.9460668,5.95898594 L18.1694021,4.13990114 C18.2697144,3.32245962 19.0258293,2.65363711 19.8494109,2.65363711 C19.8584361,2.65363711 19.8665735,2.65615231 19.8753027,2.65615231 L19.8755986,2.65363711 L21.3466235,2.65363711 L21.164567,4.13990114 Z M7.68713868,4.13990114 L6.58067056,13.147219 C6.48035827,13.9646605 5.72424336,14.6337049 4.90058781,14.6337049 C4.87676734,14.6337049 4.85561003,14.6277868 4.83201149,14.6266772 L4.83149365,14.6337049 L3.4031533,14.6337049 L3.58535769,13.1474409 L3.58535769,13.147219 L4.05229804,9.34718857 L4.46856442,5.95898594 L4.6918998,4.13990114 C4.79243401,3.32245962 5.54840096,2.65363711 6.37190857,2.65363711 C6.38063781,2.65363711 6.38877523,2.65615231 6.39780038,2.65615231 L6.39809629,2.65363711 L7.86971295,2.65363711 L7.68713868,4.13990114 Z M2.24756471,0.0387859357 L0.0399547661,17.8724748 L35.9757937,17.8724748 L38.1814802,0.0387859357 L2.24756471,0.0387859357 Z" id="Fill-6" fill="#161412" mask="url(#mask-2)"></path>
                    </g>
                    <g id="Group-11">
                        <mask id="mask-4" fill="white">
                            <use xlink:href="#path-3"></use>
                        </mask>
                        <g id="Clip-10"></g>
                        <polygon id="Fill-9" fill="#000000" mask="url(#mask-4)" points="1.62461509 4.69364564 0.422939064 4.69364564 0.993002807 1.08891348 1.47953216e-05 1.08891348 0.159286433 0.071735117 3.34708643 0.071735117 3.18774082 1.08891348 2.19467883 1.08891348"></polygon>
                    </g>
                    <path d="M4.96519898,2.14347222 L5.08171213,2.14347222 C5.47401009,2.14347222 5.92763465,2.06979152 6.00730746,1.5673424 C6.08698026,1.06452339 5.65776798,0.99084269 5.26547003,0.99084269 L5.1491788,0.99084269 L4.96519898,2.14347222 Z M7.20276944,4.69366784 L5.70681447,4.69366784 L4.85489985,2.91571404 L4.84247178,2.91571404 L4.56069488,4.69366784 L3.35901886,4.69366784 L4.08842822,0.0717573099 L5.88458026,0.0717573099 C6.79819137,0.0717573099 7.42329371,0.50644386 7.27016213,1.49373567 C7.16592909,2.13104415 6.72451067,2.68268772 6.05013991,2.79964474 L7.20276944,4.69366784 Z" id="Fill-12" fill="#000000"></path>
                    <g id="Group-16" transform="translate(7.397661, 0.000000)">
                        <mask id="mask-6" fill="white">
                            <use xlink:href="#path-5"></use>
                        </mask>
                        <g id="Clip-15"></g>
                        <path d="M2.96194202,1.49968339 L2.94951395,1.49968339 L2.22010459,2.97093018 L3.21930664,2.97093018 L2.96194202,1.49968339 Z M1.74184582,3.89053339 L1.29450927,4.69362345 L0.0194484503,4.69362345 L2.5265157,0.071712924 L3.83849085,0.071712924 L4.84989904,4.69362345 L3.56862418,4.69362345 L3.39707243,3.89053339 L1.74184582,3.89053339 Z" id="Fill-14" fill="#000000" mask="url(#mask-6)"></path>
                    </g>
                    <g id="Group-19" transform="translate(12.871930, 0.000000)">
                        <mask id="mask-8" fill="white">
                            <use xlink:href="#path-7"></use>
                        </mask>
                        <g id="Clip-18"></g>
                        <path d="M1.41702933,3.67595684 L1.68667406,3.67595684 C2.4038033,3.67595684 3.07824804,3.28365889 3.22531354,2.38247585 C3.35403284,1.55497351 2.88206208,1.08892088 2.10959833,1.08892088 L1.82774746,1.08892088 L1.41702933,3.67595684 Z M0.785417047,0.0717425146 L2.48969015,0.0717425146 C3.77703108,0.0717425146 4.67814015,1.08292877 4.47603605,2.38247585 C4.26742202,3.68194895 3.04140769,4.69365304 1.76028079,4.69365304 L0.0560816667,4.69365304 L0.785417047,0.0717425146 Z" id="Fill-17" fill="#000000" mask="url(#mask-8)"></path>
                    </g>
                    <polygon id="Fill-20" fill="#000000" points="19.615852 1.08894307 19.4931248 1.86118488 20.8479324 1.86118488 20.6885868 2.87888108 19.3337792 2.87888108 19.2051338 3.67597904 20.6333262 3.67597904 20.4739806 4.69367523 17.8441122 4.69367523 18.5735955 0.0717647076 21.2036119 0.0717647076 21.0440444 1.08894307"></polygon>
                    <g id="Group-24" transform="translate(21.453216, 0.000000)">
                        <mask id="mask-10" fill="white">
                            <use xlink:href="#path-9"></use>
                        </mask>
                        <g id="Clip-23"></g>
                        <polygon id="Fill-22" fill="#000000" mask="url(#mask-10)" points="1.27048167 4.69364564 0.0688056433 4.69364564 0.798288977 0.071735117 1.99989102 0.071735117"></polygon>
                    </g>
                    <g id="Group-27" transform="translate(23.746491, 0.000000)">
                        <mask id="mask-12" fill="white">
                            <use xlink:href="#path-11"></use>
                        </mask>
                        <g id="Clip-26"></g>
                        <polygon id="Fill-25" fill="#000000" mask="url(#mask-12)" points="0.797512222 0.0717277193 1.99896632 0.0717277193 3.75243386 2.89726427 3.76441807 2.89726427 4.21205053 0.0717277193 5.4138745 0.0717277193 4.68446515 4.69363825 3.48264117 4.69363825 1.72909965 1.86114789 1.71711544 1.86114789 1.26948298 4.69363825 0.0681028655 4.69363825"></polygon>
                    </g>
                    <g id="Group-30" transform="translate(29.516667, 0.000000)">
                        <mask id="mask-14" fill="white">
                            <use xlink:href="#path-13"></use>
                        </mask>
                        <g id="Clip-29"></g>
                        <polygon id="Fill-28" fill="#000000" mask="url(#mask-14)" points="0.734151257 0.0717277193 1.93604921 0.0717277193 3.68914687 2.89726427 3.70157494 2.89726427 4.14868956 0.0717277193 5.35006968 0.0717277193 4.6207343 4.69363825 3.4192802 4.69363825 1.66618254 1.86114789 1.65375447 1.86114789 1.20619599 4.69363825 0.00474190058 4.69363825"></polygon>
                    </g>
                    <polygon id="Fill-31" fill="#000000" points="0.335121433 33.494744 0.0196111988 33.494744 0.80213576 28.5369057 1.11771997 28.5369057"></polygon>
                    <g id="Group-35" transform="translate(1.849415, 28.407018)">
                        <mask id="mask-16" fill="white">
                            <use xlink:href="#path-15"></use>
                        </mask>
                        <g id="Clip-34"></g>
                        <polygon id="Fill-33" fill="#000000" mask="url(#mask-16)" points="4.51602781 5.25236877 1.05732547 0.826644211 0.37984769 5.08769684 0.0643374561 5.08769684 0.860029854 0.0638714035 4.32539009 4.45623251 5.00915588 0.129932515 5.32488804 0.129932515"></polygon>
                    </g>
                    <polygon id="Fill-36" fill="#000000" points="9.07617526 33.494744 8.7604431 33.494744 9.49702819 28.8324422 8.21464368 28.8324422 8.26080509 28.5369057 11.1409364 28.5369057 11.0949229 28.8324422 9.8126124 28.8324422"></polygon>
                    <polygon id="Fill-38" fill="#000000" points="12.4962914 28.8324126 12.2135528 30.6344088 14.2124747 30.6344088 14.1665353 30.9300194 12.1676133 30.9300194 11.8058677 33.198808 13.857461 33.198808 13.8114475 33.4947144 11.4441961 33.4947144 12.2267206 28.5369501 14.5938242 28.5369501 14.5478847 28.8324126"></polygon>
                    <path d="M16.4294057,30.8513822 C16.738406,30.8513822 17.0474803,30.8379925 17.3302189,30.621167 C17.5997896,30.4306033 17.7577297,30.1346968 17.8037432,29.8384205 C17.8627025,29.4705349 17.7510718,29.1020574 17.4223198,28.9444132 C17.1789367,28.8194667 16.8370908,28.8324126 16.5478423,28.8324126 L16.3438888,28.8324126 L16.0282306,30.8513822 L16.4294057,30.8513822 Z M17.7447838,33.4947144 L17.3828902,33.4947144 L16.1400092,31.1472887 L15.9822171,31.1472887 L15.6073777,33.4947144 L15.2917935,33.4947144 L16.074392,28.5369501 L16.6924665,28.5369501 C17.0934937,28.5369501 17.4881589,28.5432381 17.7840654,28.7864732 C18.0996496,29.0363661 18.1848706,29.4308834 18.1196233,29.8517363 C17.981361,30.7131199 17.3105411,31.1603085 16.4951709,31.1472887 L17.7447838,33.4947144 Z" id="Fill-40" fill="#000000"></path>
                    <g id="Group-44" transform="translate(19.011988, 28.407018)">
                        <mask id="mask-18" fill="white">
                            <use xlink:href="#path-17"></use>
                        </mask>
                        <g id="Clip-43"></g>
                        <polygon id="Fill-42" fill="#000000" mask="url(#mask-18)" points="4.45400582 5.25236877 0.99530348 0.826644211 0.317825702 5.08769684 0.00268535088 5.08769684 0.798007865 0.0638714035 4.26373798 4.45623251 4.94750377 0.129932515 5.26308798 0.129932515"></polygon>
                    </g>
                    <path d="M27.3339794,29.1743399 L25.9798376,31.568075 L27.9194303,31.568075 L27.3339794,29.1743399 Z M25.8152397,31.8639814 L24.8945268,33.4947218 L24.5722847,33.4947218 L27.4589259,28.3722855 L28.7218546,33.4947218 L28.3996125,33.4947218 L27.9917794,31.8639814 L25.8152397,31.8639814 Z" id="Fill-45" fill="#000000"></path>
                    <polygon id="Fill-47" fill="#000000" points="30.3799219 33.494744 30.0640418 33.494744 30.8004049 28.8324422 29.5182424 28.8324422 29.5642558 28.5369057 32.4445351 28.5369057 32.3985216 28.8324422 31.116359 28.8324422"></polygon>
                    <polygon id="Fill-49" fill="#000000" points="33.063305 33.494744 32.7477208 33.494744 33.5304673 28.5369057 33.8456816 28.5369057"></polygon>
                    <path d="M35.0562644,31.0156621 C34.8589688,32.2384954 35.7206483,33.2648469 36.9568714,33.2648469 C38.1864366,33.2648469 39.3700624,32.2322074 39.567284,31.0156621 C39.7578477,29.7928287 38.8965381,28.7668472 37.6669729,28.7668472 C36.4303799,28.7668472 35.2468282,29.7928287 35.0562644,31.0156621 M39.8827942,31.0156621 C39.6596068,32.4098252 38.2984372,33.5603094 36.9042741,33.5603094 C35.5101109,33.5603094 34.5171229,32.4098252 34.7406802,31.0156621 C34.9576536,29.6214989 36.3124612,28.4709407 37.7129863,28.4709407 C39.1070755,28.4709407 40.0996937,29.6214989 39.8827942,31.0156621" id="Fill-51" fill="#000000"></path>
                    <g id="Group-55" transform="translate(40.761111, 28.407018)">
                        <mask id="mask-20" fill="white">
                            <use xlink:href="#path-19"></use>
                        </mask>
                        <g id="Clip-54"></g>
                        <polygon id="Fill-53" fill="#000000" mask="url(#mask-20)" points="4.46246135 5.25236877 1.00375901 0.826644211 0.326355205 5.08769684 0.0111408772 5.08769684 0.806537368 0.0638714035 4.27226749 4.45623251 4.9559593 0.129932515 5.27154351 0.129932515"></polygon>
                    </g>
                    <path d="M49.0915578,29.1743399 L47.7370461,31.568075 L49.6770087,31.568075 L49.0915578,29.1743399 Z M47.5724481,31.8639814 L46.6521051,33.4947218 L46.329937,33.4947218 L49.2165043,28.3722855 L50.479063,33.4947218 L50.1568209,33.4947218 L49.7493578,31.8639814 L47.5724481,31.8639814 Z" id="Fill-56" fill="#000000"></path>
                    <polygon id="Fill-58" fill="#000000" points="51.9202235 33.1988375 53.1827823 33.1988375 53.136399 33.494744 51.55833 33.494744 52.3410765 28.5369057 52.6566607 28.5369057"></polygon>
                    <polygon id="Fill-60" fill="#000000" points="56.0834273 33.494744 54.7945329 33.494744 55.4060235 29.6281346 54.3406864 29.6281346 54.5116463 28.5369057 57.9310671 28.5369057 57.7601071 29.6281346 56.694918 29.6281346"></polygon>
                    <path d="M59.8520473,30.7594145 L59.9769937,30.7594145 C60.3978467,30.7594145 60.8843168,30.6801116 60.9699818,30.1409701 C61.0556467,29.6018285 60.5951423,29.5231914 60.1742894,29.5231914 L60.0493429,29.5231914 L59.8520473,30.7594145 Z M62.2521443,33.4947736 L60.6478136,33.4947736 L59.7337587,31.5877306 L59.7204429,31.5877306 L59.4178785,33.4947736 L58.1290581,33.4947736 L58.9117306,28.5369353 L60.8383774,28.5369353 C61.8179756,28.5369353 62.4890914,29.0037277 62.3244935,30.0623329 C62.2124929,30.7460247 61.7394125,31.3378376 61.0159212,31.4628581 L62.2521443,33.4947736 Z" id="Fill-62" fill="#000000"></path>
                    <polygon id="Fill-64" fill="#000000" points="64.4037762 33.494744 63.1149557 33.494744 63.8972583 28.5369057 65.1861528 28.5369057"></polygon>
                    <path d="M68.4680066,30.0686283 L68.4549868,30.0686283 L67.6726101,31.6467713 L68.7445312,31.6467713 L68.4680066,30.0686283 Z M67.1595084,32.6333973 L66.6796221,33.494707 L65.3117946,33.494707 L68.0011403,28.5369427 L69.4086932,28.5369427 L70.4936341,33.494707 L69.1194446,33.494707 L68.934873,32.6333973 L67.1595084,32.6333973 Z" id="Fill-66" fill="#000000"></path>
                    <polygon id="Fill-68" fill="#000000" points="72.9867272 33.494744 71.6978327 33.494744 72.3093234 29.6281346 71.2443561 29.6281346 71.4153161 28.5369057 74.8344409 28.5369057 74.6637769 29.6281346 73.5982178 29.6281346"></polygon>
                    <polygon id="Fill-70" fill="#000000" points="78.6623383 30.4502219 78.9649027 28.5369649 80.2537971 28.5369649 79.4710506 33.4947292 78.1825261 33.4947292 78.5047682 31.4628137 76.6437386 31.4628137 76.3214965 33.4947292 75.0326761 33.4947292 75.8150527 28.5369649 77.1039471 28.5369649 76.8013828 30.4502219"></polygon>
                    <polygon id="Fill-72" fill="#000000" points="82.2874067 32.4031599 83.8325561 32.4031599 83.6615961 33.4947588 80.8273304 33.4947588 81.6100029 28.5369205 82.8988973 28.5369205"></polygon>
                    <g id="Group-76" transform="translate(84.703216, 28.333041)">
                        <mask id="mask-22" fill="white">
                            <use xlink:href="#path-21"></use>
                        </mask>
                        <g id="Clip-75"></g>
                        <path d="M1.39218058,2.59694143 C1.25428819,3.45203705 1.78669784,4.0767695 2.55605456,4.0767695 C3.32548526,4.0767695 4.05519053,3.45203705 4.19345281,2.59694143 C4.2987955,1.91324962 3.76601596,1.28851716 2.99658526,1.28851716 C2.22722854,1.28851716 1.49715339,1.91324962 1.39218058,2.59694143 M5.5350186,2.59065342 C5.27839374,4.1950581 3.94992181,5.32638237 2.35883292,5.32638237 C0.767448129,5.32638237 -0.205936082,4.1950581 0.0506887719,2.59065342 C0.287561871,1.09122155 1.76702006,0.0392741813 3.1938069,0.0392741813 C4.62096363,0.0392741813 5.77159579,1.09122155 5.5350186,2.59065342" id="Fill-74" fill="#000000" mask="url(#mask-22)"></path>
                    </g>
                    <polygon id="Fill-77" fill="#000000" points="91.7257122 28.5369427 93.0146067 28.5369427 94.89524 31.5681342 94.9085558 31.5681342 95.388442 28.5369427 96.6772625 28.5369427 95.8948859 33.494781 94.6060654 33.494781 92.7254321 30.4568576 92.7120423 30.4568576 92.2319342 33.494781 90.9430397 33.494781"></polygon>
                    <path d="M31.9112155,16.5023023 L24.528498,24.5590947 L26.8474427,18.5153537 L21.9601041,18.5153537 C21.9197868,18.5119508 21.8808012,18.4993008 21.8461801,18.4783654 C21.7217515,18.4032052 21.6818781,18.2414184 21.7570383,18.1169897 L26.0922895,10.3021008 C26.1320149,10.2263488 26.2099123,10.178264 26.2953553,10.1767105 L30.5740143,10.1767105 C30.6239485,10.181223 30.6715155,10.1997912 30.7112409,10.2302695 C30.8273102,10.3191894 30.8492813,10.4854149 30.7602874,10.6014842 L26.8214029,16.0549657 L31.7432146,16.0549657 C31.802174,16.060588 31.8575085,16.08574 31.9005629,16.1263532 C32.0073111,16.2272573 32.0120456,16.395554 31.9112155,16.5023023 M33.6200751,9.21368298 C32.6520173,8.04374292 31.2251564,7.45858795 29.3396406,7.45858795 L25.1097322,7.45858795 C23.2239944,7.45858795 21.7972076,8.04374292 20.8292977,9.21368298 C19.9706512,10.2490596 19.5413649,11.642335 19.5413649,13.3930654 L19.5413649,19.8074292 C19.5413649,21.5668149 19.9706512,22.964085 20.8292977,23.9994616 C21.7972076,25.1696236 23.2239944,25.7545567 25.1097322,25.7545567 L29.3396406,25.7545567 C31.2251564,25.7545567 32.6520173,25.1696236 33.6200751,23.9994616 C34.4787216,22.964085 34.9080079,21.5668149 34.9080079,19.8074292 L34.9080079,13.3930654 C34.9080079,11.642335 34.4787216,10.2490596 33.6200751,9.21368298" id="Fill-79" fill="#006DCC"></path>
                </g>
            </g>
        </g>
    </g>
</svg>