<svg width="99" height="18" xmlns="http://www.w3.org/2000/svg" xmlns:xlink="http://www.w3.org/1999/xlink"><defs><path id="a" d="M.013.182h12.602V13.01H.013z"/><path id="c" d="M.074.025h91.684v12.494H.074z"/></defs><g fill="none" fill-rule="evenodd"><g transform="translate(0 .5)"><mask id="b" fill="#fff"><use xlink:href="#a"/></mask><path d="M7.676 4.261c1.664-1.18 3.436-1.61 4.939-1.395V.182H0V13.01h4.294c-.053-.107-.107-.161-.16-.268-1.182-2.523.429-6.335 3.542-8.482" fill="#848484" mask="url(#b)"/></g><path d="M31.778 4.17c-.322-1.448-1.557-1.878-2.899-1.878-3.006 0-4.08 2.63-4.026 4.939.108 3.167 1.074 4.884 4.563 4.938.859 0 1.664-.107 2.415-.375V8.358h-2.79v-1.45h4.454v6.12c-1.288.376-2.683.698-4.08.698-1.717 0-3.112-.215-4.454-1.395-1.342-1.182-1.825-3.275-1.825-4.993 0-1.288.429-2.684 1.02-3.811C25.229 1.648 27 .897 29.094.897s4.348.966 4.455 3.328l-1.771-.054M41.333 8.358c.054-1.45-.59-2.523-2.148-2.523-1.341 0-2.147 1.127-2.147 2.523h4.295zm-4.295 1.127c-.107 1.503.483 3.06 2.147 3.06 1.235 0 1.88-.483 2.04-1.718h1.718c-.268 1.933-1.718 2.899-3.758 2.899-2.737 0-3.81-1.932-3.81-4.456 0-2.522 1.234-4.616 3.972-4.616 2.522.054 3.757 1.664 3.757 4.026v.805h-6.066zM48.419 12.545c1.932 0 2.522-1.557 2.522-3.382 0-1.825-.644-3.328-2.522-3.328-1.933 0-2.524 1.557-2.524 3.328 0 1.825.59 3.382 2.524 3.382m4.24-3.382c0 2.684-1.449 4.563-4.24 4.563-2.792 0-4.242-1.879-4.242-4.563 0-2.684 1.45-4.509 4.242-4.509 2.791-.054 4.24 1.825 4.24 4.51" fill="#848484"/><path fill="#848484" d="M54.43 3.527h-3.757V1.11h11.004v2.416h-3.865v9.93H54.43v-9.93"/><path d="M63.449 6.48c.375-1.397 1.45-1.88 2.898-1.88v2.738h-.698c-1.664 0-2.255 1.02-2.2 2.684v3.435h-3.221V7.07c0-.752 0-1.289-.107-2.201h3.273l.055 1.61M73.594 12.491c-.752.859-1.557 1.181-2.685 1.181-1.824 0-3.166-1.18-3.166-3.113v-5.69h3.22v5.046c.054.858.215 1.717 1.235 1.717 1.61 0 1.396-1.771 1.396-1.879V4.815h3.22v6.388c0 .752 0 1.288.108 2.2h-3.275l-.053-.912M83.524 7.5c0-.27-.053-.538-.214-.699-.161-.214-.43-.322-.86-.322-.482 0-.75.269-.75.752 0 .644 1.287.59 3.328 1.234 1.019.322 1.717.967 1.717 2.362 0 2.255-2.093 2.845-4.08 2.845-2.093 0-4.133-.43-4.079-3.06h3.06c-.054.269.053.537.214.752.161.215.43.376.752.376.643 0 1.073-.215 1.073-.806 0-1.502-5.045-.59-5.045-3.703 0-2.094 2.254-2.684 3.918-2.684 2.04 0 3.865.536 4.026 2.898h-3.06V7.5M89.214 4.869V3.58l3.221-1.234v2.523h1.879v2.04h-1.879v3.381c0 .215-.107 1.342.59 1.342.43 0 .86 0 1.235-.053v1.932c-.752.161-1.235.161-1.718.161-2.2 0-3.489-.322-3.328-2.952V6.908H87.55v-2.04h1.664" fill="#848484"/><g transform="translate(6.475 4.468)"><mask id="d" fill="#fff"><use xlink:href="#c"/></mask><path d="M90.737 1.045c0-.108 0-.108-.053-.162 0-.053-.053-.053-.108-.053h-.214v.375h.161c.053 0 .053 0 .108-.053.106-.054.106-.054.106-.107zm0 .858V1.69c0-.108 0-.161-.053-.215-.053-.054-.053-.107-.16-.107h-.055v.536h-.322V.615h.484c.106 0 .214 0 .268.054.053.053.107.107.107.214v.108c0 .054 0 .107-.054.16-.053.054-.053.054-.16.108.107.054.16.108.16.161.054.054.054.161.054.215v.215h-.269v.053zm.752-.644a.891.891 0 00-.268-.644c-.161-.214-.376-.268-.645-.268a.89.89 0 00-.643.268.889.889 0 00-.27.644c0 .269.108.484.27.644.16.215.375.269.643.269.269 0 .43-.108.645-.269a.89.89 0 00.268-.644zm.269 0c0 .322-.108.59-.376.805-.215.215-.483.376-.806.376-.321 0-.59-.107-.805-.376a1.094 1.094 0 01-.322-.805c0-.322.108-.59.322-.858.215-.215.484-.376.805-.376.323 0 .591.107.806.376.268.268.376.536.376.858z" fill="#212525" mask="url(#d)"/><path d="M6.086.4C2.758.4.074 3.139.074 6.467c0 .376.054.752.107 1.128.162.643.484.858.806.966.16.053.322.107.375.107.645.054 1.289-.107 1.933-.483.859-.537 1.503-1.395 1.825-2.416a26.067 26.067 0 00-3.06.484v-1.88l6.764-.482-.054 6.441-2.04.16c0-.053 0-.106.054-.214.053-.536.161-1.073.215-1.664 0-.322.053-.644.053-.966-.268.322-.536.644-.912.966-.322.269-.644.537-1.02.752-.215.107-.43.268-.644.376-.483.214-.913.375-1.396.536-.375.108-1.073.161-1.61.161 1.127 1.288 2.737 2.094 4.562 2.094 3.329 0 6.013-2.738 6.013-6.066C12.152 3.084 9.468.401 6.086.401" fill="#848484" mask="url(#d)"/></g></g></svg>