<svg width="72" height="16" xmlns="http://www.w3.org/2000/svg" xmlns:xlink="http://www.w3.org/1999/xlink"><defs><path id="a" d="M0 10.392h9.474V.038H0v10.354z"/><path id="c" d="M.082 12.99h7.537V.145H.082V12.99z"/><path id="e" d="M.13 12.99h7.535V.145H.131V12.99z"/><path id="g" d="M21.828 10.224V.156H.111v10.068z"/></defs><g fill="none" fill-rule="evenodd"><g transform="translate(.5 4.59)"><mask id="b" fill="#fff"><use xlink:href="#a"/></mask><path d="M3.253 5.215c-.236 1.961.06 2.667 1.148 2.667 1.089 0 1.583-.706 1.82-2.667.237-1.96-.06-2.667-1.147-2.667-1.088 0-1.583.706-1.82 2.667m-3.166 0C.465 2.155 1.732.038 5.39.038c3.658 0 4.37 2.117 3.995 5.177-.375 3.059-1.621 5.177-5.28 5.177-3.66 0-4.393-2.118-4.017-5.177" fill="#F4AD3B" mask="url(#b)"/></g><path d="M17.085 14.707l-.317-.705c-1.187.666-2.472.98-3.56.98-2.69 0-3.283-1.412-3.065-3.294l.85-6.785h3.164l-.79 6.314c-.08.726.117 1.216.969 1.216.77 0 1.503-.314 1.82-.51l.87-7.02h3.164l-1.206 9.804h-1.899z" fill="#F4AD3B"/><g transform="translate(19.99 1.992)"><mask id="d" fill="#fff"><use xlink:href="#c"/></mask><path d="M6.214 12.793c-.455.119-1.206.197-1.642.197-2.77 0-3.678-1.157-3.381-3.47l.493-4.002H.082L.339 3.44l1.642-.431.257-2.02L5.502.144l-.336 2.766H7.62l-.317 2.607H4.848l-.474 3.746c-.099.765.158 1.196 1.168 1.196.414 0 .811-.078.969-.117l-.297 2.45z" fill="#F4AD3B" mask="url(#d)"/></g><path d="M30.93 14.785s-.415.08-.91.08c-1.7 0-2.947-.863-2.71-2.765L28.814 0h3.146l-1.444 11.668c-.06.373.098.588.732.588l-.317 2.53zM36.528 8.922c.89 0 1.285-.49 1.345-.98.06-.49-.218-.96-1.108-.96-1.068 0-1.641.705-1.78 1.94h1.543zm-1.781 1.922c-.237 1.275.377 1.648 1.92 1.648 1.484 0 2.63-.294 3.381-.648l-.296 2.452c-1.207.47-2.611.686-3.798.686-3.263 0-4.647-1.647-4.213-5.177.435-3.53 2.216-5.177 5.281-5.177 3.045 0 4.214 1.098 3.956 3.098-.237 2.001-1.681 3.118-4.728 3.118h-1.503z" fill="#F4AD3B"/><g transform="translate(41.013 1.992)"><mask id="f" fill="#fff"><use xlink:href="#e"/></mask><path d="M6.261 12.793c-.454.119-1.207.197-1.641.197-2.77 0-3.68-1.157-3.383-3.47l.495-4.002H.131L.387 3.44l1.641-.431.258-2.02L5.55.144l-.336 2.766h2.451L7.35 5.518H4.897l-.475 3.746c-.099.765.16 1.196 1.167 1.196.415 0 .81-.078.97-.117l-.298 2.45z" fill="#F4AD3B" mask="url(#f)"/></g><g transform="translate(49.305 4.753)"><mask id="h" fill="#fff"><use xlink:href="#g"/></mask><path fill="#161412" mask="url(#h)" d="M.111 10.224h20.461L21.828.156H1.368z"/></g><path d="M60.71 6.385v.001l-.015-.001c-.469 0-.9.378-.956.839l-.128 1.027-.237 1.913-.09.73-2.852-4.509h-1.705l-.42 3.381-.314 2.543-.104.84h.758v-.01c.031.003.062.01.094.01.47 0 .9-.379.957-.84l.455-3.67 2.852 4.51h1.705l.419-3.383.315-2.542.104-.839h-.838zM53.036 6.385v.001l-.015-.001c-.468 0-.899.378-.956.839l-.127 1.027-.237 1.913-.266 2.145-.104.84h.813v-.005c.014 0 .026.004.04.004.469 0 .9-.378.956-.84l.63-5.084.104-.839h-.838zM69.118 7.224l.104-.84h-.838v.003l-.015-.002c-.47 0-.9.378-.956.84l-.128 1.026-.237 1.913-.09.73-2.852-4.51H62.4l-.418 3.382-.315 2.543-.104.839h.758v-.01c.031.004.062.01.094.01.47 0 .9-.378.957-.84l.454-3.669 2.852 4.509h1.706l.419-3.382.315-2.542z" fill="#FFF"/></g></svg>