<svg width="66" height="17" xmlns="http://www.w3.org/2000/svg" xmlns:xlink="http://www.w3.org/1999/xlink"><defs><path id="a" d="M.081.035h5.304v14.937H.08z"/><path id="c" d="M.024.023h21.322v9.97H.024z"/></defs><g fill="none" fill-rule="evenodd"><path d="M5.132 12.573c.039.04.467.292.992.292 1.011 0 1.342-.642 1.536-2.295.214-1.634.04-2.275-.972-2.275-.525 0-1.011.252-1.07.291l-.486 3.987zM.97 15.433 2.759.845h3.812L5.95 5.922a5.082 5.082 0 0 1 2.256-.525c2.528 0 3.656 1.439 3.19 5.173-.448 3.734-1.926 5.174-4.454 5.174-1.303 0-2.217-.409-2.957-.953l-.486.641H.97zM19.118 8.684a4.932 4.932 0 0 0-.934-.078c-.836 0-1.673.272-2.003.486l-.778 6.34H11.59l1.186-9.724h2.529l.272.622c.642-.505 1.77-.933 2.937-.933.486 0 .836.058 1.03.155l-.427 3.132z" fill="#016855"/><g transform="translate(19.18 .655)"><mask id="b" fill="#fff"><use xlink:href="#a"/></mask><path d="M3.245.035c1.187 0 2.14.953 2.14 2.14 0 1.186-.953 2.139-2.14 2.139a2.133 2.133 0 0 1-2.139-2.14c0-1.186.953-2.14 2.14-2.14zm1.109 14.781s-.7.156-1.44.156c-1.827 0-3.053-.817-2.8-2.781l.875-7.138h3.812l-.778 6.243c-.039.389.156.583.7.583l-.369 2.937z" fill="#016855" mask="url(#b)"/></g><path d="M30.148 5.397c1.128 0 1.965.155 2.529.389l-.409 3.073c-.427-.175-.992-.33-1.789-.33-1.245 0-1.964.524-2.159 2.041-.175 1.517.409 2.042 1.653 2.042.798 0 1.4-.155 1.868-.33l-.331 3.073c-.622.233-1.498.389-2.626.389-3.578 0-4.706-1.828-4.298-5.174.408-3.345 1.984-5.173 5.562-5.173M38.515 10.57c.214-1.79.02-2.295-.836-2.295s-1.206.506-1.42 2.295c-.214 1.79 0 2.295.856 2.295.855 0 1.186-.505 1.4-2.295m-5.951 0c.408-3.365 1.789-5.173 5.465-5.173s4.59 1.808 4.181 5.173c-.408 3.365-1.77 5.174-5.446 5.174-3.675 0-4.61-1.809-4.2-5.174" fill="#016855"/><g transform="translate(43.287 5.511)"><mask id="d" fill="#fff"><use xlink:href="#c"/></mask><path fill="#161412" mask="url(#d)" d="M.024 9.993h20.09l1.232-9.97H1.258z"/></g><path d="M54.4 6.997v.001l-.015-.001a.973.973 0 0 0-.94.83l-.124 1.017-.233 1.894-.088.723-2.801-4.464h-1.674l-.412 3.348-.309 2.518-.102.83h.745v-.009c.03.004.06.01.092.01.46 0 .884-.374.94-.831l.446-3.634 2.8 4.465H54.4l.41-3.349.31-2.518.102-.83H54.4zM46.865 6.997v.001l-.015-.001a.973.973 0 0 0-.939.83l-.125 1.017-.232 1.894-.261 2.125-.102.83h.798v-.003c.014 0 .026.004.04.004.46 0 .882-.374.938-.831l.619-5.036.102-.83h-.823zM62.654 7.827l.103-.83h-.823v.001l-.015-.001a.973.973 0 0 0-.939.83l-.125 1.017-.232 1.894-.09.723-2.8-4.464H56.06l-.41 3.348-.31 2.518-.102.83h.744v-.009c.03.004.06.01.093.01.46 0 .883-.374.94-.831l.445-3.634 2.8 4.465h1.675l.411-3.349.31-2.518z" fill="#FFF"/></g></svg>