<svg width="60" height="17" xmlns="http://www.w3.org/2000/svg" xmlns:xlink="http://www.w3.org/1999/xlink"><defs><path id="a" d="M10.441.059H.073V14.52H10.44V.06z"/><path id="c" d="M21.492 10.029V.03H.003v9.999z"/></defs><g fill="none" fill-rule="evenodd"><path d="M7.102 15.471c-.501.173-1.388.27-2.102.27-2.757 0-3.663-1.196-3.393-3.432l.463-3.645H.546l.29-2.352 1.561-.424.25-1.928 3.896-1.003-.347 2.834h2.198l-.347 2.873H5.849l-.405 3.22c-.077.617.173.907.848.907a4.91 4.91 0 001.1-.135l-.29 2.815zM13.408 9.764c.674 0 1.099-.251 1.176-.868.077-.617-.29-.868-.964-.868-.849 0-1.581.579-1.697 1.736h1.485zm-1.736 1.927c-.154.926.347 1.312 1.967 1.312 1.234 0 2.526-.27 3.47-.579l-.27 2.642c-1.233.482-2.872.675-4.048.675-3.567 0-4.782-1.64-4.358-5.13.424-3.49 2.179-5.128 5.495-5.128 3.143 0 4.261 1.08 4.01 3.104-.25 2.025-1.638 3.104-4.78 3.104h-1.486zM23.917 5.483c1.118 0 1.947.155 2.506.386l-.405 3.046c-.424-.173-.983-.328-1.774-.328-1.234 0-1.947.521-2.14 2.025-.173 1.504.405 2.024 1.64 2.024.79 0 1.388-.154 1.85-.327l-.328 3.046c-.617.232-1.484.386-2.603.386-3.548 0-4.666-1.813-4.26-5.13.404-3.315 1.966-5.128 5.514-5.128" fill="#404040"/><g transform="translate(26.293 .912)"><mask id="b" fill="#fff"><use xlink:href="#a"/></mask><path d="M5.626.059l-.617 5.013a5.935 5.935 0 012.352-.501c2.815 0 3.258 1.485 3.027 3.374l-.79 6.575h-3.78l.752-6.228c.058-.482-.115-.771-.636-.771-.54 0-1.002.193-1.272.347l-.81 6.652H.072L1.848.06h3.779z" fill="#404040" mask="url(#b)"/></g><g transform="translate(37.72 5.472)"><mask id="d" fill="#fff"><use xlink:href="#c"/></mask><path fill="#161412" mask="url(#d)" d="M.003 10.029H20.25L21.493.03H1.247z"/></g><path d="M48.898 6.927v.001l-.015-.001a.98.98 0 00-.946.837L47.81 8.79l-.234 1.91-.09.728-2.822-4.5h-1.687l-.415 3.375-.312 2.537-.102.838h.75v-.01c.03.004.06.01.093.01.464 0 .89-.377.947-.838l.45-3.662 2.822 4.5h1.687l.415-3.375.311-2.538.103-.837h-.829zM41.305 6.927v.001l-.015-.001a.981.981 0 00-.946.837l-.126 1.025-.235 1.91-.263 2.14-.103.838h.805v-.004c.014 0 .026.004.04.004.463 0 .89-.377.946-.838l.623-5.075.103-.837h-.83zM57.218 7.764l.103-.837h-.83v.001l-.014-.001a.98.98 0 00-.947.837l-.126 1.025-.234 1.91-.09.728-2.822-4.5h-1.687l-.415 3.375-.311 2.537-.103.838h.75v-.01c.03.004.061.01.094.01.464 0 .89-.377.946-.838l.45-3.662 2.822 4.5h1.687l.415-3.375.312-2.538z" fill="#FFF"/></g></svg>