<svg width="135" height="36" xmlns="http://www.w3.org/2000/svg"><g fill="none" fill-rule="evenodd"><path stroke="#979797" d="M36.202 8.567v20.525"/><text transform="translate(43 9)" fill="gray" font-family="Helvetica" font-size="13"><tspan x=".558" y="13.759">Google Play</tspan></text><rect x=".55" y=".2" width="133.55" height="34" rx="17" stroke="gray" transform="translate(0 1)"/><g fill="gray"><path d="M13.005 18.002c0-2.754 0-5.507-.002-8.26 0-.339.066-.647.305-.902.094-.1.16-.126.275-.01 1.852 1.891 3.71 3.777 5.566 5.664 1.203 1.221 2.405 2.444 3.612 3.66.117.119.127.18.003.304a3591.798 3591.798 0 00-8.846 8.822c-.18.18-.306.161-.479.028-.314-.242-.436-.567-.436-.954.001-1.631-.002-3.262-.003-4.893v-3.459h.005zM14.063 8.525c.226-.002.384.064.537.15 3.772 2.112 7.542 4.227 11.316 6.335.173.097.17.152.036.283-.844.83-1.68 1.667-2.517 2.504-.09.09-.145.142-.266.019-3-3.06-6.005-6.115-9.009-9.172-.025-.026-.045-.056-.097-.119M14.907 27.21c2.738-2.767 5.477-5.532 8.208-8.305.17-.172.249-.149.4.01.694.721 1.398 1.434 2.105 2.143.124.125.134.176-.034.268-3.514 1.924-7.025 3.853-10.537 5.78-.058.033-.112.085-.142.104M30.545 18.079a.861.861 0 01-.38.691c-.164.121-.345.22-.524.32-1.062.587-2.127 1.169-3.187 1.76-.144.08-.229.076-.347-.046-.755-.78-1.516-1.553-2.281-2.321-.112-.112-.115-.174-.001-.286.892-.879 1.78-1.763 2.662-2.65.105-.105.179-.117.309-.043 1.05.595 2.104 1.181 3.156 1.77.325.183.58.42.593.805"/></g></g></svg>