<svg width="30" height="30" xmlns="http://www.w3.org/2000/svg"><g stroke="#C32192" fill="none" fill-rule="evenodd"><path d="M28.674 14.629c0 7.527-6.195 13.628-13.837 13.628C7.195 28.257 1 22.156 1 14.63S7.195 1 14.837 1c7.642 0 13.837 6.102 13.837 13.629z" stroke-width="2"/><g fill="#C32192" fill-rule="nonzero"><path d="M22.952 10.846c-.039-.876-.18-1.478-.383-2a4.022 4.022 0 00-.953-1.461 4.056 4.056 0 00-1.459-.95c-.525-.203-1.124-.345-2-.383-.882-.042-1.162-.052-3.4-.052-2.237 0-2.518.01-3.397.048-.875.039-1.478.18-2 .383-.553.21-1.049.532-1.461.954a4.058 4.058 0 00-.95 1.458c-.203.525-.344 1.124-.383 2-.042.882-.052 1.162-.052 3.4s.01 2.518.049 3.397c.038.876.18 1.478.383 2 .21.553.534 1.049.953 1.461.412.419.911.744 1.459.95.524.203 1.123.345 2 .383.878.039 1.158.048 3.396.048s2.518-.01 3.397-.048c.876-.038 1.478-.18 2-.383a4.216 4.216 0 002.411-2.412c.203-.524.345-1.123.383-2 .04-.878.049-1.158.049-3.396s-.003-2.518-.042-3.397zm-1.484 6.73c-.036.804-.171 1.24-.284 1.529a2.734 2.734 0 01-1.565 1.565c-.29.112-.727.248-1.53.283-.868.039-1.13.048-3.328.048-2.2 0-2.464-.01-3.33-.048-.805-.035-1.24-.17-1.53-.283a2.536 2.536 0 01-.946-.615 2.563 2.563 0 01-.615-.947c-.113-.29-.248-.728-.283-1.53-.039-.869-.048-1.13-.048-3.329 0-2.199.01-2.463.048-3.329.035-.805.17-1.24.283-1.53.132-.357.341-.682.618-.946.268-.274.59-.483.947-.615.29-.113.728-.248 1.53-.283.869-.04 1.13-.049 3.329-.049 2.202 0 2.463.01 3.33.049.804.035 1.239.17 1.529.283.357.132.682.341.946.615.274.267.483.59.615.947.113.29.248.727.284 1.529.038.87.048 1.13.048 3.33 0 2.198-.01 2.456-.048 3.325z" stroke-width=".5"/><path d="M14.757 10.009a4.235 4.235 0 000 8.468 4.235 4.235 0 000-8.468zm0 6.98a2.747 2.747 0 11.001-5.494 2.747 2.747 0 010 5.494h0z" stroke-width=".5"/><path d="M20.147 9.841a.989.989 0 11-1.977 0 .989.989 0 011.977 0h0z"/></g></g></svg>