<svg width="58" height="13" xmlns="http://www.w3.org/2000/svg" xmlns:xlink="http://www.w3.org/1999/xlink"><defs><path id="a" d="M0 0h56.744v12.694H0z"/></defs><g transform="translate(.5)" fill="none" fill-rule="evenodd"><mask id="b" fill="#fff"><use xlink:href="#a"/></mask><path d="M55.13 9.369a1.626 1.626 0 1 0 1.613 1.639v-.013c0-.894-.72-1.62-1.612-1.626zm-5.303-5.504v.546a4.531 4.531 0 1 0 0 7.503v.547H52.4V3.825l-2.573.04zm-2.345 6.517A2.28 2.28 0 0 1 45.15 8.17a2.332 2.332 0 1 1 4.664 0 2.28 2.28 0 0 1-2.332 2.212zM29.238 4.945v-1.12h-2.665v8.596h2.665V8.423c0-1.333 1.466-2.08 2.493-2.08V3.826a3.201 3.201 0 0 0-2.493 1.12zm-6.556-1.08v.546a4.544 4.544 0 0 0-5.118 7.503 4.584 4.584 0 0 0 5.118 0v.547h2.572V3.825l-2.572.04zm-2.346 6.517a2.28 2.28 0 0 1-2.332-2.212 2.332 2.332 0 1 1 4.664 0 2.279 2.279 0 0 1-2.332 2.212zm17.83-6.784a3.164 3.164 0 0 0-2.665 1.187v-.96h-2.505v8.596h2.585V7.903a1.814 1.814 0 0 1 1.933-1.946A1.68 1.68 0 0 1 39.26 7.89v4.53h2.57V6.958a3.398 3.398 0 0 0-3.663-3.36zM11.835 12.42h2.705V0h-2.705v12.42zM0 12.433h2.865V0H0v12.433zM9.995 0h-2.8a7.114 7.114 0 0 1-2.891 5.757l-1.106.827 4.29 5.837h3.52L7.01 7.09A9.945 9.945 0 0 0 9.995 0z" fill="#838383" mask="url(#b)"/></g></svg>