<svg width="35" height="28" xmlns="http://www.w3.org/2000/svg" xmlns:xlink="http://www.w3.org/1999/xlink"><defs><path id="a" d="M.01 4.249h31.91V.109H.01v4.14z"/></defs><g fill="none" fill-rule="evenodd"><g transform="translate(1.522 22.866)"><mask id="b" fill="#fff"><use xlink:href="#a"/></mask><path d="M5.834 2.725c0-.51.335-.928.882-.928.524 0 .877.4.877.928s-.353.93-.877.93c-.547 0-.882-.42-.882-.93zm2.355 0v-1.45h-.633v.352c-.2-.26-.505-.425-.919-.425-.815 0-1.454.638-1.454 1.523 0 .887.639 1.524 1.454 1.524.414 0 .718-.164.92-.425v.352h.632v-1.45zm21.375 0c0-.51.334-.928.882-.928.523 0 .877.4.877.928s-.354.93-.877.93c-.548 0-.882-.42-.882-.93zm2.355 0V.11h-.633v1.517c-.2-.26-.505-.425-.919-.425-.815 0-1.454.638-1.454 1.523 0 .887.639 1.524 1.454 1.524.414 0 .718-.164.919-.425v.352h.633v-1.45zM16.04 1.767c.408 0 .67.255.737.703h-1.51c.067-.418.323-.703.773-.703zm.012-.565c-.852 0-1.448.62-1.448 1.523 0 .923.62 1.524 1.491 1.524.438 0 .84-.11 1.193-.407l-.31-.467a1.389 1.389 0 01-.846.303c-.408 0-.78-.188-.87-.71h2.16c.006-.079.012-.158.012-.243-.006-.904-.566-1.523-1.382-1.523zm7.638 1.523c0-.51.335-.928.883-.928.524 0 .877.4.877.928s-.353.93-.877.93c-.548 0-.883-.42-.883-.93zm2.356 0v-1.45h-.633v.352c-.2-.26-.505-.425-.92-.425-.815 0-1.454.638-1.454 1.523 0 .887.64 1.524 1.455 1.524.414 0 .718-.164.919-.425v.352h.633v-1.45zm-5.928 0c0 .88.615 1.524 1.552 1.524.438 0 .73-.097 1.047-.346l-.305-.51a1.28 1.28 0 01-.76.261c-.505-.006-.877-.37-.877-.929 0-.558.372-.922.877-.928.274 0 .523.09.76.261l.305-.51c-.317-.249-.609-.346-1.047-.346-.937 0-1.552.644-1.552 1.523zm8.156-1.523c-.366 0-.603.17-.767.425v-.352h-.627v2.901h.633V2.55c0-.48.207-.747.62-.747.128 0 .262.018.396.073l.195-.595a1.36 1.36 0 00-.45-.079zm-16.956.303c-.305-.2-.725-.303-1.187-.303-.737 0-1.211.352-1.211.929 0 .473.353.765 1.004.855l.298.043c.347.048.511.14.511.303 0 .225-.231.352-.663.352-.438 0-.755-.14-.968-.303l-.298.492c.347.254.785.376 1.26.376.84 0 1.326-.395 1.326-.947 0-.51-.383-.777-1.016-.868l-.298-.042c-.274-.037-.493-.091-.493-.285 0-.213.207-.34.554-.34.37 0 .73.14.907.249l.274-.51zm8.16-.303c-.364 0-.601.17-.766.425v-.352h-.627v2.901h.633V2.55c0-.48.207-.747.621-.747.128 0 .262.018.395.073l.195-.595a1.364 1.364 0 00-.45-.079zm-5.397.073h-1.035v-.88h-.639v.88h-.59v.577h.59v1.323c0 .673.262 1.074 1.01 1.074.274 0 .59-.085.791-.225l-.182-.54a1.17 1.17 0 01-.56.164c-.316 0-.42-.194-.42-.486v-1.31h1.035v-.577zM4.623 4.176v-1.82c0-.686-.438-1.148-1.144-1.154-.372-.006-.755.11-1.023.516-.2-.322-.517-.516-.961-.516-.31 0-.615.091-.853.431v-.358H.01v2.901h.64V2.568c0-.504.28-.771.712-.771.42 0 .632.273.632.765v1.614h.64V2.568c0-.504.292-.771.712-.771.432 0 .639.273.639.765v1.614h.639z" fill="#848484" mask="url(#b)"/></g><path d="M17.422 2.324a10.63 10.63 0 00-3.956 8.298 10.63 10.63 0 003.956 8.298 10.63 10.63 0 003.957-8.298c0-3.241-1.44-6.255-3.957-8.298" fill="#848484"/><path d="M0 10.622c0 5.857 4.778 10.622 10.652 10.622 2.286 0 4.448-.704 6.278-2.04a11.155 11.155 0 01-3.997-8.582c0-3.334 1.452-6.44 3.997-8.581A10.552 10.552 0 0010.652 0C4.778 0 0 4.765 0 10.622M34.845 10.622C34.845 4.765 30.067 0 24.193 0c-2.286 0-4.448.704-6.279 2.041a11.153 11.153 0 013.997 8.581c0 3.335-1.451 6.44-3.997 8.582a10.557 10.557 0 006.28 2.04c5.873 0 10.651-4.765 10.651-10.622" fill="#848484"/></g></svg>