<svg width="81" height="21" xmlns="http://www.w3.org/2000/svg"><g fill="#838383" fill-rule="nonzero"><path d="M19.754.5L14.28 11.72 11.14 5.277h-6.48L0 14.831l5.725 2.791L7.9 13.166l3.143 6.443h6.478l7.96-16.317zM29.565 19.607V15.56c0-.742-.35-1.235-1.053-1.235-.675 0-1.067.49-1.067 1.235v4.047h-1.966V12.81h1.966v.618h.014c.309-.42.884-.772 1.754-.772 1.502 0 2.317 1.04 2.317 2.527v4.424h-1.965zM32.79 17.823c-.14-.42-.238-.912-.238-1.614 0-.717.085-1.208.225-1.63.393-1.221 1.474-1.923 2.92-1.923 1.503 0 2.542.716 2.935 1.91.141.45.225.94.225 2.09 0 .042-.006.14-.006.14h-4.35v.085c.01.13.038.258.084.38.183.59.703.898 1.405.898.579.014 1.14-.203 1.559-.603a.804.804 0 00.087-.093l1.146 1.05s-.067.081-.094.11c-.646.688-1.643 1.137-2.893 1.137-1.544.001-2.608-.715-3.004-1.937zm4.128-2.33a1.769 1.769 0 00-.067-.59c-.155-.464-.576-.742-1.138-.742-.562 0-.983.28-1.138.742-.055.191-.078.39-.067.59h2.41zM42.364 19.691c-1.573 0-2.162-.702-2.162-2.26v-3.17h-.646v-1.45h.646v-2.05h1.952v2.05h1.095v1.45h-1.095v3.088c0 .506.168.675.618.675h.477v1.671l-.885-.004zM49.61 19.607l-1.715-3.637h-1.362v3.637h-2.064v-9.549h3.946c1.951 0 3.244 1.222 3.244 2.963 0 1.222-.647 2.19-1.7 2.654l1.966 3.932H49.61zm-.016-6.586c0-.716-.505-1.18-1.292-1.18h-1.77v2.374h1.77c.787 0 1.292-.464 1.292-1.194zM52.878 10.058h1.966v1.671h-1.966zM58.295 19.607L55.77 12.81h2.08l1.358 4.17h.029l1.315-4.17h2.031l-2.521 6.797zM67.023 19.607v-.59h-.015c-.35.45-.94.742-1.867.742-1.208 0-2.26-.632-2.26-2.079 0-1.502 1.137-2.19 2.822-2.19h1.292v-.338c0-.632-.309-.927-1.39-.927-.688 0-1.194.197-1.517.436a.615.615 0 00-.106.106l-.771-1.35s.038-.036.104-.087c.576-.404 1.405-.674 2.529-.674 2.218 0 3.018.758 3.018 2.457v4.494h-1.84zm-.028-2.261v-.548h-1.04c-.828 0-1.207.239-1.207.772 0 .478.337.717.983.717.846 0 1.264-.31 1.264-.941zM72.066 19.691a1.966 1.966 0 01-1.965-1.966v-7.667h1.965v7.316c0 .464.183.646.59.646h.435v1.671h-1.025zM54.845 19.691a1.966 1.966 0 01-1.967-1.966v-4.912h1.967v4.561c0 .464.182.646.59.646h.434v1.671h-1.024zM73.862 18.708a.793.793 0 01-.086-.1l1.086-1.221c.034.036.07.069.11.1.606.463 1.375.741 2.078.741.715 0 1.053-.27 1.053-.646 0-.323-.183-.52-.97-.59l-.758-.084c-1.432-.14-2.219-.857-2.219-2.078 0-1.334 1.026-2.177 2.795-2.177 1.152 0 2.12.366 2.752.843.038.029.074.06.108.095l-.973 1.2a.376.376 0 00-.103-.087 3.559 3.559 0 00-1.84-.548c-.576 0-.857.225-.857.562 0 .308.168.49.94.561l.743.084c1.6.155 2.26.927 2.26 2.064-.014 1.39-1.095 2.332-3.035 2.332-1.415.002-2.44-.49-3.084-1.05z"/></g></svg>