<svg width="81" height="21" xmlns="http://www.w3.org/2000/svg"><g fill="#838383" fill-rule="evenodd"><path d="M63.329 9.138c-.242 1.587-1.453 1.587-2.625 1.587h-.667l.467-2.962a.369.369 0 01.364-.31h.306c.798 0 1.552 0 1.94.454.233.271.303.674.215 1.231M62.819 5H58.4c-.303 0-.56.22-.607.518l-1.787 11.33a.368.368 0 00.364.426h2.267a.43.43 0 00.425-.363l.507-3.212a.614.614 0 01.606-.518h1.4c2.91 0 4.591-1.409 5.03-4.2.198-1.22.008-2.18-.563-2.852C65.412 5.391 64.298 5 62.819 5M31.329 9.138c-.242 1.587-1.453 1.587-2.625 1.587h-.667l.467-2.962a.369.369 0 01.364-.31h.306c.798 0 1.552 0 1.94.454.233.271.303.674.215 1.231M30.819 5H26.4c-.303 0-.56.22-.607.518l-1.787 11.33a.368.368 0 00.364.426h2.11c.302 0 .56-.22.607-.518l.482-3.057a.614.614 0 01.606-.518h1.4c2.91 0 4.591-1.409 5.03-4.2.198-1.22.008-2.18-.563-2.852C33.412 5.391 32.298 5 30.819 5M41.06 13.317c-.204 1.209-1.165 2.02-2.39 2.02-.613 0-1.104-.197-1.42-.57-.314-.371-.432-.899-.332-1.486.19-1.199 1.166-2.036 2.372-2.036.6 0 1.09.198 1.41.576.326.38.453.911.36 1.496M44.01 9.2h-2.117a.369.369 0 00-.364.311l-.093.591-.148-.214c-.459-.665-1.48-.887-2.5-.887-2.339 0-4.336 1.771-4.724 4.255-.203 1.24.084 2.424.787 3.251.647.76 1.568 1.076 2.666 1.076 1.885 0 2.93-1.21 2.93-1.21l-.094.588a.368.368 0 00.364.425h1.906c.302 0 .559-.22.606-.517l1.144-7.243a.367.367 0 00-.363-.426M73.06 13.317c-.204 1.209-1.165 2.02-2.39 2.02-.613 0-1.104-.197-1.42-.57-.314-.371-.432-.899-.332-1.486.19-1.199 1.166-2.036 2.372-2.036.6 0 1.09.198 1.41.576.325.38.453.911.36 1.496M76.01 9.2h-2.117a.368.368 0 00-.364.311l-.093.591-.148-.214c-.459-.665-1.48-.887-2.5-.887-2.339 0-4.336 1.771-4.724 4.255-.203 1.24.084 2.424.787 3.251.647.76 1.567 1.076 2.666 1.076 1.885 0 2.93-1.21 2.93-1.21l-.094.588a.368.368 0 00.364.425h1.906c.302 0 .559-.22.606-.517l1.144-7.243a.368.368 0 00-.364-.426M54.862 9h-2.127c-.204 0-.394.1-.509.27l-2.934 4.32-1.244-4.152A.614.614 0 0047.46 9H45.37a.368.368 0 00-.349.488l2.343 6.873-2.204 3.107a.368.368 0 00.3.581h2.126c.202 0 .39-.098.505-.264l7.075-10.207A.368.368 0 0054.862 9M77.819 5.31l-1.814 11.538a.369.369 0 00.364.426h1.824c.302 0 .56-.22.607-.519l1.788-11.33A.368.368 0 0080.224 5h-2.041a.368.368 0 00-.364.31M8.333 12.042H6.611c-.22 0-.405.16-.44.38 0 0-1.098 6.913-1.166 7.366-.041.278.199.503.45.503h2.737a.76.76 0 00.75-.64l.664-4.135a.757.757 0 01.75-.64h.47c3.057 0 5.45-1.241 6.149-4.83.292-1.5.2-3.168-1.12-4.046-.43 2.385-1.774 6.042-7.522 6.042"/><path d="M6.027 10.412h1.779c.943 0 1.786-.106 2.53-.319 1.884-.54 3.15-1.766 3.784-3.713.8-2.452.445-3.904-.465-4.91C12.737.454 11.12 0 9.032 0H3.387c-.426 0-.79.31-.856.732l-2.525 16a.52.52 0 00.514.601h3.325l.92-5.778c.084-.546.43-1.143 1.262-1.143"/></g></svg>