<?xml version="1.0" encoding="UTF-8"?>
<svg width="106px" height="19px" viewBox="0 0 106 19" version="1.1" xmlns="http://www.w3.org/2000/svg" xmlns:xlink="http://www.w3.org/1999/xlink">
    <title>scalapay-seeklogo.com 2</title>
    <g id="Page-1" stroke="none" stroke-width="1" fill="none" fill-rule="evenodd">
        <g id="scalapay-seeklogo.com-2" fill="#848484" fill-rule="nonzero">
            <path d="M7.56202416,16 C7.35081655,15.9955699 7.14855659,15.9108394 6.99375092,15.7619398 C6.93515064,15.7040703 6.88068701,15.6418666 6.83079021,15.57582 L0.329075777,7.90162556 C0.27475554,7.83670005 0.220435304,7.77610292 0.170293547,7.70684905 C-0.0567645158,7.39730434 -0.0567645158,6.96892897 0.170293547,6.65938426 C0.222681196,6.59422692 0.278477989,6.53209376 0.337432736,6.47326449 L3.23311918,3.3871389 C3.29161789,3.32654176 3.34593813,3.26594462 3.40861533,3.20967585 C3.72205142,2.93010805 4.18576243,2.93010805 4.49919853,3.20967585 C4.57858965,3.28325809 4.6496238,3.36549706 4.72483644,3.44340767 L6.75557758,5.60759111 L6.977037,5.84132292 C7.08027567,5.9413444 7.20708096,6.01149935 7.34474322,6.04475616 C7.59852725,6.11362658 7.86877824,6.04889936 8.06762021,5.87162149 C8.14701132,5.80236762 8.21804548,5.72012865 8.29325811,5.64221804 L10.2738575,3.52564664 C10.3490701,3.44773603 10.4201043,3.36549706 10.4994954,3.29191482 C10.8169406,2.99713549 11.2977043,2.99713549 11.6151495,3.29191482 C11.6778267,3.34818359 11.7321469,3.40878073 11.7906456,3.46937787 L14.6529042,6.52953325 L14.7740801,6.65938426 C15.0586217,6.973901 15.0764349,7.45734753 14.8158649,7.79341639 L14.6779751,7.95789433 C12.5608787,10.4712327 10.4409967,12.9845711 8.31832899,15.4979094 C8.25147331,15.5801484 8.18461764,15.6667157 8.109405,15.7446264 C7.96222935,15.8947163 7.76806576,15.9853009 7.56202416,16 L7.56202416,16 Z" id="Path"></path>
            <path d="M71,11.5830976 L71,4.63882067 C71,4.52273724 71,4.4066538 71,4.29057036 C71.013944,4.24653029 71.050611,4.21329709 71.0960583,4.20350779 L71.2714691,4.20350779 L73.309576,4.20350779 C73.4181636,4.20350779 73.4641046,4.24911199 73.468281,4.34861208 C73.4724575,4.44811217 73.468281,4.55590393 73.468281,4.66369569 C73.468281,4.77148746 73.468281,4.80050831 73.468281,4.87098754 C73.468281,4.94146677 73.5309278,4.92073759 73.55181,4.90415424 L73.8149263,4.72588325 C74.4489938,4.29932924 75.1883719,4.05276496 75.9532679,4.01279929 C77.5315408,3.89363811 79.0553924,4.61291155 79.9584819,5.90330095 C80.4190834,6.5157261 80.7319917,7.22489246 80.8731241,7.97621945 C80.966892,8.40786784 81.008948,8.84900323 80.9984176,9.29044977 C80.988622,10.2146147 80.7444426,11.1214371 80.2884213,11.9272021 C79.3249224,13.5817913 77.4592073,14.5053638 75.5481524,14.2737458 C74.9889561,14.2015228 74.4535033,14.004503 73.9819842,13.6974745 L73.6854563,13.506766 C73.6650036,13.4968799 73.6408892,13.4980016 73.6214573,13.509743 C73.6020255,13.5214843 73.5899458,13.5422324 73.589398,13.5648077 C73.589398,13.6808911 73.589398,13.7969746 73.589398,13.913058 L73.589398,18.5024996 C73.589398,18.593708 73.589398,18.6890622 73.589398,18.7802706 C73.589398,18.975125 73.5643393,19 73.3680463,19 L71.1879402,19 C71.0542938,19 71.0167058,18.9626875 71.0125293,18.8383124 C71.0083529,18.7139372 71.0125293,18.7014997 71.0125293,18.6310205 L71.0125293,11.5830976 L71,11.5830976 Z M73.5852216,9.15363715 L73.5852216,9.15363715 C73.5852216,9.59309587 73.5852216,10.0367004 73.5852216,10.4761592 C73.5835968,10.5822346 73.6206823,10.685313 73.6896328,10.7663677 C73.9333674,11.0782199 74.2408015,11.3353629 74.5917457,11.5209101 C75.2156939,11.8613295 75.9502877,11.9418557 76.6340289,11.7447853 C77.3628038,11.5337706 77.9491309,10.9947406 78.2169029,10.2895965 C78.5851662,9.36677339 78.480908,8.32410977 77.9370809,7.49115652 C77.6024847,6.9763256 77.0748644,6.61521951 76.4711475,6.48786397 C76.1375613,6.421526 75.7940331,6.421526 75.4604469,6.48786397 C74.761731,6.6082139 74.1309022,6.97656985 73.6854563,7.52432322 C73.6082452,7.61119264 73.5665353,7.72357537 73.5685158,7.83940683 C73.5852216,8.27057387 73.5852216,8.71003259 73.5852216,9.15363715 L73.5852216,9.15363715 Z" id="Shape"></path>
            <path d="M67.9989149,9.50842113 L67.9989149,14.3441176 C67.9989149,14.7861374 68.0406262,14.7861374 67.6068286,14.7861374 L65.7840444,14.7861374 C65.5421188,14.7861374 65.5254342,14.7861374 65.517092,14.5120852 C65.517092,14.3662186 65.517092,14.2159319 65.517092,14.0700654 C65.517092,14.0700654 65.4837229,14.0347038 65.4628673,14.0347038 C65.4402144,14.0377279 65.4186722,14.0468593 65.4003003,14.061225 L65.2584819,14.1717299 C64.54973,14.7337505 63.6823674,15.0250758 62.7975146,14.9983069 C61.1738652,14.9776716 59.6728278,14.0789612 58.8182557,12.6158203 C58.3908968,11.8721723 58.1244994,11.037336 58.0382542,10.1714508 C57.9288397,9.18178313 58.0550309,8.17883499 58.4053137,7.2541202 C58.7251386,6.36810947 59.2674738,5.59162724 59.973659,5.00865967 C60.5759413,4.49879525 61.2960657,4.16912546 62.0592244,4.05389692 C63.1715513,3.8725275 64.3070322,4.15276575 65.2292839,4.83627195 L65.4336694,4.97329809 C65.4558791,4.9740508 65.4772625,4.96433924 65.4920652,4.9467769 C65.4984694,4.9251969 65.4984694,4.90205393 65.4920652,4.88047393 C65.4920652,4.78322958 65.4920652,4.68156503 65.4920652,4.58432067 C65.4920652,4.23070484 65.4920652,4.22186444 65.8174134,4.22186444 L67.6401976,4.22186444 C67.7227227,4.22043647 67.805173,4.22784101 67.8862944,4.24396543 C67.9169828,4.25578589 67.9423149,4.2794724 67.9572036,4.3102684 C67.9656835,4.34655531 67.9656835,4.38448645 67.9572036,4.42077335 C67.9572036,4.55779948 67.9572036,4.69482562 67.9572036,4.83185175 L67.9989149,9.50842113 Z M65.4169848,9.50842113 L65.4169848,9.50842113 C65.4169848,9.03545996 65.4169848,8.56691898 65.4169848,8.09395781 C65.4226824,7.97062815 65.3822092,7.84990064 65.3043643,7.75802277 C64.9320055,7.27464589 64.4326233,6.919281 63.8694953,6.73695705 C63.4440851,6.59741401 62.9927001,6.57159893 62.555589,6.66181369 C61.9453747,6.79040519 61.4108017,7.17657819 61.0748375,7.73150158 C60.8372761,8.10088065 60.6818291,8.52252661 60.6201843,8.96473679 C60.5064624,9.61562575 60.5927185,10.2880068 60.866281,10.8831027 C61.1477022,11.521354 61.6630539,12.0099916 62.2928078,12.2356832 C62.5921964,12.3416499 62.907799,12.3866429 63.22297,12.3682892 C64.0537813,12.3450007 64.8298867,11.9240242 65.3335622,11.2234579 C65.4030392,11.1376795 65.4388635,11.0269528 65.4336694,10.9140441 C65.4128137,10.4455031 65.4169848,9.97254191 65.4169848,9.50400094 L65.4169848,9.50842113 Z" id="Shape"></path>
            <path d="M92.9869167,9.49180531 L92.9869167,14.2915107 C92.9869167,14.402103 92.9869167,14.5126953 92.9869167,14.6277113 C92.9869167,14.7427273 92.9410113,14.7736931 92.8325077,14.7825405 L90.6749551,14.7825405 C90.5873176,14.7825405 90.5414122,14.7338799 90.5414122,14.645406 C90.5414122,14.4861531 90.5414122,14.3224766 90.5414122,14.1632237 C90.5430558,14.1265317 90.5358757,14.0899988 90.5205462,14.0570551 C90.5205462,14.0570551 90.4746408,14.0260892 90.4621211,14.0349366 C90.4012514,14.0705667 90.342696,14.1104689 90.2868461,14.1543763 C90.0349136,14.3552952 89.7618262,14.5245286 89.473069,14.6586771 C89.0205735,14.8666447 88.5346736,14.9807696 88.041656,14.9948777 C86.6765502,15.0605619 85.3522905,14.4919578 84.4151314,13.4377382 C83.8725823,12.8325615 83.4747545,12.0983694 83.2549774,11.2966715 C83.0282064,10.524761 82.951542,9.71210346 83.0296238,8.90787802 C83.103789,8.00278156 83.3767634,7.12864701 83.826708,6.35540795 C84.2257116,5.66405457 84.7770567,5.08568994 85.4333961,4.66998145 C86.0758466,4.2551966 86.8097368,4.02639126 87.5617361,4.0064277 C88.2879987,3.96584845 89.0123436,4.117892 89.6692101,4.44879687 C89.8693953,4.55010517 90.0607201,4.67001356 90.2409407,4.80711589 L90.4454283,4.94867402 C90.4704676,4.94867402 90.5288926,4.94867402 90.5288926,4.90886079 C90.5330174,4.86029841 90.5330174,4.81144136 90.5288926,4.76287897 C90.5288926,4.62574453 90.5288926,4.48861009 90.5288926,4.35147565 C90.5253429,4.31404193 90.5369489,4.27677028 90.5608235,4.248932 C90.584698,4.22109371 90.6185974,4.2053052 90.6540891,4.20549383 L92.740697,4.20549383 C92.8094758,4.20777692 92.8779181,4.21666061 92.9451845,4.23203598 C92.9451845,4.23203598 92.9869167,4.25857813 92.9952631,4.28069659 C93.001579,4.31576949 93.001579,4.35179228 92.9952631,4.38686518 C92.9952631,4.49745747 92.9952631,4.61247346 92.9952631,4.72306575 L92.9869167,9.49180531 Z M90.4036961,9.49180531 L90.4036961,8.08064768 C90.4071403,7.95597951 90.3635885,7.83499334 90.2826728,7.74444712 C89.8440965,7.17050685 89.2245462,6.78400694 88.5382686,6.65621898 C88.1115747,6.56575346 87.6700057,6.59472208 87.2570914,6.74026912 C86.6608536,6.95148781 86.1693367,7.4071791 85.8924498,8.00544493 C85.4774065,8.82447039 85.4254609,9.79617568 85.7505605,10.6596599 C86.1107755,11.7360278 87.0949893,12.4339502 88.1710256,12.3760522 C89.0033692,12.3598787 89.7835473,11.9431206 90.2910193,11.2435872 C90.3665091,11.1486684 90.4052779,11.0269616 90.3995229,10.9029629 L90.4036961,9.49180531 Z" id="Shape"></path>
            <path d="M49.9890493,14.7244238 C49.9685934,14.7408065 49.946133,14.7541779 49.9222819,14.7641724 C49.8750741,14.7684347 49.8276091,14.7684347 49.7804013,14.7641724 L47.7439965,14.7641724 C47.6982925,14.7705618 47.6519929,14.7705618 47.6062888,14.7641724 C47.587093,14.7527052 47.5712211,14.7359069 47.5603863,14.7155907 C47.5541262,14.6790846 47.5541262,14.641684 47.5603863,14.6051778 C47.5603863,14.4461833 47.5603863,14.2871887 47.5603863,14.1237777 C47.5603863,14.0884455 47.5603863,14.0398639 47.5103107,14.0398639 C47.477772,14.0376026 47.4454542,14.046931 47.4185056,14.066363 C47.3792465,14.0932927 47.3416164,14.1227937 47.3058357,14.1546933 C46.5858085,14.7283096 45.7028972,15.0257738 44.8020594,14.9982477 C43.1686775,14.9790799 41.659687,14.0712406 40.8085361,12.5956633 C40.3536136,11.8122605 40.0831309,10.9246738 40.0198466,10.0075853 C39.9472748,9.08987267 40.0743226,8.16676154 40.3912401,7.30909434 C40.6898613,6.46888027 41.1852409,5.72271344 41.8309115,5.14058526 C42.4607228,4.55659957 43.2382483,4.1804579 44.0676183,4.05853898 C45.1726152,3.87050462 46.3036214,4.13931962 47.2265494,4.80934661 C47.3027589,4.86599692 47.3821959,4.91762085 47.4644082,4.96392465 C47.4644082,4.96392465 47.5186567,4.96392465 47.5186567,4.93300904 C47.5186567,4.80934661 47.5186567,4.68568417 47.5186567,4.56202174 C47.5186567,4.20870051 47.5186567,4.21311702 47.8441476,4.21311702 L49.8471686,4.21311702 C49.9431467,4.21311702 49.9848763,4.26611521 49.9848763,4.38094461 C49.9848763,4.49577401 49.9848763,4.55318871 49.9848763,4.64151902 L49.9848763,14.357853 C50.0035298,14.4791395 50.0049364,14.6026968 49.9890493,14.7244238 Z M47.4268515,9.49085297 C47.4268515,9.04920143 47.4268515,8.60754988 47.4268515,8.16589834 C47.4311167,7.99239918 47.3677319,7.82468834 47.2515872,7.70216422 C46.6728283,6.9851759 45.8130419,6.59216109 44.9230752,6.637784 C44.4029683,6.65153824 43.9038743,6.85782677 43.5126146,7.22076404 C43.2159221,7.48438609 42.9827679,7.81895318 42.832422,8.19681395 C42.5127037,8.93780854 42.473868,9.78040598 42.723925,10.5508167 C42.9501397,11.3490203 43.5268004,11.9823686 44.2720934,12.2511751 C44.5701742,12.3639215 44.8866545,12.4119863 45.2026636,12.3925036 C46.0135323,12.3773386 46.7768688,11.9847047 47.2891438,11.3192904 C47.3905979,11.1977327 47.4443373,11.039744 47.4393704,10.8776388 C47.4185056,10.4050717 47.4268515,9.94575406 47.4268515,9.49085297 Z" id="Shape"></path>
            <path d="M97.8276447,4.01680605 C97.8952715,4.15545596 97.9544449,4.27309831 98.0093917,4.39074066 L100.494676,9.63422819 C100.529603,9.74639997 100.588745,9.84963984 100.667969,9.93673709 C100.74405,9.90312499 100.760956,9.83169928 100.786316,9.76867659 L101.280837,8.63426823 C101.906385,7.20855501 102.529115,5.78284178 103.149027,4.35712856 C103.19552,4.24788923 103.250467,4.14285142 103.305414,4.02941059 C103.373796,4.01549989 103.442956,4.00567873 103.512521,4 L105.718845,4 C105.800868,4.00282516 105.882692,4.00983692 105.963992,4.02100756 C105.975975,4.02164477 105.986954,4.02786602 105.993611,4.03779198 C106.000268,4.04771793 106.001822,4.0601845 105.997805,4.07142571 C105.983102,4.14048298 105.961874,4.20800661 105.934405,4.27309831 C105.652627,4.88651913 105.379302,5.49993994 105.11443,6.11336076 L99.5098609,18.6422709 C99.4663866,18.7678706 99.4051937,18.8866986 99.3281139,18.9951979 L99.1590469,18.9951979 L96.8470564,18.9951979 C96.7993706,19.0016007 96.7510353,19.0016007 96.7033495,18.9951979 C96.6851208,18.9828734 96.6740795,18.9624903 96.6737628,18.9405783 C96.6867217,18.883455 96.7036695,18.8272988 96.7244829,18.7725178 L97.2063237,17.7095351 L99.1336869,13.4197909 C99.1801803,13.3231561 99.222447,13.2265213 99.2647138,13.1298866 C99.2965196,13.0649034 99.2965196,12.9889956 99.2647138,12.9240124 L99.1125535,12.6046975 L95.1268002,4.38233763 C95.0803068,4.28570285 95.0422667,4.18906806 95,4.09243327 C95,4.0672242 95.0295867,4.01260454 95.0549468,4.00840302 L95.194427,4.00840302 L97.578271,4.00840302 C97.6628044,4 97.7304312,4.00840302 97.8276447,4.01680605 Z" id="Path"></path>
            <path d="M35.9866894,11.0339008 L36.1633531,11.1579283 C36.7728427,11.6451795 37.4088319,12.0969942 37.9962386,12.6108226 C37.9962386,12.6108226 37.9962386,12.6329704 37.9962386,12.6418295 C38.0012538,12.6651861 38.0012538,12.6893459 37.9962386,12.7127024 C37.4461178,13.5046367 36.696266,14.1359331 35.8232755,14.542109 C35.2647597,14.7922511 34.6668164,14.9421757 34.0566389,14.9850646 C33.722745,15.0049785 33.3879664,15.0049785 33.0540726,14.9850646 C30.7770217,14.8660674 28.8310697,13.2997411 28.2223213,11.0959145 C28.0368334,10.4625339 27.9665194,9.80084206 28.0147415,9.1424804 C28.1017293,7.29496575 29.1292965,5.62194066 30.7353619,4.71292454 C31.5106287,4.26251862 32.387904,4.01853929 33.2837353,4.0041956 C34.2796987,3.96488036 35.2671106,4.2024935 36.1368535,4.69077676 C36.7132691,5.00955498 37.2230957,5.43666019 37.6384947,5.94877062 C37.6690465,5.98735465 37.6956783,6.02890351 37.7179933,6.07279819 C37.7290377,6.09512409 37.7290377,6.12134518 37.7179933,6.14367108 C37.678704,6.19114448 37.635888,6.23556695 37.5899122,6.27655776 L36.0529383,7.68515652 L35.9116074,7.80475453 C35.8941624,7.82261148 35.870285,7.83267429 35.8453585,7.83267429 C35.8204319,7.83267429 35.7965546,7.82261148 35.7791096,7.80475453 L35.6068625,7.60985407 C35.3971587,7.37473031 35.1529068,7.17307912 34.8825415,7.01186403 C34.1487567,6.55453119 33.2420124,6.47391535 32.4394558,6.7946568 C31.6368991,7.11539825 31.0339353,7.79936828 30.8148606,8.63751103 C30.6386535,9.26804903 30.6602417,9.93770364 30.8766929,10.5555087 C31.2199482,11.6029292 32.1723647,12.3290314 33.2704855,12.3804857 C34.2144598,12.4524972 35.1331438,12.0531218 35.7261105,11.3129628 C35.8011926,11.2288012 35.8674414,11.1402101 35.9425235,11.0560485 C35.9513567,11.0471894 35.9646065,11.0471894 35.9866894,11.0339008 Z" id="Path"></path>
            <path d="M26.6824204,5.08623483 C26.2465377,5.75538507 25.8803963,6.4156724 25.4401548,7.05380243 C25.4401548,7.05380243 25.4401548,7.05380243 25.3922077,7.07595972 L25.1263192,6.90756429 C24.7740376,6.67891724 24.3819468,6.52097175 23.9712301,6.44226115 C23.5982228,6.3661025 23.2127428,6.38129255 22.8466528,6.48657573 C22.7052755,6.52447667 22.5721888,6.58912206 22.4543584,6.67712845 C22.3754811,6.73662453 22.3063411,6.8084122 22.2494935,6.88983846 C22.0724318,7.12870133 22.1046221,7.4655937 22.3235936,7.66534371 C22.4204733,7.76172954 22.5324183,7.84109734 22.6548644,7.90021101 C22.8335763,7.97997726 23.0122882,8.06417498 23.1953589,8.13507831 C23.5266298,8.25915915 23.8622595,8.37437707 24.1935303,8.49402646 C24.5518579,8.6170739 24.9013962,8.76514168 25.2396487,8.93717231 C25.5016272,9.07242471 25.748586,9.23584558 25.9762904,9.42463275 C26.5862126,9.92258294 26.9548633,10.6640926 26.9875383,11.4586722 C27.023324,11.8559302 26.9818535,12.2564647 26.8654911,12.6374402 C26.6896418,13.1835823 26.3627754,13.666667 25.9239845,14.0289182 C25.4764706,14.3992427 24.9563492,14.6681693 24.3983951,14.8177178 C23.8889595,14.9588024 23.3610632,15.018601 22.8335763,14.9949761 C21.6924409,14.9613419 20.5794681,14.6269256 19.6036857,14.0244867 C19.4249738,13.9137003 19.2506207,13.7940509 19.0806265,13.6744015 C18.9847323,13.6079296 18.9760146,13.563615 19.0457558,13.45726 C19.4148032,12.8663989 19.7882093,12.2844007 20.1659743,11.7112654 C20.1860929,11.6806346 20.2111435,11.6536685 20.2400744,11.6314991 C20.2620438,11.6204176 20.2878462,11.6204176 20.3098156,11.6314991 C20.3708392,11.6669508 20.4275039,11.7112654 20.4885275,11.7555799 C21.2261227,12.3241103 22.1304185,12.6238012 23.0558765,12.60642 C23.2395587,12.6116764 23.4226641,12.5831524 23.596371,12.5222223 C23.6991227,12.4840094 23.7983161,12.4365524 23.8927712,12.3804156 C23.9838213,12.3342583 24.067566,12.2745108 24.1412244,12.2031573 C24.3865284,11.9345292 24.3865284,11.5190217 24.1412244,11.2503937 C24.0464771,11.1361073 23.9310666,11.0413378 23.8012359,10.9712118 C23.6414361,10.8811161 23.4770197,10.799757 23.3086884,10.7274816 C22.9904941,10.5989693 22.6679409,10.4837513 22.3497466,10.3596705 C22.0315522,10.2355897 21.735152,10.1203717 21.4300341,9.98742799 C21.2040259,9.89172759 20.9867055,9.77606687 20.7805689,9.64177422 C20.5738565,9.51523465 20.3809813,9.36668235 20.2052038,9.19862836 C19.8130527,8.81675437 19.5608655,8.31022894 19.4903562,7.76283579 C19.3266864,6.77993858 19.6628844,5.77954821 20.3839157,5.10396067 C20.8390121,4.66592735 21.3927448,4.34793126 21.9966816,4.17778583 C22.3368876,4.07584183 22.6883486,4.01777775 23.0428,4.00495895 C24.123624,3.96163246 25.1971374,4.20280929 26.1593612,4.7051294 C26.2988436,4.78046419 26.4296084,4.86909336 26.5647321,4.95772253 C26.6065192,4.99806314 26.6458231,5.04098181 26.6824204,5.08623483 L26.6824204,5.08623483 Z" id="Path"></path>
            <path d="M53.0024304,7.50095444 C53.0024304,5.17736701 53.0024304,2.85377959 53.0024304,0.530192161 C53.0024304,-0.0711058794 52.9298005,0.00620386867 53.5786269,0.00190888267 C54.2274532,-0.00238610333 54.8569115,0.00190888267 55.5154218,0.00190888267 L55.8785708,0.00190888267 C55.9128587,0.00298774441 55.9451647,0.0164331405 55.9680153,0.0391345908 C55.9908659,0.0618360412 56.0022813,0.0918267043 55.9996205,0.122168491 C55.9996205,0.216658183 55.9996205,0.315442861 55.9996205,0.409932553 C55.9996205,5.14300713 55.9996205,9.8760817 55.9996205,14.6091563 C55.9996205,14.707941 55.9996205,14.8024306 55.9996205,14.9012153 C55.9900071,14.9473198 55.9529186,14.9851532 55.9027808,15 L55.7381532,15 L53.3171595,15 L53.157374,15 C53.1040566,14.9883729 53.063909,14.9493692 53.0556922,14.9012153 C53.0532997,14.8654552 53.0532997,14.8296008 53.0556922,14.7938407 L53.0556922,7.49236447 L53.0024304,7.50095444 Z" id="Path"></path>
        </g>
    </g>
</svg>