<svg width="81" height="36" xmlns="http://www.w3.org/2000/svg"><g fill="#848484" fill-rule="nonzero"><g font-size="14"><text font-family="Helvetica-Bold, Helvetica" font-weight="bold" transform="translate(23 2.638)"><tspan x=".906" y="14.594">Secure</tspan></text><text font-family="Helvetica" transform="translate(23 2.638)"><tspan x="1.843" y="27.12">Payment</tspan></text></g><path d="M18.223 21.642c0 .367-.342.636-.742.636H1.986c-.429 0-.742-.293-.742-.636V11.625c0-.367.343-.637.742-.637h15.466c.429 0 .741.294.741.637v10.017h.03zM4.753 6.506c0-2.35 2.226-4.261 4.966-4.261s4.965 1.91 4.965 4.261v3.478h-9.93V6.506zm12.699 3.478h-1.627V6.506c0-2.89-2.74-5.24-6.106-5.24-3.369 0-6.107 2.35-6.107 5.24v3.478H1.986C.93 9.984.101 10.719.101 11.6v10.017c0 .906.857 1.616 1.885 1.616h15.466c1.056 0 1.884-.735 1.884-1.616v-9.993c.028-.906-.828-1.641-1.884-1.641z"/><path d="M8.69 13.969v4.647c0 .398.354.724.784.724.432 0 .786-.326.786-.724v-4.647c0-.435-.354-.726-.786-.726-.43 0-.783.327-.783.726z"/></g></svg>