<svg width="130" height="33" xmlns="http://www.w3.org/2000/svg" xmlns:xlink="http://www.w3.org/1999/xlink"><defs><path id="a" d="M.483 21h20.042V.443H.483z"/><path id="c" d="M.3 30h21.248V.255H.3z"/></defs><g fill="none" fill-rule="evenodd"><path d="M12.07 30.856c-.896.234-2.376.389-3.232.389-5.45 0-7.242-2.297-6.658-6.891l.973-7.942H0l.506-4.127 3.231-.857.506-4.01 6.424-1.674-.66 5.49h4.826l-.623 5.178H9.383l-.935 7.436c-.194 1.519.312 2.375 2.297 2.375.818 0 1.597-.156 1.908-.233l-.584 4.866zM27.487 15.983c-.312-.078-1.09-.156-1.908-.156-1.907 0-3.698.662-4.243 1.13L19.66 30.7h-6.23l2.376-19.467h3.738l.584 1.402c1.09-.935 3.348-1.947 6.268-1.947.778 0 1.44.156 1.713.273l-.623 5.022z" fill="#151312"/><g transform="translate(26 10.245)"><mask id="b" fill="#fff"><use xlink:href="#a"/></mask><path d="M13.634 6.322s-1.09-.818-2.647-.818c-2.882 0-3.738 1.908-4.166 5.217-.39 3.35 0 5.217 2.88 5.217 1.558 0 2.843-.817 2.843-.817l1.09-8.799zm4.516 14.133h-3.737l-.896-1.558C12.037 20.065 10.09 21 6.976 21 1.915 21-.187 17.885.669 10.721 1.565 3.558 4.446.443 9.507.443c3.115 0 4.828.934 6.035 2.102L16.788.988h3.737L18.15 20.455z" fill="#151312" mask="url(#b)"/></g><g transform="translate(46 1.245)"><mask id="d" fill="#fff"><use xlink:href="#c"/></mask><path d="M13.45 15.322s-1.09-.818-2.648-.818c-2.88 0-3.737 1.908-4.165 5.217-.39 3.35 0 5.217 2.881 5.217 1.557 0 2.842-.817 2.842-.817l1.09-8.799zm.78 14.133l-.897-1.558C11.854 29.065 9.907 30 6.793 30 1.73 30-.373 26.885.484 19.721 1.38 12.558 4.262 9.443 9.323 9.443c2.141 0 3.621.545 4.711 1.246L15.32.254h6.23l-3.583 29.201H14.23z" fill="#151312" mask="url(#d)"/></g><path d="M75.724 19.215c1.752 0 2.53-.973 2.647-1.947.117-.973-.428-1.907-2.18-1.907-2.102 0-3.231 1.4-3.504 3.854h3.037zM72.22 23.03c-.467 2.53.74 3.27 3.776 3.27 2.92 0 5.179-.583 6.658-1.284l-.584 4.867c-2.375.934-5.14 1.362-7.475 1.362-6.424 0-9.15-3.27-8.293-10.278.857-7.008 4.36-10.278 10.395-10.278 5.996 0 8.293 2.18 7.787 6.15-.467 3.972-3.31 6.19-9.305 6.19h-2.96zM86.291 30.597h40.26l2.47-19.882H88.764z" fill="#151312"/><path d="M108.514 13.547l-.001.003c-.01 0-.018-.003-.028-.003-.923 0-1.77.75-1.883 1.665l-.25 2.038-.466 3.796-.178 1.45-5.612-8.949H96.74l-.824 6.711-.62 5.045v.001l-.204 1.665h1.492v-.02c.06.008.12.02.185.02.923 0 1.77-.75 1.882-1.666l.895-7.282 5.612 8.948h3.355l.824-6.71.62-5.047.204-1.665h-1.648zM93.415 13.547v.003c-.01 0-.02-.003-.02-.003-.932 0-1.78.75-1.892 1.665l-.25 2.038-.466 3.796-.523 4.257v.001l-.204 1.665h1.6v-.008c.027.001.05.008.077.008.923 0 1.77-.75 1.882-1.666l1.24-10.09.204-1.666h-1.648zM125.057 15.212l.204-1.665h-1.648l-.001.003-.028-.003c-.923 0-1.77.75-1.882 1.665l-.251 2.038-.466 3.796-.178 1.449-5.612-8.948h-3.355l-.824 6.71-.62 5.046-.204 1.666h1.49v-.02c.063.008.122.02.187.02.923 0 1.77-.75 1.882-1.666l.895-7.282 5.612 8.948h3.355l.824-6.711.62-5.046z" fill="#FFF"/></g></svg>