<svg width="54" height="24" xmlns="http://www.w3.org/2000/svg"><g fill="#818181" fill-rule="evenodd"><path d="M17.6 2.728h.897v-.912h-.896zM17.6.912h.897V0h-.896zM15.025 3.635h.846v-.893h-.846z"/><path d="M14.198 6.062v-.761h-.843v.857h.843v-.096l.817-.761v-.857h-.817V5.3h.817l-.817.761zm-2.995.792v.675h.838V6.681h-.838v.173zm-6.85 12.567c-.721-1.753-1.47-3.95-3.841-6.604-1.034-1.083-.283-1.773.337-1.582 1.155.38 2.62 1.444 4.503 4.109.521-1.325 2.255-4.582 2.944-5.624h.613v-.854h.562v-.852h.842V6.68h.89v-.762h.748V5.3h1.404V4.45h-.842v-.815h.842v.81h.843V2.73l.828-.01v-.904h1.638V.91h.937v.905h-.89v.904h-1.685v1.771h.843v-.857h.936v.857h-.936v.832h-.855v1.786h-.724l.002.714h-.75v1.055l-.667-.012v.861h-.83l-.002-.857h-.84v.857h.842v.952l-.842.006v.994H10.5v.856h-.68l.007.952c-1.252 1.834-2.311 4.07-3.04 6.061-.345.941-2.055.795-2.434-.127z"/><path d="M14.203 14.265c.242 0 .743.077.743-.308 0-.956-.516-1.572-1.47-1.572-1.137 0-1.592.878-1.773 1.88h2.5zm1.97 3.436c-.712.894-1.561 1.31-2.697 1.31-1.88 0-3.425-1.34-3.425-3.313 0-1.926 1.44-3.668 3.41-3.668 1.485 0 2.894.847 2.894 2.512 0 .2-.228.139-.38.139h-4.348l-.06.74c0 1.463.757 3.097 2.378 3.097.773 0 1.455-.524 1.91-1.14l.318.323zM17.698 15.174c0-.416.015-1.51-.09-1.865-.137-.554-.516-.493-1-.493v-.308c.711-.046 1.378-.324 2.045-.478.136.447.197 1.002.182 1.557h.03c.394-.94 1.151-1.557 2.197-1.557.47 0 1.076.231 1.076.802 0 .292-.243.554-.53.554-.637 0-.5-.8-1.091-.8-.455 0-.955.384-1.182.77-.349.632-.349 1.386-.349 2.095v1.526c0 1.125-.12 1.495 1.152 1.556v.31c-.576-.017-1.167-.048-1.743-.063-.59.015-1.167.046-1.757.062v-.309c1.136-.077 1.06-.446 1.06-1.464v-1.895zM23.303 9.287c0-.462.364-.832.819-.832.454 0 .803.37.803.832 0 .447-.349.817-.773.817-.455 0-.849-.339-.849-.817zm1.637 2.743v4.947c.03 1.017-.137 1.479 1.06 1.556v.309c-.515-.016-1.075-.047-1.621-.062-.591.015-1.182.046-1.773.062v-.309c1.121-.077 1.03-.447 1.046-1.464v-2.203c0-.293 0-1.48-.061-1.711-.106-.385-.743-.354-1.046-.339v-.308l2.395-.478zM26.697 15.728h.348c.303 1.557 1.121 2.867 2.864 2.867 1.182 0 2.167-.678 2.167-1.926 0-1.403-1.197-1.957-2.304-2.404-1.378-.54-2.848-1.28-2.848-3.036 0-1.757 1.348-2.774 3-2.774.833 0 1.606.293 2.288.786l.349-.601h.167l.075 2.666h-.349c-.348-1.28-1.06-2.435-2.53-2.435-.97 0-1.773.632-1.773 1.633 0 1.218 1.076 1.634 2.016 2.035 1.575.663 3.333 1.463 3.333 3.482s-1.849 2.99-3.621 2.99c-1.031 0-1.834-.309-2.652-.925l-.364.647h-.166v-3.005zM34.374 9.287c0-.462.364-.832.818-.832.455 0 .804.37.804.832 0 .447-.349.817-.773.817-.455 0-.849-.339-.849-.817zm1.636 2.743v4.947c.03 1.017-.136 1.479 1.061 1.556v.309c-.515-.016-1.075-.047-1.621-.062-.591.015-1.182.046-1.773.062v-.309c1.12-.077 1.03-.447 1.045-1.464v-2.203c0-.293 0-1.48-.06-1.711-.106-.385-.743-.354-1.046-.339v-.308l2.394-.478zM41.563 14.511c0-.986-.364-2.126-1.515-2.126-1.167 0-1.485 1.155-1.485 2.126 0 .925.364 2.065 1.455 2.065 1.166 0 1.545-1.063 1.545-2.065zm-1.06 3.622c1.545.123 3.182.184 3.182 2.25 0 1.957-1.788 2.588-3.44 2.588-1.258 0-3.182-.446-3.182-2.05 0-.632.47-1.279 1.121-1.279.258 0 .454.109.637.278-.5.092-.788.616-.788 1.094 0 1.341 1.348 1.602 2.409 1.602 1.06 0 2.212-.462 2.212-1.71 0-1.51-1.667-1.433-2.712-1.495-1-.03-2.379 0-2.379-1.387 0-.74.682-1.232 1.334-1.325v-.03c-.88-.293-1.622-1.141-1.622-2.127 0-1.633 1.364-2.512 2.849-2.512.697 0 1.41.216 1.924.693.41-.323.925-.647 1.47-.647.394 0 .894.185.894.663a.499.499 0 01-.5.508c-.47 0-.515-.539-.985-.539-.212 0-.455.154-.621.293.363.416.545.956.545 1.51 0 1.819-1.348 2.343-2.91 2.42-.454.015-1.62.015-1.62.647 0 .54.832.478 1.166.508l1.016.047zM51.678 16.977c0 1.017-.12 1.479 1.061 1.556v.309c-.545-.016-1.106-.047-1.652-.062-.59.015-1.167.046-1.758.062v-.309c1.137-.077 1.061-.447 1.061-1.464v-1.973c0-1.063.046-2.573-1.394-2.573-1.182 0-1.94.94-1.94 2.065v2.389c0 1.017-.136 1.479 1.061 1.556v.309c-.545-.016-1.106-.047-1.652-.062-.59.015-1.167.046-1.757.062v-.309c1.136-.077 1.06-.447 1.06-1.464v-1.895c0-.432 0-1.51-.075-1.865-.122-.554-.531-.493-1.016-.493v-.308c.788-.093 1.349-.34 2.091-.478l.197 1.403h.03c.53-.956 1.349-1.403 2.425-1.403 1.44 0 2.258.663 2.258 2.127v2.82zM52.513 11.06h.197l.298.502h.193l-.323-.51c.167-.02.295-.11.295-.317 0-.228-.133-.328-.401-.328h-.432v1.155h.173v-1.008h.233c.12 0 .247.027.247.17 0 .179-.13.19-.275.19h-.205v.147zm.207.925a.992.992 0 00.996-1.003.994.994 0 00-.996-1.003.994.994 0 00-.999 1.003c0 .58.459 1.003 1 1.003zm-.8-1.003c0-.475.35-.837.8-.837.445 0 .797.362.797.837 0 .482-.352.838-.797.838-.45 0-.8-.356-.8-.838z"/></g></svg>