<svg width="47" height="30" xmlns="http://www.w3.org/2000/svg"><g fill="none" fill-rule="evenodd"><path d="M36.43 10.015l-.088.014-.071.015-.059.015-.045.015-.044.015-.041.013-.044.014-.027.015-.03.013-.029.016-.026.014-.033.015-.027.014-.018.015-.026.015-.014.014-.03.014-.012.013-.018.015-.026.015-.015.015-.018.015-.012.014-.014.015-.015.013-.015.015-.014.015-.015.013-.012.015-.018.014-.012.015-.014.014-.016.015-.011.027-.018.017-.011.013-.015.03-.016.014-.017.03-.014.013-.01.03-.017.013-.015.03-.014.028-.016.029-.011.028-.018.03-.012.029-.014.028-.016.031-.014.041-.015.03-.015.044-.014.028-.013.028-.014.044-.017.03-.013.028-.014.042-.015.03-.015.043-.012.03-.014.028-.018.044-.012.03-.014.04-.016.03-.015.03-.014.043-.015.028-.015.044-.014.03-.015.027-.015.044-.012.029-.014.042-.015.03-.015.028-.015.045-.015.027-.014.029-.015.044-.015.03-.012.042-.015.03-.014.028-.015.044-.015.027-.014.044-.015.03-.015.03-.012.042-.018.028-.011.044-.015.03-.014.028-.016.042-.011.03-.018.028-.015.045-.011.027-.016.044-.014.03-.015.028-.015.043-.014.028-.013.044-.017.028-.014.03-.013.044-.014.028-.015.043-.015.03-.015.029-.015.043-.014.028-.015.029-.012.045-.015.027-.014.044-.015.029-.015.03-.014.042-.015.028-.015.045-.015.03-.012.026-.018.044-.011.03-.018.042-.012.03-.015.028-.014.042-.015.03-.015.043-.012.03-.015.03-.014.043-.015.027-.015.03-.014.042-.016.03-.014.042-.015.03-.011.03-.015.042-.018.028-.012.044-.015.029-.015.03-.014.042-.015.028-.012.043-.015.03-.018.029-.011.044-.015.028-.014.028-.018.045-.012.029-.015.041-.015.03-.014.03-.015.044-.012.027-.015.044-.015.029-.014.028-.015.043-.012.029-.015.045-.014.027-.018.029-.012.044-.014.03-.016.03-.015.04-.014.03-.015.044-.015.029-.014.042-.015.03-.015.03-.012.042-.014.028-.015.03-.015.043-.014.029-.013.042-.017.03-.015.028-.012.043-.014.03-.018.043-.012.03-.015.027-.015.044-.014.028-.015.044-.015.028-.012.03-.014.045-.018.029-.015.027-.012.044-.014.029-.016.041-.014.03-.015.03-.015.042-.014.03-.012.043-.015.029-.015.03-.014.042-.015.029-.015.03-.012.041-.018.029-.011.044-.018.03-.012.028-.012.043-.018.03-.014.041-.012.03-.018.028-.014.044-.015.029-.012.044-.015.028-.014.03-.015.043-.015.027-.015.044-.012.03-.018.028-.014.043-.012.03-.014.029-.016.043-.014.03-.015.042-.015.03-.014.027-.015.043-.016.03-.01.043-.016.03-.014.028-.015.044-.015.029-.015.041-.015.03-.014.03-.012.042-.015.029-.015.044-.015.029-.014.03-.015.042-.014.029-.015.03-.015.042-.012.028-.015.044-.014.03-.015.028-.015.044-.015.028-.015.044-.014.029-.015.029-.012.043-.015.03-.015.042-.014.028-.015.03-.015.043-.014.029-.016.028-.011.044-.015.028-.014.043-.018.03-.013.029-.014.043-.015.028-.015.044-.014.03-.012.028-.018.042-.012.03-.014.028-.015.043-.015.03-.014.044-.015.029-.015.028-.012.043-.015.03-.017.044-.013.027-.014.029-.015.044-.015.028-.014.044-.013.029-.014.03-.018.042-.014.028-.012.044-.015.028-.014.03-.016.043-.015.03-.014.042-.015.028-.015.03-.012.044-.014.028-.015.03-.015.042-.014.03-.015.043-.012.027-.017.03-.016.043-.014.027-.012.045-.018.03-.014.03-.013.042-.011.028-.018.044-.015.03-.011.028-.018.043-.012.029-.015.028-.014.044-.018.029-.01.044-.014.029-.017.028-.016.044-.011.029v.042h3.047l.012-.014.015-.043.015-.044.014-.042.015-.03.012-.043.018-.045.011-.04.018-.045.012-.03.015-.041.015-.044.015-.045.014-.04.015-.03.015-.045.014-.045.015-.04.012-.03.015-.043.014-.043.015-.044.015-.03.015-.042.015-.043.014-.044.013-.043.014-.03.017-.042.013-.043.014-.043.015-.03.015-.044.014-.043.016-.042.011-.029.015-.044.018-.043.011-.042.016-.03.014-.042.015-.045v-.03l3.682.015.015.073.012.059.017.07.016.073.014.057.012.073.014.072.015.058.015.072.015.072.011.072.018.073.015.058.015.072.012.072.015.072.014.058.015.087.015.056.012.074.018.073.014.07.015.058.011.074.015.027h2.688v-.101l-.015-.071-.015-.073-.015-.072-.014-.059-.015-.07-.012-.073-.017-.058-.013-.072-.014-.072-.015-.072-.015-.073-.014-.058-.015-.072-.015-.072-.015-.072-.011-.073-.015-.057-.016-.073-.014-.07-.015-.073-.015-.073-.014-.056-.015-.073-.012-.072-.015-.074-.014-.057-.018-.073-.012-.07-.014-.073-.015-.073-.016-.056-.014-.073-.015-.072-.012-.073-.014-.07-.015-.06-.015-.07-.015-.073-.014-.057-.015-.074-.015-.071-.012-.073-.017-.072-.012-.073L40.73 18l-.011-.075-.016-.07-.015-.073-.014-.072-.015-.057-.015-.073-.014-.072-.012-.058-.015-.072-.015-.073-.014-.071-.015-.073-.015-.056-.012-.074-.015-.073-.018-.071-.014-.072-.012-.058-.015-.073-.015-.07-.014-.073-.015-.073-.015-.056-.011-.075-.018-.07-.015-.071-.012-.06-.015-.072-.017-.072-.012-.07-.015-.075-.015-.056-.015-.074-.014-.071-.012-.073-.015-.07-.014-.06-.015-.07-.015-.074-.015-.056-.014-.074-.015-.071-.015-.074-.012-.071-.015-.058-.014-.072-.018-.074-.012-.07-.015-.073-.015-.058-.014-.073-.012-.07-.015-.073-.015-.073-.015-.057-.014-.073-.015-.072-.015-.072-.012-.056-.017-.074-.012-.073-.018-.07-.011-.073-.018-.057-.015-.072-.012-.073-.015-.072-.014-.073-.015-.057-.012-.072-.015-.072-.015-.058-.017-.073-.012-.072-.015-.072-.014-.07-.015-.075-.015-.057-.015-.073-.011-.07-.015-.074-.015-.07-.015-.06-.015-.071-.015-.072-.014-.059-.012-.072-.015-.071-.017-.073-.016-.072-.011-.058-.015-.072-.014-.072-.016-.072-.014-.071-.015-.06-.015-.072-.015-.073-.01-.07-.016-.074-.015-.072-.015-.058-.014-.072-.015-.072-.015-.056-.014-.074-.016-.071-.011-.072-.015-.073-.015-.057-.017-.072-.013-.073-.014-.072-.015-.073-.015-.057-.014-.059h-2.484l-.142.015zm-.91 7.146l.012-.045.016-.027.014-.043.012-.044.018-.027.012-.044.015-.044.014-.043.015-.029.015-.044.014-.042.012-.029.018-.043.015-.044.015-.042.011-.03.018-.044.011-.043.016-.028.015-.045.014-.044.015-.041.011-.03.018-.043.012-.043.015-.028.015-.045.018-.043.011-.044.015-.028.014-.044.016-.043.014-.028.015-.044.015-.042.012-.044.015-.03.014-.042.015-.043.015-.03.014-.044.012-.041.018-.045.015-.03.011-.041.015-.044.015-.044.015-.03.015-.04.015-.045.011-.03.018-.043.015-.042.012-.045.014-.027.015-.043.015-.044.014-.029.015-.042.015-.044.015-.045.015-.027.014-.044.013-.042.014-.03.015-.043.015-.044.014-.043.015-.03.011-.042.018-.045.012-.042.015-.029.015-.044.014-.043.015-.027.016-.045.014-.044.015-.043.015-.043.011-.044.015-.028.015-.043.015-.044.014-.042.015-.03.015-.043.015-.045.012-.04.014-.03.015-.043.015-.043.014-.044.015-.03.015-.042.015-.043.015-.03.012-.043.017-.042.012-.045.018-.044.012-.027.014-.044.015-.044v.088l.014.056.015.074.016.071.011.073.015.072.014.07.016.074.014.073.015.07.015.073.011.074.016.07.017.072.012.073.015.058.014.072.015.073.015.072.014.072.012.073.015.057.018.072.011.071.015.073.016.072.014.059.015.07.011.074.018.071.012.074.018.071.015.059.011.07.015.073.015.072.014.073.016.072.011.057.018.073.015.07.012.073.015.058.017.074.015.07.012.074.014.07.015.073.015.073.015.059.015.07.011.072.015.073.015.072.015.073.015.058.014.071.015.073.015.072h-2.357l.018-.044zM28.443 10.015l-.16.014-.13.015-.115.014-.086.014-.085.015-.089.013-.07.015-.075.014-.073.015-.056.016-.071.014-.06.013-.058.013-.042.016-.06.014-.055.015-.044.015-.044.014-.042.015-.041.013-.06.015-.047.015-.026.013-.045.015-.04.014-.03.015-.045.016-.044.014-.026.015-.044.013-.03.015-.03.013-.041.015-.03.015-.029.014-.03.015-.026.015-.03.015-.044.013-.03.015-.026.014-.012.013-.032.015-.03.016-.027.014-.029.013-.03.016-.03.015-.01.012-.03.017-.03.013-.015.014-.03.015-.03.015-.014.014-.026.016-.03.013-.015.014-.014.015-.03.014-.014.015-.027.014-.015.015-.027.013-.017.016-.03.014-.011.013-.015.015-.03.014-.015.015-.015.015-.029.015-.015.015-.012.013-.014.016-.03.015-.014.013-.015.014-.016.014-.014.015-.026.014-.015.015-.018.014-.012.015-.015.014-.014.015-.015.015-.015.013-.015.014-.014.016-.027.014-.014.015-.015.015-.016.013-.014.015-.015.013-.011.03-.018.014-.012.015-.015.014-.015.014-.014.015-.015.015-.015.014-.014.014-.013.015-.014.014-.015.03-.015.013-.014.016-.016.014-.014.027-.015.015-.011.015-.015.014-.018.03-.015.015-.012.013-.015.029-.014.014-.015.015-.015.03-.012.014-.018.028-.011.015-.018.028-.011.015-.016.03-.014.027-.015.015-.015.03-.014.028-.015.029-.015.015-.012.03-.015.026-.014.03-.015.03-.015.029-.014.027-.012.029-.018.029-.012.045-.015.027-.017.029-.013.044-.014.03-.015.04-.015.045-.014.044-.015.043-.015.043-.012.043-.014.057-.018.06-.012.057-.015.071-.015.072-.014.087-.015.101-.015.145v.505l.015.13.015.086.014.074.015.056.015.059.012.057.018.043.014.044.012.043.015.043.015.03.014.042.015.03.015.043.014.03.013.028.017.029.015.03.012.027.018.03.012.03.014.011.015.03.015.03.014.014.015.029.012.027.015.016.015.029.014.014.015.03.015.013.014.014.016.029.011.014.018.015.011.03.018.015.012.014.015.028.015.013.014.016.015.013.012.016.015.03.018.014.015.015.011.013.015.013.014.015.016.015.014.014.015.015.015.015.014.015.013.015.014.013.015.014.015.015.014.014.015.015.015.014.012.015.018.015.011.014.015.014.014.015.016.013.015.014.014.015.027.015.014.015.015.015.015.013.015.014.014.015.027.014.018.015.015.014.011.015.03.015.015.014.015.014.014.016.03.013.014.013.012.015.03.015.014.015.015.015.03.014.015.013.026.017.015.012.032.015.012.014.015.015.03.015.012.014.029.014.015.015.029.014.03.015.015.013.026.015.015.015.03.015.029.014.014.015.027.015.018.014.026.015.03.014.03.013.014.016.027.013.03.016.032.014.012.015.026.013.03.016.029.012.03.015.03.015.012.014.029.015.03.015.029.014.029.014.03.015.026.015.03.013.03.015.026.014.032.015.027.015.03.013.03.016.026.013.03.015.029.015.026.013.033.015.03.015.026.014.03.014.03.017.029.013.026.014.03.013.014.015.03.015.03.015.026.015.03.014.03.015.014.014.027.014.032.013.027.015.014.015.03.014.03.015.014.016.03.013.026.016.015.013.027.014.017.014.03.015.015.015.026.014.015.015.03.014.014.015.015.012.027.017.015.013.014.014.015.016.03.015.014.014.015.015.015.013.011.014.015.014.016.015.029.015.014.014.015.03.015.014.014.014.013.015.014.014.015.013.015.03.014.015.015.015.015.03.015.026.011.016.015.028.016.045.013.027.016.044.015.058.014.086v.174l-.014.1-.015.06-.016.042-.013.028-.016.044-.015.029-.01.028-.016.015-.015.029-.015.015-.014.029-.015.013-.015.017-.014.028-.013.013-.014.014-.015.016-.015.013-.014.016-.015.013-.014.015-.03.013-.012.017-.015.013-.015.015-.03.014-.014.015-.03.015-.026.015-.015.011-.03.017-.03.013-.029.014-.011.016-.045.015-.03.014-.029.015-.026.014-.044.014-.045.015-.04.013-.048.015-.042.014-.06.015-.055.015-.059.014-.085.014-.087.015-.118.014-.2.013h-.301l-.349-.013-.203-.014-.127-.015-.13-.014-.104-.014-.086-.015-.073-.015-.072-.014-.07-.015-.06-.013-.07-.015-.045-.014-.055-.014-.06-.015-.044-.014-.041-.015-.06-.016-.043-.014-.042-.013-.044-.017-.041-.01-.03-.016-.045-.015-.044-.015-.044-.014-.026-.015-.045-.013-.03-.017-.043-.013-.042-.015-.03-.013-.03-.016-.04-.013-.03-.016-.044-.014-.03-.013-.026-.017-.044-.01-.03-.018-.027-.013-.032-.015-.027-.014-.044-.015-.03-.015-.03-.014-.026-.015-.03-.014-.029-.014-.03-.013-.026-.016-.03-.015-.029-.014h-.045l-.014.045-.012.085-.014.085-.015.09-.015.1-.015.085-.015.088-.014.086-.015.1-.012.088-.015.087-.015.086-.014.085-.015.103-.015.086-.015.087-.015.087-.014.085-.012.088-.014.1-.018.087-.012.085-.015.089-.015.085-.014.088-.015.102-.015.086-.012.085v.074l.042.015.029.013.027.014.044.013.029.017.045.014.03.014.04.015.045.015.044.013.026.017.06.011.044.016.041.015.044.013.045.015.056.015.044.015.056.013.06.016.059.013.056.016.056.013.059.014.074.015.056.015.07.014.075.015.07.014.075.014.085.013.088.015.101.015.089.015.1.015.115.014.13.013.127.015.174.015.219.015h1.066l.192-.015.156-.015.13-.015.1-.013.104-.014.083-.015.073-.015.089-.015.07-.015.075-.013.056-.014.073-.014.057-.015.06-.014.054-.015.06-.015.045-.014.055-.013.045-.016.044-.013.041-.016.044-.013.045-.015.042-.015.044-.015.044-.013.026-.015.044-.016.042-.011.03-.017.046-.013.027-.015.03-.015.041-.014.03-.014.03-.017.029-.013.041-.014.03-.013.03-.015.03-.015.025-.015.03-.015.03-.014.026-.015.032-.013.015-.015.027-.013.03-.015.03-.015.014-.014.03-.015.025-.015.03-.014.015-.014.027-.017.017-.01.03-.017.012-.014.029-.015.03-.014.012-.015.014-.015.03-.013.012-.015.032-.013.015-.015.015-.014.026-.015.018-.016.026-.014.015-.015.015-.013.015-.015.03-.014.014-.014.015-.015.012-.014.03-.015.017-.015.012-.014.014-.016.015-.013.015-.014.012-.015.032-.015.013-.013.014-.015.015-.015.011-.015.018-.014.015-.013.012-.015.015-.015.014-.013.015-.015.015-.015.014-.014.015-.016.016-.014.014-.013.015-.013.015-.03.01-.015.019-.015.012-.015.015-.013.014-.014.015-.016.012-.029.015-.013.015-.015.014-.014.015-.029.015-.016.014-.013.016-.013.014-.03.012-.015.014-.03.016-.014.017-.013.012-.032.015-.011.014-.03.015-.015.015-.029.012-.013.015-.031.018-.028.011-.014.015-.029.014-.03.016-.028.014-.014.015-.028.015-.03.014-.03.015-.027.012-.029.015-.029.015-.03.014-.042.015-.029.015-.029.012-.044.014-.028.018-.043.012-.03.015-.042.017-.043.015-.044.009-.045.018-.04.014-.06.015-.058.012-.057.018-.058.012-.072.014-.072.018-.088.012-.1.012-.13.015-.274v-.16l-.015-.23-.012-.115-.012-.087-.018-.073-.014-.057-.012-.057-.018-.06-.012-.04-.015-.045-.014-.043-.018-.043-.009-.044-.015-.029-.017-.043-.015-.029-.012-.029-.018-.03-.014-.029L31 16.51l-.015-.028-.015-.03-.014-.03-.015-.026-.015-.03-.012-.014-.015-.03-.014-.029-.015-.015-.015-.028-.014-.014-.016-.029-.014-.014-.015-.03-.011-.014-.018-.015-.015-.029-.012-.013-.015-.029-.015-.015-.014-.015-.015-.015-.012-.026-.017-.016-.016-.014-.014-.014-.012-.015-.014-.015-.016-.029-.014-.014-.015-.015-.015-.014-.014-.013-.015-.015-.015-.015-.012-.015-.015-.015-.014-.014-.015-.013-.012-.015-.018-.014-.011-.014-.015-.015-.015-.015-.014-.014-.016-.015-.015-.014-.014-.015-.015-.014-.03-.013-.014-.015-.012-.015-.015-.015-.018-.015-.011-.014-.015-.015-.027-.015-.014-.013-.018-.013-.012-.015-.03-.015-.014-.014-.012-.015-.018-.016-.029-.013-.012-.016-.015-.013-.03-.014-.014-.014-.03-.014-.015-.016-.011-.014-.033-.015-.012-.015-.03-.014-.014-.013-.032-.016-.013-.014-.029-.013-.014-.015-.027-.015-.015-.014-.03-.016-.01-.013-.03-.016-.018-.012-.027-.015-.03-.016-.015-.013-.026-.015-.029-.015-.015-.014-.03-.015-.03-.015-.026-.012-.033-.014-.014-.015-.026-.015-.03-.015-.03-.015-.026-.013-.015-.016-.03-.013-.026-.015-.032-.014-.027-.014-.03-.015-.029-.015-.03-.014-.03-.015-.026-.015-.03-.013-.029-.017-.03-.013-.03-.013-.025-.016-.03-.014-.03-.014-.026-.015-.03-.015-.03-.013-.028-.015-.03-.015-.027-.013-.03-.015-.014-.014-.03-.015-.029-.015-.03-.015-.026-.013-.03-.015-.03-.014-.014-.014-.026-.015-.03-.014-.03-.015-.03-.015-.015-.014-.029-.015-.026-.014-.03-.016-.015-.013-.029-.013-.03-.015-.012-.015-.029-.015-.03-.015-.014-.014-.03-.012-.015-.016-.026-.014-.03-.014-.014-.015-.03-.015-.014-.013-.015-.016-.027-.014-.015-.013-.029-.016-.015-.015-.015-.015-.015-.013-.027-.015-.013-.015-.016-.014-.017-.013-.027-.017-.015-.013-.014-.015-.012-.013-.015-.015-.015-.014-.014-.015-.015-.016-.015-.013-.015-.029-.015-.013-.014-.015-.012-.03-.015-.014-.017-.03-.015-.013-.012-.03-.015-.027-.015-.03-.014-.043-.015-.043-.012-.089v-.142l.012-.073.015-.057.014-.043.015-.03.015-.03.012-.027.015-.016.017-.029.015-.027.012-.015.014-.015.015-.015.015-.028.015-.014.015-.015.014-.014.015-.014.015-.015.026-.015.015-.014.015-.014.012-.015.033-.015.013-.013.027-.014.015-.015.03-.015.03-.015.014-.015.027-.014.03-.013.029-.015.044-.014.026-.014.03-.015.044-.015.044-.014.042-.015.06-.014.04-.015.074-.016.06-.011.085-.015.115-.015.145-.015h.664l.19.015.129.015.112.015.104.011.07.016.075.015.07.014.059.015.072.014.058.015.056.015.044.014.06.014.044.015.056.013.042.014.044.015.044.015.042.015.03.015.043.014.042.013.044.015.03.015.044.014.029.014.042.015.029.015.027.014.032.014.027.015.032.014.041.015.027.013.03.015.032.015.024.015h.044l.015-.087.015-.087.017-.086.012-.1.015-.088.015-.087.014-.085.015-.09.015-.085.012-.1.014-.087.015-.087.015-.085.015-.088.015-.087.015-.1.014-.087.012-.102.014-.086.018-.085.015-.089.012-.087.015-.086.014-.101.015-.086.015-.087.012-.087v-.028l-.027-.015-.044-.013-.045-.015-.026-.014-.044-.016-.045-.015-.041-.014-.044-.015-.044-.013-.042-.015-.044-.015-.056-.013-.045-.015-.041-.014-.059-.015-.06-.015-.058-.014-.056-.016-.06-.013-.058-.013-.056-.014-.074-.016-.071-.015-.071-.014-.085-.015-.075-.013-.1-.015-.085-.014-.118-.014-.13-.015-.157-.014-.204-.015h-.88zM16.105 10.015l-.014.044-.012.03-.015.042-.015.043-.014.03-.015.043-.012.042-.015.03-.015.044-.017.043-.012.042-.015.029-.017.042-.013.045-.011.03-.015.042-.018.043-.014.03-.013.044-.014.04-.015.03-.014.045-.015.044-.015.041-.014.03-.016.044-.011.043-.015.028-.015.044-.015.043-.015.042-.014.03-.012.043-.018.043-.014.03-.013.042-.014.044-.018.029-.015.044-.011.043-.016.028-.014.044-.015.044-.015.044-.011.027-.018.044-.015.043-.014.028-.013.045-.014.044-.015.027-.014.044-.015.044-.016.043-.011.028-.018.044-.015.043-.011.028-.015.044-.015.043-.015.028-.011.044-.018.044-.012.043-.017.028-.013.045-.014.042-.015.029-.015.044-.014.044-.016.028-.014.043-.015.044-.015.028-.011.043-.015.044-.015.043-.015.028-.015.045-.012.043-.017.029-.015.042-.014.045-.012.042-.015.029-.015.044-.014.043-.016.03-.014.042-.015.044-.015.028-.011.043-.016.044-.014.029-.015.044-.015.043-.014.042-.015.031-.015.043-.014.043-.012.028-.015.043-.015.044-.014.028-.016.043-.015.044-.014.03-.015.042-.015.043-.012.044-.017.029-.012.042-.015.045-.014.03-.015.042-.015.043-.014.044-.013.028-.014.045-.015.042-.015.03-.015.041-.015.045-.014.028-.015.043-.015.044-.014.029-.013.043-.017.042-.014.045-.012.03-.015.041-.015.044-.014.03-.016.042-.011.043-.015.03-.015.044-.014.043-.016.028-.014.044-.015.043-.015.043-.014.03-.015.04-.015.045-.012.03-.015.042-.014.043-.015.044-.015.03-.015.04-.011.046-.015.029-.018.043-.015.042-.012.03-.017.045-.012.042-.015.03-.015.042-.014.045-.015.04-.012.03-.018.043-.011.043-.015.03-.015.043-.015.044-.015.027-.014.045-.013.042-.017.044-.012.029-.015.045-.018.04-.014.03-.012.044-.014.044-.015.027-.015.044-.015.045-.015.042-.011.029-.016.044-.014.041-.015.03-.011.044-.018.043-.015.028-.015.044-.012.045-.014.042-.018.029-.012-.071-.014-.074-.015-.071-.015-.074-.012-.07-.015-.073-.017-.073-.015-.071-.012-.087-.015-.071-.015-.074-.014-.073-.015-.07-.015-.073-.012-.087-.014-.073-.015-.071-.015-.071-.014-.072-.015-.075-.016-.014c-.014-.018-.285-.657-.333-.75-.124-.251-.239-.464-.378-.702-.266-.46-.587-.844-.916-1.236-.566-.673-1.57-1.506-2.374-1.93v.028l.018.059.012.041.015.06.014.056.015.058.012.057.015.045.015.058.014.056.015.059.015.044.015.056.011.059.018.058.015.057.015.043.012.058.015.058.014.057.015.059.015.042.014.058.015.06.015.056.012.042.014.06.015.056.015.058.014.058.016.044.014.056.015.06.015.056.012.058.015.044.014.056.017.06.013.056.014.044.015.058.015.057.015.057.011.046.015.056.018.058.015.058.012.057.015.043.014.06.015.056.015.058.014.058.012.042.018.058.012.06.014.056.015.044.015.059.015.057.012.056.018.06.014.043.015.057.012.057.015.057.014.06.015.043.015.057.014.06.015.055.015.044.012.058.015.057.014.058.015.058.015.044.015.056.011.06.018.056.015.058.012.043.015.057.014.058.015.058.015.058.014.044.015.059.012.057.018.041.012.06.014.057.015.058.015.059.015.042.015.058.014.058.015.057.015.058.012.043.015.058.014.057.015.058.015.045.014.056.015.059.015.056.012.06.014.042.018.057.012.06.015.055.015.06.014.043.015.057.015.058.012.057.015.059.014.041.018.06.012.058.014.057.016.043.014.058.015.058.015.058.012.057.017.045.015.057.012.056.015.058.014.06.015.043.015.056.014.059.012.056.015.045.015.058.014.056.016.058.015.043.014.059.012.056.017.059.012.056.018.045.012.058.015.058.014.058.015.044.015.056.012.058.018.058.014.058.015.043.011.057.018.058.013.058.014.057.015.043.015.059.014.057.012.058.015.059.015.041.014.06.015.057.018.058.011.044.016.056.015.059.014.056.012.059.017.045.013.056.018.058.011.057.015.059.014.028h2.37l.708-.013.012-.015.014-.045.015-.028.015-.043.014-.029.015-.03.015-.044.014-.028.016-.043.011-.028.015-.044.015-.028.014-.044.016-.03.014-.028.015-.043.015-.03.012-.042.014-.028.015-.044.017-.03.012-.042.015-.029.015-.044.015-.03.015-.028.011-.042.015-.03.015-.044.014-.028.016-.043.014-.03.015-.042.015-.03.014-.043.013-.029.017-.028.012-.043.018-.03.011-.042.015-.03.015-.043.015-.029.011-.043.015-.03.018-.042.011-.03.016-.044.015-.027.014-.029.015-.043.014-.031.013-.042.014-.029.015-.044.018-.028.011-.043.015-.029.015-.028.014-.043.016-.03.011-.044.015-.027.018-.044.014-.029.013-.043.014-.029.018-.044.012-.029.014-.028.015-.043.015-.029.015-.043.015-.03.011-.044.016-.028.014-.045.015-.027.015-.043.014-.03.015-.042.014-.029.013-.029.014-.044.018-.03.015-.042.011-.029.013-.042.017-.029.015-.043.012-.03.017-.03.015-.042.015-.029.012-.044.015-.028.014-.044.015-.028.015-.045.012-.027.014-.043.015-.03.018-.03.015-.042.011-.028.016-.045.011-.029.018-.043.011-.028.018-.044.012-.03.018-.041.012-.03.011-.043.018-.03.015-.028.014-.043.015-.03.012-.041.015-.03.018-.043.011-.03.016-.041.014-.03.015-.03.011-.042.015-.029.018-.043.015-.03.012-.043.014-.03.015-.042.015-.03.014-.043.016-.027.015-.03.014-.045.012-.027.014-.043.016-.028.014-.043.015-.03.015-.044.014-.03.015-.042.015-.03.015-.042.012-.03.017-.026.012-.045.015-.03.014-.043.016-.029.014-.042.015-.03.015-.044.012-.027.015-.044.017-.03.012-.028.014-.042.015-.03.015-.043.015-.028.012-.044.014-.03.015-.043.015-.027.015-.03.015-.044.014-.028.015-.043.015-.03.011-.044.016-.028.014-.043.015-.03.015-.043.014-.027.015-.03.015-.044.015-.03.011-.041.015-.03.015-.044.015-.028.015-.042.015-.03.014-.043.015-.03.012-.042.015-.03.017-.028.015-.042.012-.03.014-.044.015-.029.015-.042.015-.03.015-.044.014-.03.012-.026.015-.044.015-.03.015-.041.014-.03.015-.044.011-.027.018-.046.012-.027.018-.043.012-.03.014-.043.015-.03.015-.027.015-.043.015-.03.015-.044.01-.028.019-.043.012-.03.018-.043.011-.029.015-.042.015-.03.014-.03.013-.04.017-.03.015-.044.012-.03.014-.043.015-.028.015-.044.012-.028.014-.03.018-.042.015-.03.015-.044.012-.028.014-.043.015-.03.015-.042.014-.028.015-.045.016-.028.011-.029.015-.043.014-.03.015-.042.018-.028.012-.045.011-.03.018-.043.015-.027.015-.044.014-.028.015-.043.012-.03.015-.03.015-.043.014-.029.016-.042.014-.03.012-.042.014-.029.015-.044.016-.027.014-.03.015-.044.015-.029.014-.044.015-.027.014-.044.013-.03.014-.042.015-.03.015-.043.015-.029.015-.028.014-.043.015-.03.015-.044.011-.028.018-.043.015-.029.012-.043.015-.028.014-.045.015-.029.015-.04.015-.032.015-.028.011-.044.015-.03.014-.042.016-.029.015-.042.014-.03.012-.043.018-.029.014-.028.015-.044.012-.029.015-.044.014-.028.015-.043.015-.029.015-.045.015-.027.014-.044.015-.029.012-.03.015-.042.015-.028.014-.045V10H16.12l-.015.015zM20.792 10.028l-.014.088-.015.087-.016.085-.013.089-.016.1-.015.085-.014.088-.015.087-.014.086-.013.088-.014.1-.015.086-.015.087-.014.087-.015.1-.015.088-.012.087-.018.085-.011.102-.015.087-.014.085-.016.087-.015.087-.014.087-.015.102-.015.087-.012.085-.014.087-.018.086-.012.087-.014.1-.015.087-.015.087-.012.086-.018.088-.011.086-.018.1-.015.088-.012.087-.015.087-.014.1-.015.087-.015.086-.014.087-.013.102-.014.085-.015.087-.015.087-.014.086-.016.086-.014.103-.015.086-.015.085-.014.087-.015.087-.015.088-.012.101-.014.086-.015.085-.015.089-.014.085-.015.087-.016.101-.011.088-.018.085-.011.087-.015.087-.015.1-.015.087-.015.087-.014.1-.015.088-.015.087-.014.085-.013.087-.014.087-.015.101-.015.087-.014.088-.016.085-.014.087-.015.087-.011.1-.016.086-.015.088-.014.086-.015.087-.014.087-.015.1-.015.087-.014.087-.013.087-.014.087-.015.102-.018.085-.011.085-.016.104-.014.085-.015.086-.015.087-.014.087-.013.085-.014.103-.015.086-.015.087-.014.085-.015.089-.015.087-.012.1-.014.087-.018.086-.012.087-.014.085-.016.087-.015.102-.014.087-.015.085-.015.088-.014.087-.015.1-.012.086-.015.087-.014.102-.015.085v.087h2.903l.015-.057.014-.087.015-.086.015-.087.012-.085.014-.09.018-.1.012-.086.014-.086.015-.087.015-.085.015-.09.012-.1.014-.086.015-.086.015-.087.015-.086.015-.087.014-.102.015-.085.015-.09.012-.085.015-.085.017-.102.012-.087.014-.085.015-.101.015-.087.015-.088.015-.085.015-.089.014-.085.015-.1.012-.089.015-.086.014-.087.015-.087.015-.085.014-.1.013-.087.014-.087.018-.086.012-.088.014-.087.015-.1.015-.089.015-.085.015-.086.014-.087.012-.102.015-.085.015-.087.015-.102.014-.085.015-.087.015-.087.014-.087.016-.086.014-.103.015-.085.011-.087.015-.087.015-.086.015-.085.012-.087.017-.102.015-.085.012-.09.015-.085.015-.087.014-.086.018-.102.015-.085.011-.087.015-.087.015-.086.015-.102.011-.087.018-.085.013-.104.014-.085.015-.086.015-.087.011-.087.015-.1.018-.086.012-.089.018-.085.011-.086.015-.088.014-.086.016-.102.015-.087.014-.085.015-.086.011-.088.016-.086.017-.1.012-.09.015-.085.014-.085.015-.088.015-.101.012-.086.018-.087.011-.102.015-.086.014-.086.015-.087.016-.086.014-.102.015-.087.011-.086.016-.087.014-.087.018-.085.012-.09.014-.1.015-.085.015-.085.012-.089.018-.085.015-.088.014-.102.012-.086V10h-2.9z" fill="#838383"/><path d="M6.03 10.013l-.015.089-.015.085v.073l.059.014.041.013.06.015.056.015.044.015.058.015.06.014.041.015.044.013.057.016.043.014.045.013.056.015.044.015.042.015.044.013.045.016.044.015.041.011.044.017.045.013.04.015.033.015.042.014.045.015.04.015.045.014.03.014.04.015.045.013.03.015.044.014.026.016.045.013.044.016.027.013.029.014.042.014.032.015.042.015.029.014.03.015.04.015.03.014.03.016.04.014.03.013.033.015.023.013.045.016.033.014.026.015.03.013.03.016.025.013.03.016.03.014.041.013.03.015.029.015.03.014.03.016.029.014.027.013.029.015.03.013.03.016.01.014.03.015.03.015.03.014.029.013.03.016.026.014.03.015.014.013.03.015.026.014.03.016.015.014.03.013.029.017.03.013.014.015h.026c.804.425 1.808 1.257 2.375 1.93.328.392.65.777.915 1.236.14.239.254.451.378.702.048.093.32.732.334.75v-.058l-.015-.072-.015-.07-.014-.073-.015-.072-.015-.074-.015-.071-.011-.086-.015-.072-.015-.073-.015-.074-.015-.07-.014-.072-.015-.072-.015-.073-.012-.072-.015-.071-.014-.074-.015-.071-.015-.073-.014-.086-.015-.074-.015-.07-.015-.073-.011-.073-.018-.07-.012-.074-.015-.071-.015-.074-.015-.085-.014-.056-.015-.074-.015-.073-.012-.087-.017-.07-.012-.075-.015-.07-.014-.072-.015-.073-.012-.072-.018-.072-.012-.073-.014-.087-.015-.058-.015-.071-.015-.087-.015-.071-.014-.073-.015-.072-.015-.073-.012-.072-.015-.072-.014-.071-.018-.074-.011-.085-.015-.06-.015-.07-.015-.087-.015-.058-.011-.086-.015-.073-.015-.071-.018-.074-.012-.07-.014-.073-.015-.072-.015-.073-.014-.087-.013-.058-.018-.087-.01-.055-.016-.045-.014-.044-.015-.043-.015-.042-.015-.03-.015-.028-.011-.03-.015-.028-.018-.03-.012-.029-.015-.013-.014-.028-.015-.015-.014-.029-.013-.015-.018-.015-.014-.028-.012-.014-.014-.016-.015-.013-.018-.015-.012-.014-.015-.015-.014-.015-.015-.015-.012-.015-.03-.013-.014-.014-.015-.013-.027-.016-.017-.014-.03-.015-.027-.015-.015-.014-.026-.015-.032-.013-.03-.016-.041-.014-.045-.013-.03-.015-.04-.015-.06-.014-.059-.016-.07-.014-.115-.015L10.78 10H6.044l-.015.013z" fill="#838383"/><path stroke="#838383" d="M1 29.051h44.744V1H1z"/></g></svg>