<?xml version="1.0" encoding="UTF-8"?>
<svg width="31px" height="22px" viewBox="0 0 31 22" version="1.1" xmlns="http://www.w3.org/2000/svg" xmlns:xlink="http://www.w3.org/1999/xlink">
    <title>Group 6</title>
    <defs>
        <polygon id="path-1" points="9.67516242e-05 0.232445777 29.3846777 0.232445777 29.3846777 20.8015992 9.67516242e-05 20.8015992"></polygon>
    </defs>
    <g id="Page-1" stroke="none" stroke-width="1" fill="none" fill-rule="evenodd">
        <g id="Group-6" transform="translate(0.673913, 0.000000)">
            <g id="Group-3" transform="translate(0.000000, 0.009530)">
                <mask id="mask-2" fill="white">
                    <use xlink:href="#path-1"></use>
                </mask>
                <g id="Clip-2"></g>
                <path d="M28.7706435,3.44423688 C28.4327384,2.17993503 27.4369223,1.18436082 26.1726205,0.846455772 C23.8810583,0.232324838 14.6923146,0.232324838 14.6923146,0.232324838 C14.6923146,0.232324838 5.50357101,0.232324838 3.2120088,0.846455772 C1.94770695,1.18436082 0.951890855,2.17993503 0.613985807,3.44423688 C9.67516242e-05,5.7357991 9.67516242e-05,10.5170225 9.67516242e-05,10.5170225 C9.67516242e-05,10.5170225 9.67516242e-05,15.2982459 0.613985807,17.5895662 C0.951890855,18.8538681 1.94770695,19.8496842 3.2120088,20.1875892 C5.50357101,20.8017201 14.6923146,20.8017201 14.6923146,20.8017201 C14.6923146,20.8017201 23.8810583,20.8017201 26.1726205,20.1875892 C27.4369223,19.8496842 28.4327384,18.8538681 28.7706435,17.5895662 C29.3847744,15.2982459 29.3847744,10.5170225 29.3847744,10.5170225 C29.3847744,10.5170225 29.3847744,5.7357991 28.7706435,3.44423688" id="Fill-1" fill="#FF0000" mask="url(#mask-2)"></path>
            </g>
            <polygon id="Fill-4" fill="#FFFFFF" points="11.7538469 14.9342663 19.3880338 10.5265041 11.7538469 6.11874203"></polygon>
        </g>
    </g>
</svg>