<svg width="53" height="48" xmlns="http://www.w3.org/2000/svg"><g fill="none" fill-rule="evenodd"><path d="M2.29 19.431c-.03.108-.038.217-.03.322a.97.97 0 00.731.862l5.212 1.354C3.108 24.381-.061 29.665.38 35.294c.59 7.501 7.276 13.132 14.903 12.552 6.286-.478 11.457-5.076 12.573-11.182a.97.97 0 00-.794-1.125.983.983 0 00-1.144.781c-.96 5.24-5.395 9.184-10.787 9.594-6.544.497-12.28-4.333-12.785-10.77-.383-4.867 2.38-9.434 6.812-11.48l-1.364 5.069a.964.964 0 00.7 1.183.987.987 0 001.204-.688l2.232-8.297-8.436-2.189a.987.987 0 00-1.204.69" fill="#1D1C1B"/><path d="M2.29 19.431c-.03.108-.038.217-.03.322a.97.97 0 00.731.862l5.212 1.354C3.108 24.381-.061 29.665.38 35.294c.59 7.501 7.276 13.132 14.903 12.552 6.286-.478 11.457-5.076 12.573-11.182a.97.97 0 00-.794-1.125.983.983 0 00-1.144.781c-.96 5.24-5.395 9.184-10.787 9.594-6.544.497-12.28-4.333-12.785-10.77-.383-4.867 2.38-9.434 6.812-11.48l-1.364 5.069a.964.964 0 00.7 1.183.987.987 0 001.204-.688l2.232-8.297-8.436-2.189a.987.987 0 00-1.204.69z" stroke="#1D1C1B" stroke-width=".1"/><path d="M33.944 17.393H18.637l15.307-15.05 15.307 15.05H33.944zm-12.9 18.026h25.8V19.058h-25.8v16.361zm30.848-17.781L34.542.578a.856.856 0 00-1.196 0l-17.35 17.06a.82.82 0 00-.183.906c.13.31.439.514.781.514h2.76V36.25c0 .46.377.833.844.833h27.49a.84.84 0 00.847-.833V19.058h2.759c.34 0 .65-.203.78-.514a.822.822 0 00-.182-.906z" fill="#1D1C1B"/><path d="M33.944 17.393H18.637l15.307-15.05 15.307 15.05H33.944zm17.948.245L34.542.578a.856.856 0 00-1.196 0l-17.35 17.06a.82.82 0 00-.183.906c.13.31.439.514.781.514h2.76V36.25c0 .46.377.833.844.833h27.49a.84.84 0 00.847-.833V19.058h2.759c.34 0 .65-.203.78-.514a.822.822 0 00-.182-.906z" stroke="#1D1C1B" stroke-width=".1"/><path d="M29.158 26.299h.302c.577 0 1.636-.054 1.636-1.298 0-.35-.165-1.23-1.224-1.23-1.318 0-1.318 1.23-1.318 1.568h-1.788c0-1.796 1.031-3.08 3.23-3.08 1.306 0 3.025.648 3.025 2.676 0 .972-.62 1.58-1.17 1.824v.026c.344.096 1.47.596 1.47 2.23 0 1.812-1.36 3.096-3.326 3.096-.921 0-3.393-.205-3.393-3.203h1.882l-.013.013c0 .514.137 1.676 1.429 1.676.769 0 1.443-.514 1.443-1.581 0-1.31-1.292-1.366-2.185-1.366V26.3zM37.697 30.597c1.1 0 1.402-.947 1.402-3.42 0-2.472-.302-3.405-1.402-3.405-1.1 0-1.402.933-1.402 3.405 0 2.473.302 3.42 1.402 3.42m0-8.338c2.294 0 3.38 1.553 3.38 4.918s-1.086 4.934-3.38 4.934c-2.295 0-3.38-1.569-3.38-4.934s1.085-4.918 3.38-4.918" fill="#1D1C1B"/></g></svg>