<svg width="30" height="40" xmlns="http://www.w3.org/2000/svg"><g fill="none" fill-rule="evenodd"><path d="M2.214 28.964l12.356 8.417 12.397-8.387V2.12H2.177l.037 26.843zm12.353 10.557c-.198 0-.395-.058-.566-.174L.661 30.26a.96.96 0 01-.424-.79L.197 1.16c0-.257.105-.502.29-.683.185-.182.437-.283.7-.283h26.769c.545 0 .988.432.988.964v28.342c0 .316-.16.613-.425.792L15.13 39.348c-.17.115-.366.173-.564.173z" fill="#1D1C1B"/><path d="M2.214 28.964l12.356 8.417 12.397-8.387V2.12H2.177l.037 26.843zm12.353 10.557c-.198 0-.395-.058-.566-.174L.661 30.26a.96.96 0 01-.424-.79L.197 1.16c0-.257.105-.502.29-.683.185-.182.437-.283.7-.283h26.769c.545 0 .988.432.988.964v28.342c0 .316-.16.613-.425.792L15.13 39.348c-.17.115-.366.173-.564.173z" stroke="#1D1C1B" stroke-width=".2"/><path d="M14.134 28.297c-.847 0-1.534.67-1.534 1.493 0 .824.687 1.494 1.534 1.494.845 0 1.533-.67 1.533-1.494 0-.823-.688-1.493-1.533-1.493m0 4.529c-1.718 0-3.117-1.36-3.117-3.036 0-1.674 1.399-3.034 3.117-3.034 1.717 0 3.114 1.36 3.114 3.034 0 1.675-1.397 3.036-3.114 3.036" fill="#1D1C1B"/><path d="M14.134 28.297c-.847 0-1.534.67-1.534 1.493 0 .824.687 1.494 1.534 1.494.845 0 1.533-.67 1.533-1.494 0-.823-.688-1.493-1.533-1.493zm0 4.529c-1.718 0-3.117-1.36-3.117-3.036 0-1.674 1.399-3.034 3.117-3.034 1.717 0 3.114 1.36 3.114 3.034 0 1.675-1.397 3.036-3.114 3.036z" stroke="#1D1C1B" stroke-width=".3"/><path d="M12.802 22.442c-.237 0-.469-.084-.65-.238l-5.519-4.695a.948.948 0 01-.095-1.362c.359-.4.984-.44 1.395-.092l4.718 4.013L22.847 6.821a1.005 1.005 0 011.384-.193.948.948 0 01.196 1.35L13.593 22.056a.994.994 0 01-.79.386" fill="#1D1C1B"/><path d="M12.802 22.442c-.237 0-.469-.084-.65-.238l-5.519-4.695a.948.948 0 01-.095-1.362c.359-.4.984-.44 1.395-.092l4.718 4.013L22.847 6.821a1.005 1.005 0 011.384-.193.948.948 0 01.196 1.35L13.593 22.056a.994.994 0 01-.79.386z" stroke="#1D1C1B" stroke-width=".2"/></g></svg>