<svg width="44" height="41" xmlns="http://www.w3.org/2000/svg"><path d="M11.59 16.24v21.895V16.24zm24.398-2.707h-8.016V8.107c0-2.76-.85-4.784-2.546-5.979-2.547-1.839-5.942-.92-6.319-.736-.66.185-1.133.828-1.133 1.472V9.67c0 4.875-5.94 6.623-6.13 6.623-.188 0-.282.093-.471.184a3.344 3.344 0 00-2.075-.736H4.395C2.508 15.741 1 17.213 1 19.053v16.74c0 1.84 1.508 3.31 3.395 3.31h4.903c.85 0 1.698-.367 2.264-.918 1.038.919 2.452 1.472 4.056 1.472h16.974c4.057 0 6.697-2.208 7.169-5.795l2.262-14.165v-.277c.19-3.219-2.64-5.887-6.035-5.887z" stroke="#1D1C1B" stroke-width="2" fill="none" fill-rule="evenodd"/></svg>